<?xml version="1.0" standalone="no"?><!DOCTYPE svg PUBLIC "-//W3C//DTD SVG 1.1//EN" "http://www.w3.org/Graphics/SVG/1.1/DTD/svg11.dtd"><!-- Created with RasterEdge (http://www.rasteredge.com/) -->
<!-- Product Page (http://www.rasteredge.com/demo/online-document-viewer/) -->
<svg width="11.69444in" height="8.269444in" version="1.1" xmlns="http://www.w3.org/2000/svg" xmlns:xlink="http://www.w3.org/1999/xlink" >
<text class="ft0_1" y="110.0933" x="323.5333 331.7653 344.6053 363.7573 376.5974 390.9254 403.7654 414.9493 422.3894 435.2294 442.6214 447.9734 464.2693 476.7734 491.1494 502.3334 516.4694 521.7494 537.2534 549.9974 561.2534 575.6294 589.7654 603.4214 610.8135 624.4695 636.9495 644.4855 655.6215 668.4614 675.8535 681.2054 697.4294 711.9255 719.3414 732.0854 744.9254 756.1094 767.0534 774.5894 783.3494 796.0934 801.4214 817.6934 830.5334 844.6213 852.3253 866.7253 879.5653 893.8932 907.1733">Jawaharlal Nehru Technological University Kakinada </text><text class="ft0_1" y="138.36" x="458.2267 474.4987 487.3387 501.4267 508.9627 523.5308 536.3707 550.6987 563.5388 569.1068 574.4348 590.1547 595.7227 610.4587 616.0267 621.3067 629.6107 644.0107 658.3867 665.9227 678.84 686.84 701.216 715.352 729.728 743.864 757.9999 772.4667">Kakinada, A.P. India-533003 </text><text class="ft0_1" y="166.4" x="349.1733 360.0453 371.0133 381.8853 392.8533 403.5093 414.3813 425.3492 436.2213 446.9492 457.8212 468.7892 479.6612 490.3892 501.2612 512.2291 523.1011 533.8291 544.7011 555.6691 566.3251 577.1971 588.165 599.037 609.765 620.421 631.293 642.261 653.133 664.101 674.757 685.629 696.597 707.469 718.197 729.069 740.037 750.9091 761.6371 772.509 783.4771 794.3491 805.0771 815.9491 826.9171 837.5731 848.4451 859.4131 870.2851 881.56">************************************************* </text><text class="ft0_3" y="233.4933" x="344.64 364.8853 375.552 383.8507 392.0853 398.016 408.8747 418.4533 423.7867 440.32 452.0533 461.632 473.3653 478.6986 495.2319 506.9653 512.8959 518.6986 530.4319 540.0106 545.3439 560.7892 571.4559 583.1892 592.7679 601.0665 610.6025 618.9012 624.2346 631.3812 651.6266 668.1599 684.6933 700.1386 708.4373 715.5839 720.9172 735.0612 741.1625 758.4852 768.0639 773.3972 787.5412 798.2079 809.9412 815.8718">Massive Open Online Courses (MOOCs) Time Table</text><path d="M344.6 239.7 L826.1 239.7 L826.1 237.6 L344.6 237.6 Z" class="df0_3"/><text class="ft0_3" y="266.0533" x="474.8 490.2454 505.6907 512.8801 518.2134 528.8801 539.5468 550.2667 560.9333 568.1334 578.8 589.2 596.44 601.7733 614.5734 620.504 630.0187 638.3174 645.4641 650.7974 662.5307 672.1094 689.432 699.0107 707.3093 714.456 724.0347">AY: 2017-18- First Semester</text><path d="M474.8 272.3 L733.8 272.3 L733.8 270.2 L474.8 270.2 Z" class="df0_3"/><text class="ft0_5" y="533.16" x="151.76"></text><text class="ft0_7" y="531.7733" x="192.0267 205.616 214.404 224.0414 232.5347 241.3227 250.96 255.1893 269.628 273.8573 285.5747 290.3933 299.164 303.428 315.9427 324.488 330.3293">Hadoop &amp; Big Data</text><text class="ft0_8" y="531.7733" x="343.56 349.4014 360.876 365.14 375.7827 383.4787 390.984 399.772 404.036 408.3 413.6387 426.1533 430.4867 443.0013 450.6973 458.3933 464.5467 469.0707 474.5333 478.8 488.4373 496.376 509.7333 515.3334 519.8667 531.3413 540.9786 551.6 556.644 561.9827 572.6667 578.5333">(B.Tech. IV Year I Sem- CSE/IT) </text><text class="ft0_9" y="533.16" x="582.8">–</text><text class="ft0_7" y="531.7733" x="595.8934 609.4827 614.3014 621.9974 630.8027 640.4401 644.6694 658.2588 667.0468 676.6841 686.2521 695.0402 702.5107 711.2988 720.9362 730.6 734.8667 739.1333 751.6479 761.2853 766.104 773.8 782.588 791.376 800.164 804.428 814.0654 819.6293 828.4174 834.2587 841.9546 846.3334 858.848 868.4854 873.3041 881.7974 889.4933 897.2413 903.9147 908.7333 914.5573 923.1733">Kiran Kopparapu, Chicago State University </text><text class="ft0_5" y="564.4" x="151.76"></text><text class="ft0_7" y="563.0134" x="192.0267 203.5013 208.32 216.016 223.7467 229.588 237.284 242.1027 249.8334 258.6214 263.44 267.6867 283.9454 292.7334 300.4294 310.0667 314.8854 324.4707 332.1667 339.0267 344.8934 351.56">Electrical Machines-I </text><text class="ft0_8" y="563.0134" x="355.84 361.6814 373.156 377.42 388.0627 395.7587 403.5067 412.2947 416.5587 420.8227 426.4214 432.02 436.284 448.7987 456.5294 464.52 470.3614 474.8854 480.2241 484.488 494.1254 502.0641 515.6 521.2 525.4667 536.1334 546.8 557.4667">(B.Tech. II Year I Sem- EEE)</text><text class="ft0_9" y="564.4" x="567.6">–</text><text class="ft0_7" y="563.0134" x="580.6667 591.3093 599.0054 607.828 617.4653 625.1614 632.8574 642.4947 646.7587 660.348 669.9854 684.3547 693.1427 700.8386 705.172 717.6866 725.1399 739.5786 749.1466 753.9653 762.8667 767.1307 771.3947 778.0681 784.7414 796.4587 800.7228 814.3121 823.1001 832.7375 840.4335 848.1294 856.9521 866.5895 875.3428 884.7734">Pradeep Kumar Yemula, IIT Hyderabad </text><text class="ft0_5" y="595.6" x="151.76"></text><text class="ft0_7" y="594.2133" x="192.0267 202.6693 211.4573 217.2987 226.936 235.6893 245.3267 249.556 259.956 267.652 276.2147 285.0027 292.6987 301.5213 315.96 330.3293 335.148 344.7333 353.6933">Python Programming </text><text class="ft0_8" y="594.2133" x="357.9734 363.84 375.3147 379.5787 390.2213 397.9173 405.4227 414.2267 418.4907 422.7547 428.3534 433.952 438.216 450.7307 458.7387 466.4347 472.3281 476.592 482.1907 486.4547 496.092 504.0307 517.4667 523.0667 527.3334 539.0507 548.688 559.2787 564.3747 569.7134 580.356 586.2667">(B.Tech. II Year I Sem- CSE/IT) </text><text class="ft0_10" y="595.6" x="590.5333">–</text><text class="ft0_7" y="594.2133" x="603.64 616.1547 624.96 630.8014 644.3907 654.0281 668.3974 677.1854 684.8813 689.2267 700.7014 713.216 722.8534 727.1 739.6147 748.42 758.0574 764.6787 774.3161 779.0828 784.9241 793.7121 803.3495 809.1561 815.6667">RajKumar TCS Consultants </text><text class="ft0_5" y="626.8" x="151.76"></text><text class="ft0_7" y="625.4133" x="192.0267 202.6693 207.488 217.0733 221.892 227.716 235.412 239.7453 251.1853 256.004 263.7 278.1387 285.8347 295.472 301.296 305.56 322.0787 329.7747 335.668 345.3054 354.0587 363.696">Finite Element Methods</text><text class="ft0_8" y="625.4133" x="374.7733 380.6147 392.0893 396.3533 406.996 414.692 422.1973 430.9853 435.2493 439.7733 445.112 457.6266 462.168 474.6826 482.4133 490.1093 496.0027 500.2667 505.6053 510.1293 519.7667 527.7053 541.2 546.8 551.0667 566.5107 574.2067 581.9547 590.7427 596.584">(B.Tech. IV Year I Sem- Mech) </text><text class="ft0_9" y="626.8" x="600.9734">–</text><text class="ft0_7" y="625.4133" x="614.0267 626.5413 631.36 638.0333 650.548 659.3533 668.9907 677.744 683.5853 693.2227 697.452 709.9667 719.604 724.4227 733.7134 739.5547 749.1921 757.9454 767.5828 775.2787 784.9161 790.7228 799.5107 803.7748 810.4481 817.1215 828.5961 832.8601 846.4495 855.2375 864.8749 872.5708 880.0414 888.8295 898.4668 907.2202">Viswanath Chinthapenta IIT Hyderabad</text><text class="ft0_12" y="664.9667" x="869.2933 877.5507 885.016 891.968 895.6639 901.5159 906.6052 911.9147 918.852 924.2267 928.7734 933.5693 943.176 950.3774 959.9547 967.96">Registrar-JNTUK </text><text class="ft0_13" y="698.3533" x="933.2933 939.4213 947.4213 951.96 957.2933">sd/- </text><g clip-path="url(#0clip0)"></g><g clip-path="url(#0clip0)"><g clip-path="url(#0clip1)"></g></g><g clip-path="url(#0clip1)"></g><g clip-path="url(#0clip0)"></g><g clip-path="url(#0clip0)"><g clip-path="url(#0clip2)"></g></g><g clip-path="url(#0clip2)"><text class="ft0_15" y="307.8667" x="285.1334 294.4667 299.2454 308.5787 317.912 322.6907 336.28 353.6213 358.4 364.5414 373.8747 378.6534 387.9867 397.0587 401.8374 411.1707 420.504 425.04 438.6294">9.00 AM to 10.40 AM</text></g><g clip-path="url(#0clip0)"></g><g clip-path="url(#0clip0)"><g clip-path="url(#0clip3)"></g></g><g clip-path="url(#0clip3)"><text class="ft0_15" y="350.5733" x="471.0667">B</text><text class="ft0_15" y="372.1733" x="471.0667">R</text><text class="ft0_15" y="393.5067" x="471.0667">E</text><text class="ft0_15" y="415.1067" x="471.0667">A</text><text class="ft0_15" y="436.44" x="471.0667">K</text></g><g clip-path="url(#0clip0)"></g><g clip-path="url(#0clip0)"><g clip-path="url(#0clip4)"></g></g><g clip-path="url(#0clip4)"><text class="ft0_15" y="307.8667" x="495.0667 504.4 513.7333 518.512 527.8453 537.1787 541.9574 555.5468 572.8881 577.6667 583.8081 593.1414">10.50 AM to </text><text class="ft0_15" y="307.8667" x="598.0267 607.36 616.432 621.2107 630.544 639.8773 644.4133 658.0027">12.30 AM</text></g><g clip-path="url(#0clip0)"></g><g clip-path="url(#0clip0)"><g clip-path="url(#0clip5)"></g></g><g clip-path="url(#0clip5)"><text class="ft0_15" y="350.5733" x="693.2267">B</text><text class="ft0_15" y="372.1733" x="693.2267">R</text><text class="ft0_15" y="393.5067" x="693.2267">E</text><text class="ft0_15" y="415.1067" x="693.2267">A</text><text class="ft0_15" y="436.44" x="693.2267">K</text></g><g clip-path="url(#0clip0)"></g><g clip-path="url(#0clip0)"><g clip-path="url(#0clip6)"></g></g><g clip-path="url(#0clip6)"><text class="ft0_15" y="307.8667" x="751.1333 760.4667 765.2453 774.5786 783.912 788.6906 799.8906 817.512 822.272 828.4133 837.7466 842.5253 851.8586 856.6372 865.9706 875.0426 879.8212 891.0212">2.00 PM to 3.40 PM</text></g><g clip-path="url(#0clip0)"><path d="M162.4 292.0 L163.0 292.0 L163.0 291.2 L162.4 291.2 Z" class="df0_3"/><path d="M162.4 291.8 L163.0 291.8 L163.0 291.2 L162.4 291.2 Z" class="df0_3"/><path d="M163.0 291.8 L277.7 291.8 L277.7 291.2 L163.0 291.2 Z" class="df0_3"/><path d="M277.7 292.0 L278.2 292.0 L278.2 291.8 L277.7 291.8 Z" class="df0_3"/><path d="M277.7 291.8 L278.2 291.8 L278.2 291.2 L277.7 291.2 Z" class="df0_3"/><path d="M278.2 291.8 L463.9 291.8 L463.9 291.2 L278.2 291.2 Z" class="df0_3"/><path d="M463.9 292.0 L464.4 292.0 L464.4 291.8 L463.9 291.8 Z" class="df0_3"/><path d="M463.9 291.8 L464.4 291.8 L464.4 291.2 L463.9 291.2 Z" class="df0_3"/><path d="M464.4 291.8 L487.9 291.8 L487.9 291.2 L464.4 291.2 Z" class="df0_3"/><path d="M487.9 292.0 L488.4 292.0 L488.4 291.8 L487.9 291.8 Z" class="df0_3"/><path d="M487.9 291.8 L488.4 291.8 L488.4 291.2 L487.9 291.2 Z" class="df0_3"/><path d="M488.4 291.8 L685.8 291.8 L685.8 291.2 L488.4 291.2 Z" class="df0_3"/><path d="M685.8 292.0 L686.3 292.0 L686.3 291.8 L685.8 291.8 Z" class="df0_3"/><path d="M685.8 291.8 L686.3 291.8 L686.3 291.2 L685.8 291.2 Z" class="df0_3"/><path d="M686.3 291.8 L709.8 291.8 L709.8 291.2 L686.3 291.2 Z" class="df0_3"/><path d="M709.8 292.0 L710.3 292.0 L710.3 291.8 L709.8 291.8 Z" class="df0_3"/><path d="M709.8 291.8 L710.3 291.8 L710.3 291.2 L709.8 291.2 Z" class="df0_3"/><path d="M710.3 291.8 L949.8 291.8 L949.8 291.2 L710.3 291.2 Z" class="df0_3"/><path d="M949.8 292.0 L950.4 292.0 L950.4 291.2 L949.8 291.2 Z" class="df0_3"/><path d="M949.8 291.8 L950.4 291.8 L950.4 291.2 L949.8 291.2 Z" class="df0_3"/><path d="M162.4 321.1 L163.0 321.1 L163.0 292.0 L162.4 292.0 Z" class="df0_3"/><path d="M277.7 321.1 L278.2 321.1 L278.2 292.0 L277.7 292.0 Z" class="df0_3"/><path d="M463.9 321.1 L464.4 321.1 L464.4 292.0 L463.9 292.0 Z" class="df0_3"/><path d="M487.9 321.1 L488.4 321.1 L488.4 292.0 L487.9 292.0 Z" class="df0_3"/><path d="M685.8 321.1 L686.3 321.1 L686.3 292.0 L685.8 292.0 Z" class="df0_3"/><path d="M709.8 321.1 L710.3 321.1 L710.3 292.0 L709.8 292.0 Z" class="df0_3"/><path d="M949.8 321.1 L950.4 321.1 L950.4 292.0 L949.8 292.0 Z" class="df0_3"/></g><g clip-path="url(#0clip0)"><g clip-path="url(#0clip7)"></g></g><g clip-path="url(#0clip7)"><text class="ft0_15" y="337.4667" x="169.9067 187.528 196.8613 207.24 217.6187 226.952">Monday</text></g><g clip-path="url(#0clip0)"></g><g clip-path="url(#0clip0)"><g clip-path="url(#0clip8)"></g></g><g clip-path="url(#0clip8)"></g><g clip-path="url(#0clip0)"></g><g clip-path="url(#0clip0)"><g clip-path="url(#0clip9)"></g></g><g clip-path="url(#0clip9)"></g><g clip-path="url(#0clip0)"></g><g clip-path="url(#0clip0)"><g clip-path="url(#0clip10)"></g></g><g clip-path="url(#0clip10)"></g><g clip-path="url(#0clip0)"><path d="M162.4 321.9 L163.0 321.9 L163.0 321.1 L162.4 321.1 Z" class="df0_3"/><path d="M163.0 321.6 L277.7 321.6 L277.7 321.1 L163.0 321.1 Z" class="df0_3"/><path d="M277.7 321.9 L278.2 321.9 L278.2 321.1 L277.7 321.1 Z" class="df0_3"/><path d="M278.2 321.6 L463.9 321.6 L463.9 321.1 L278.2 321.1 Z" class="df0_3"/><path d="M463.9 321.9 L464.4 321.9 L464.4 321.1 L463.9 321.1 Z" class="df0_3"/><path d="M487.9 321.9 L488.4 321.9 L488.4 321.1 L487.9 321.1 Z" class="df0_3"/><path d="M488.4 321.6 L685.8 321.6 L685.8 321.1 L488.4 321.1 Z" class="df0_3"/><path d="M685.8 321.9 L686.3 321.9 L686.3 321.1 L685.8 321.1 Z" class="df0_3"/><path d="M709.8 321.9 L710.3 321.9 L710.3 321.1 L709.8 321.1 Z" class="df0_3"/><path d="M710.3 321.6 L949.8 321.6 L949.8 321.1 L710.3 321.1 Z" class="df0_3"/><path d="M949.8 321.9 L950.4 321.9 L950.4 321.1 L949.8 321.1 Z" class="df0_3"/><path d="M162.4 343.2 L163.0 343.2 L163.0 321.9 L162.4 321.9 Z" class="df0_3"/><path d="M277.7 343.2 L278.2 343.2 L278.2 321.9 L277.7 321.9 Z" class="df0_3"/><path d="M463.9 343.2 L464.4 343.2 L464.4 321.9 L463.9 321.9 Z" class="df0_3"/><path d="M487.9 343.2 L488.4 343.2 L488.4 321.9 L487.9 321.9 Z" class="df0_3"/><path d="M685.8 343.2 L686.3 343.2 L686.3 321.9 L685.8 321.9 Z" class="df0_3"/><path d="M709.8 343.2 L710.3 343.2 L710.3 321.9 L709.8 321.9 Z" class="df0_3"/><path d="M949.8 343.2 L950.4 343.2 L950.4 321.9 L949.8 321.9 Z" class="df0_3"/></g><g clip-path="url(#0clip0)"><g clip-path="url(#0clip11)"></g></g><g clip-path="url(#0clip11)"><text class="ft0_15" y="359.64" x="169.9067 182.4134 192.792 201.08 208.2853 218.664 227.9973">Tuesday</text></g><g clip-path="url(#0clip0)"></g><g clip-path="url(#0clip0)"><g clip-path="url(#0clip12)"></g></g><g clip-path="url(#0clip12)"><text class="ft0_15" y="359.64" x="285.1334 299.5253 308.8587 319.2373 328.5707 337.904 348.2827 353.0987 368.5733 373.352 385.8587 390.9174 400.2507 405.0294 418.6187 427.9521 434.0934">Hadoop &amp; Big Data</text></g><g clip-path="url(#0clip0)"></g><g clip-path="url(#0clip0)"><g clip-path="url(#0clip13)"></g></g><g clip-path="url(#0clip13)"></g><g clip-path="url(#0clip0)"></g><g clip-path="url(#0clip0)"><g clip-path="url(#0clip14)"></g></g><g clip-path="url(#0clip14)"><text class="ft0_15" y="359.64" x="717.2267 729.7333 734.792 743.08 751.368 757.4533 765.7413 770.7814 779.0693 788.6267 793.6854 798.4641 816.0854 825.4187 833.7067 844.0854 849.1254 859.5041 867.7921">Electrical Machines</text><text class="ft0_15" y="359.64" x="875.1733">-</text><text class="ft0_15" y="359.64" x="881.2933">I</text></g><g clip-path="url(#0clip0)"><path d="M162.4 344.0 L163.0 344.0 L163.0 343.2 L162.4 343.2 Z" class="df0_3"/><path d="M163.0 343.8 L277.7 343.8 L277.7 343.2 L163.0 343.2 Z" class="df0_3"/><path d="M277.7 344.0 L278.2 344.0 L278.2 343.2 L277.7 343.2 Z" class="df0_3"/><path d="M278.2 343.8 L463.9 343.8 L463.9 343.2 L278.2 343.2 Z" class="df0_3"/><path d="M463.9 344.0 L464.4 344.0 L464.4 343.2 L463.9 343.2 Z" class="df0_3"/><path d="M487.9 344.0 L488.4 344.0 L488.4 343.2 L487.9 343.2 Z" class="df0_3"/><path d="M488.4 343.8 L685.8 343.8 L685.8 343.2 L488.4 343.2 Z" class="df0_3"/><path d="M685.8 344.0 L686.3 344.0 L686.3 343.2 L685.8 343.2 Z" class="df0_3"/><path d="M709.8 344.0 L710.3 344.0 L710.3 343.2 L709.8 343.2 Z" class="df0_3"/><path d="M710.3 343.8 L949.8 343.8 L949.8 343.2 L710.3 343.2 Z" class="df0_3"/><path d="M949.8 344.0 L950.4 344.0 L950.4 343.2 L949.8 343.2 Z" class="df0_3"/><path d="M162.4 365.4 L163.0 365.4 L163.0 344.0 L162.4 344.0 Z" class="df0_3"/><path d="M277.7 365.4 L278.2 365.4 L278.2 344.0 L277.7 344.0 Z" class="df0_3"/><path d="M463.9 365.4 L464.4 365.4 L464.4 344.0 L463.9 344.0 Z" class="df0_3"/><path d="M487.9 365.4 L488.4 365.4 L488.4 344.0 L487.9 344.0 Z" class="df0_3"/><path d="M685.8 365.4 L686.3 365.4 L686.3 344.0 L685.8 344.0 Z" class="df0_3"/><path d="M709.8 365.4 L710.3 365.4 L710.3 344.0 L709.8 344.0 Z" class="df0_3"/><path d="M949.8 365.4 L950.4 365.4 L950.4 344.0 L949.8 344.0 Z" class="df0_3"/></g><g clip-path="url(#0clip0)"><g clip-path="url(#0clip15)"></g></g><g clip-path="url(#0clip15)"><text class="ft0_15" y="381.7733" x="169.9067 188.5733 196.8613 207.24 217.6187 225.9067 233.112 243.4906 252.824">Wednesday</text></g><g clip-path="url(#0clip0)"></g><g clip-path="url(#0clip0)"><g clip-path="url(#0clip16)"></g></g><g clip-path="url(#0clip16)"></g><g clip-path="url(#0clip0)"></g><g clip-path="url(#0clip0)"><g clip-path="url(#0clip17)"></g></g><g clip-path="url(#0clip17)"><text class="ft0_15" y="381.7733" x="495.0667 506.2667 515.8427 521.984 532.3627 541.696 552.0746 556.8906 568.0906 576.3787 585.712 595.0453 603.3333 612.8719 628.3466 643.5413 648.6 658.9786">Python Programming</text></g><g clip-path="url(#0clip0)"></g><g clip-path="url(#0clip0)"><g clip-path="url(#0clip18)"></g></g><g clip-path="url(#0clip18)"><text class="ft0_15" y="381.7733" x="717.2267 728.4267 733.4854 744.1254 749.184 755.3253 763.6133 768.3733 780.88 785.9387 794.4507 809.6454 817.9333 828.312 834.4533 839.2319 856.8533 865.1413 871.2266 881.6052 890.9386 901.3173">Finite Element Methods</text></g><g clip-path="url(#0clip0)"><path d="M162.4 366.2 L163.0 366.2 L163.0 365.4 L162.4 365.4 Z" class="df0_3"/><path d="M163.0 365.9 L277.7 365.9 L277.7 365.4 L163.0 365.4 Z" class="df0_3"/><path d="M277.7 366.2 L278.2 366.2 L278.2 365.4 L277.7 365.4 Z" class="df0_3"/><path d="M278.2 365.9 L463.9 365.9 L463.9 365.4 L278.2 365.4 Z" class="df0_3"/><path d="M463.9 366.2 L464.4 366.2 L464.4 365.4 L463.9 365.4 Z" class="df0_3"/><path d="M487.9 366.2 L488.4 366.2 L488.4 365.4 L487.9 365.4 Z" class="df0_3"/><path d="M488.4 365.9 L685.8 365.9 L685.8 365.4 L488.4 365.4 Z" class="df0_3"/><path d="M685.8 366.2 L686.3 366.2 L686.3 365.4 L685.8 365.4 Z" class="df0_3"/><path d="M709.8 366.2 L710.3 366.2 L710.3 365.4 L709.8 365.4 Z" class="df0_3"/><path d="M710.3 365.9 L949.8 365.9 L949.8 365.4 L710.3 365.4 Z" class="df0_3"/><path d="M949.8 366.2 L950.4 366.2 L950.4 365.4 L949.8 365.4 Z" class="df0_3"/><path d="M162.4 387.5 L163.0 387.5 L163.0 366.2 L162.4 366.2 Z" class="df0_3"/><path d="M277.7 387.5 L278.2 387.5 L278.2 366.2 L277.7 366.2 Z" class="df0_3"/><path d="M463.9 387.5 L464.4 387.5 L464.4 366.2 L463.9 366.2 Z" class="df0_3"/><path d="M487.9 387.5 L488.4 387.5 L488.4 366.2 L487.9 366.2 Z" class="df0_3"/><path d="M685.8 387.5 L686.3 387.5 L686.3 366.2 L685.8 366.2 Z" class="df0_3"/><path d="M709.8 387.5 L710.3 387.5 L710.3 366.2 L709.8 366.2 Z" class="df0_3"/><path d="M949.8 387.5 L950.4 387.5 L950.4 366.2 L949.8 366.2 Z" class="df0_3"/></g><g clip-path="url(#0clip0)"><g clip-path="url(#0clip19)"></g></g><g clip-path="url(#0clip19)"><text class="ft0_15" y="403.9066" x="169.9067 182.4134 192.792 203.1707 211.4587 218.72 229.0987 238.432">Thursday</text></g><g clip-path="url(#0clip0)"></g><g clip-path="url(#0clip0)"><g clip-path="url(#0clip20)"></g></g><g clip-path="url(#0clip20)"><text class="ft0_15" y="403.9066" x="285.1334 299.5253 308.8587 319.2373 328.5707 337.904 348.2827 353.0987 368.5733 373.352 385.8587 390.9174 400.2507 405.0294 418.6187 427.9521 434.0934">Hadoop &amp; Big Data</text></g><g clip-path="url(#0clip0)"></g><g clip-path="url(#0clip0)"><g clip-path="url(#0clip21)"></g></g><g clip-path="url(#0clip21)"></g><g clip-path="url(#0clip0)"></g><g clip-path="url(#0clip0)"><g clip-path="url(#0clip22)"></g></g><g clip-path="url(#0clip22)"><text class="ft0_15" y="403.9066" x="717.2267 729.7333 734.792 743.08 751.368 757.4533 765.7413 770.7814 779.0693 788.6267 793.6854 798.4641 816.0854 825.4187 833.7067 844.0854 849.1254 859.5041 867.7921">Electrical Machines</text><text class="ft0_15" y="403.9066" x="875.1733">-</text><text class="ft0_15" y="403.9066" x="881.2933">I</text></g><g clip-path="url(#0clip0)"><path d="M162.4 388.3 L163.0 388.3 L163.0 387.5 L162.4 387.5 Z" class="df0_3"/><path d="M163.0 388.1 L277.7 388.1 L277.7 387.5 L163.0 387.5 Z" class="df0_3"/><path d="M277.7 388.3 L278.2 388.3 L278.2 387.5 L277.7 387.5 Z" class="df0_3"/><path d="M278.2 388.1 L463.9 388.1 L463.9 387.5 L278.2 387.5 Z" class="df0_3"/><path d="M463.9 388.3 L464.4 388.3 L464.4 387.5 L463.9 387.5 Z" class="df0_3"/><path d="M487.9 388.3 L488.4 388.3 L488.4 387.5 L487.9 387.5 Z" class="df0_3"/><path d="M488.4 388.1 L685.8 388.1 L685.8 387.5 L488.4 387.5 Z" class="df0_3"/><path d="M685.8 388.3 L686.3 388.3 L686.3 387.5 L685.8 387.5 Z" class="df0_3"/><path d="M709.8 388.3 L710.3 388.3 L710.3 387.5 L709.8 387.5 Z" class="df0_3"/><path d="M710.3 388.1 L949.8 388.1 L949.8 387.5 L710.3 387.5 Z" class="df0_3"/><path d="M949.8 388.3 L950.4 388.3 L950.4 387.5 L949.8 387.5 Z" class="df0_3"/><path d="M162.4 409.7 L163.0 409.7 L163.0 388.3 L162.4 388.3 Z" class="df0_3"/><path d="M277.7 409.7 L278.2 409.7 L278.2 388.3 L277.7 388.3 Z" class="df0_3"/><path d="M463.9 409.7 L464.4 409.7 L464.4 388.3 L463.9 388.3 Z" class="df0_3"/><path d="M487.9 409.7 L488.4 409.7 L488.4 388.3 L487.9 388.3 Z" class="df0_3"/><path d="M685.8 409.7 L686.3 409.7 L686.3 388.3 L685.8 388.3 Z" class="df0_3"/><path d="M709.8 409.7 L710.3 409.7 L710.3 388.3 L709.8 388.3 Z" class="df0_3"/><path d="M949.8 409.7 L950.4 409.7 L950.4 388.3 L949.8 388.3 Z" class="df0_3"/></g><g clip-path="url(#0clip0)"><g clip-path="url(#0clip23)"></g></g><g clip-path="url(#0clip23)"><text class="ft0_15" y="432.44" x="169.9067 181.1067 189.3947 194.4347 204.8133 214.1467">Friday</text></g><g clip-path="url(#0clip0)"></g><g clip-path="url(#0clip0)"><g clip-path="url(#0clip24)"></g></g><g clip-path="url(#0clip24)"></g><g clip-path="url(#0clip0)"></g><g clip-path="url(#0clip0)"><g clip-path="url(#0clip25)"></g></g><g clip-path="url(#0clip25)"><text class="ft0_15" y="432.44" x="495.0667 506.2667 515.8427 521.984 532.3627 541.696 552.0746 556.8906 568.0906 576.3787 585.712 595.0453 603.3333 612.8719 628.3466 643.5413 648.6 658.9786">Python Programming</text></g><g clip-path="url(#0clip0)"></g><g clip-path="url(#0clip0)"><g clip-path="url(#0clip26)"></g></g><g clip-path="url(#0clip26)"><text class="ft0_15" y="432.44" x="717.2267 728.4267 733.4854 744.1254 749.184 755.3253 763.6133">Finite </text><text class="ft0_15" y="432.44" x="768.4667 780.9733 786.032 794.5441 809.7387 818.0267 828.4054 834.5466 839.3253 856.9467 865.2346 871.3199 881.6986 891.0319 901.4106">Element Methods</text></g><g clip-path="url(#0clip0)"><path d="M162.4 410.5 L163.0 410.5 L163.0 409.7 L162.4 409.7 Z" class="df0_3"/><path d="M163.0 410.2 L277.7 410.2 L277.7 409.7 L163.0 409.7 Z" class="df0_3"/><path d="M277.7 410.5 L278.2 410.5 L278.2 409.7 L277.7 409.7 Z" class="df0_3"/><path d="M278.2 410.2 L463.9 410.2 L463.9 409.7 L278.2 409.7 Z" class="df0_3"/><path d="M463.9 410.5 L464.4 410.5 L464.4 409.7 L463.9 409.7 Z" class="df0_3"/><path d="M487.9 410.5 L488.4 410.5 L488.4 409.7 L487.9 409.7 Z" class="df0_3"/><path d="M488.4 410.2 L685.8 410.2 L685.8 409.7 L488.4 409.7 Z" class="df0_3"/><path d="M685.8 410.5 L686.3 410.5 L686.3 409.7 L685.8 409.7 Z" class="df0_3"/><path d="M709.8 410.5 L710.3 410.5 L710.3 409.7 L709.8 409.7 Z" class="df0_3"/><path d="M710.3 410.2 L949.8 410.2 L949.8 409.7 L710.3 409.7 Z" class="df0_3"/><path d="M949.8 410.5 L950.4 410.5 L950.4 409.7 L949.8 409.7 Z" class="df0_3"/><path d="M162.4 444.3 L163.0 444.3 L163.0 410.5 L162.4 410.5 Z" class="df0_3"/><path d="M277.7 444.3 L278.2 444.3 L278.2 410.5 L277.7 410.5 Z" class="df0_3"/><path d="M463.9 444.3 L464.4 444.3 L464.4 410.5 L463.9 410.5 Z" class="df0_3"/><path d="M487.9 444.3 L488.4 444.3 L488.4 410.5 L487.9 410.5 Z" class="df0_3"/><path d="M685.8 444.3 L686.3 444.3 L686.3 410.5 L685.8 410.5 Z" class="df0_3"/><path d="M709.8 444.3 L710.3 444.3 L710.3 410.5 L709.8 410.5 Z" class="df0_3"/><path d="M949.8 444.3 L950.4 444.3 L950.4 410.5 L949.8 410.5 Z" class="df0_3"/></g><g clip-path="url(#0clip0)"><g clip-path="url(#0clip27)"></g></g><g clip-path="url(#0clip27)"><text class="ft0_15" y="467.1333" x="169.9067 180.2853 189.6187 195.7787 206.1573 214.4453 224.824 234.1573">Saturday</text></g><g clip-path="url(#0clip0)"></g><g clip-path="url(#0clip0)"><g clip-path="url(#0clip28)"></g></g><g clip-path="url(#0clip28)"></g><g clip-path="url(#0clip0)"></g><g clip-path="url(#0clip0)"><g clip-path="url(#0clip29)"></g></g><g clip-path="url(#0clip29)"></g><g clip-path="url(#0clip0)"></g><g clip-path="url(#0clip0)"><g clip-path="url(#0clip30)"></g></g><g clip-path="url(#0clip30)"></g><g clip-path="url(#0clip0)"></g><g clip-path="url(#0clip0)"><g clip-path="url(#0clip31)"></g></g><g clip-path="url(#0clip31)"></g><g clip-path="url(#0clip0)"></g><g clip-path="url(#0clip0)"><g clip-path="url(#0clip32)"></g></g><g clip-path="url(#0clip32)"></g><g clip-path="url(#0clip0)"><path d="M162.4 445.1 L163.0 445.1 L163.0 444.3 L162.4 444.3 Z" class="df0_3"/><path d="M163.0 444.9 L277.7 444.9 L277.7 444.3 L163.0 444.3 Z" class="df0_3"/><path d="M277.7 445.1 L278.2 445.1 L278.2 444.3 L277.7 444.3 Z" class="df0_3"/><path d="M278.2 444.9 L463.9 444.9 L463.9 444.3 L278.2 444.3 Z" class="df0_3"/><path d="M463.9 445.1 L464.4 445.1 L464.4 444.3 L463.9 444.3 Z" class="df0_3"/><path d="M464.4 444.9 L487.9 444.9 L487.9 444.3 L464.4 444.3 Z" class="df0_3"/><path d="M487.9 445.1 L488.4 445.1 L488.4 444.3 L487.9 444.3 Z" class="df0_3"/><path d="M488.4 444.9 L685.8 444.9 L685.8 444.3 L488.4 444.3 Z" class="df0_3"/><path d="M685.8 445.1 L686.3 445.1 L686.3 444.3 L685.8 444.3 Z" class="df0_3"/><path d="M686.3 444.9 L709.8 444.9 L709.8 444.3 L686.3 444.3 Z" class="df0_3"/><path d="M709.8 445.1 L710.3 445.1 L710.3 444.3 L709.8 444.3 Z" class="df0_3"/><path d="M710.3 444.9 L949.8 444.9 L949.8 444.3 L710.3 444.3 Z" class="df0_3"/><path d="M949.8 445.1 L950.4 445.1 L950.4 444.3 L949.8 444.3 Z" class="df0_3"/><path d="M162.4 478.8 L163.0 478.8 L163.0 445.1 L162.4 445.1 Z" class="df0_3"/><path d="M162.4 479.3 L163.0 479.3 L163.0 478.8 L162.4 478.8 Z" class="df0_3"/><path d="M163.0 479.3 L277.7 479.3 L277.7 478.8 L163.0 478.8 Z" class="df0_3"/><path d="M277.7 478.8 L278.2 478.8 L278.2 445.1 L277.7 445.1 Z" class="df0_3"/><path d="M277.7 479.3 L278.2 479.3 L278.2 478.8 L277.7 478.8 Z" class="df0_3"/><path d="M278.2 479.3 L463.9 479.3 L463.9 478.8 L278.2 478.8 Z" class="df0_3"/><path d="M463.9 478.8 L464.4 478.8 L464.4 445.1 L463.9 445.1 Z" class="df0_3"/><path d="M463.9 479.3 L464.4 479.3 L464.4 478.8 L463.9 478.8 Z" class="df0_3"/><path d="M464.4 479.3 L487.9 479.3 L487.9 478.8 L464.4 478.8 Z" class="df0_3"/><path d="M487.9 478.8 L488.4 478.8 L488.4 445.1 L487.9 445.1 Z" class="df0_3"/><path d="M487.9 479.3 L488.4 479.3 L488.4 478.8 L487.9 478.8 Z" class="df0_3"/><path d="M488.4 479.3 L685.8 479.3 L685.8 478.8 L488.4 478.8 Z" class="df0_3"/><path d="M685.8 478.8 L686.3 478.8 L686.3 445.1 L685.8 445.1 Z" class="df0_3"/><path d="M685.8 479.3 L686.3 479.3 L686.3 478.8 L685.8 478.8 Z" class="df0_3"/><path d="M686.3 479.3 L709.8 479.3 L709.8 478.8 L686.3 478.8 Z" class="df0_3"/><path d="M709.8 478.8 L710.3 478.8 L710.3 445.1 L709.8 445.1 Z" class="df0_3"/><path d="M709.8 479.3 L710.3 479.3 L710.3 478.8 L709.8 478.8 Z" class="df0_3"/><path d="M710.3 479.3 L949.8 479.3 L949.8 478.8 L710.3 478.8 Z" class="df0_3"/><path d="M949.8 478.8 L950.4 478.8 L950.4 445.1 L949.8 445.1 Z" class="df0_3"/><path d="M949.8 479.3 L950.4 479.3 L950.4 478.8 L949.8 478.8 Z" class="df0_3"/></g><image transform="matrix(0.5543478,0,0,-0.510561,42,169.4)"  width="184" height="202" xlink:href="image/208242001812091422241891842413423576247193116.jpeg" /><style type="text/css"><![CDATA[@font-face{font-family:'ABCDEECambriaBold';src:url('font/ABCDEE$Cambria,Bold.woff') format('woff');}@font-face{font-family:'Symbol';src:url('font/Symbol.woff') format('woff');}@font-face{font-family:'Times20New20Roman';src:url('font/Times20New20Roman.woff') format('woff');}@font-face{font-family:'Times20New20RomanBold';src:url('font/Times20New20Roman,Bold.woff') format('woff');}@font-face{font-family:'ABCDEECalibri';src:url('font/ABCDEE$Calibri.woff') format('woff');}@font-face{font-family:'ABCDEECalibriBold';src:url('font/ABCDEE$Calibri,Bold.woff') format('woff');} .ft0_1{font-family:ABCDEECambriaBold,Arial;font-size:24px;fill:#000000;} .ft0_2{font-family:Times New Roman,Arial;font-size:24px;fill:#000000;font-weight:bold;} .ft0_3{font-family:Times New Roman,Arial;font-size:21.33333px;fill:#000000;font-weight:bold;} .df0_3{fill:#000000;fill-rule:evenodd;stroke:none;} .ft0_5{font-family:Symbol,Arial;font-size:17.33333px;fill:#000000;} .ft0_6{font-family:Arial,Arial;font-size:17.33333px;fill:#000000;} .ft0_7{font-family:Times New Roman,Arial;font-size:17.33333px;fill:#000000;font-weight:bold;} .ft0_8{font-family:Times New Roman,Arial;font-size:17.33333px;fill:#000000;} .ft0_9{font-family:Times20New20Roman,Arial;font-size:17.33333px;fill:#000000;} .ft0_10{font-family:Times20New20RomanBold,Arial;font-size:17.33333px;fill:#000000;} .ft0_11{font-family:ABCDEECalibri,Arial;font-size:14.66667px;fill:#000000;} .ft0_12{font-family:ABCDEECalibriBold,Arial;font-size:14.66667px;fill:#000000;} .ft0_13{font-family:Times New Roman,Arial;font-size:16px;fill:#000000;} .ft0_14{font-family:Times New Roman,Arial;font-size:18.66667px;fill:#000000;} .ft0_15{font-family:Times New Roman,Arial;font-size:18.66667px;fill:#000000;font-weight:bold;} .ss0{stroke:#000000;}]]></style><defs><clipPath id="0clip0"><path clip-rule="evenodd" d="M150.4 479.6 L962.4 479.6 L962.4 291.2 L150.4 291.2 Z"/></clipPath><clipPath id="0clip1"><path clip-rule="evenodd" d="M163.0 321.1 L277.7 321.1 L277.7 292.0 L163.0 292.0 Z"/></clipPath><clipPath id="0clip2"><path clip-rule="evenodd" d="M278.2 321.1 L463.6 321.1 L463.6 292.0 L278.2 292.0 Z"/></clipPath><clipPath id="0clip3"><path clip-rule="evenodd" d="M464.4 444.3 L487.6 444.3 L487.6 292.0 L464.4 292.0 Z"/></clipPath><clipPath id="0clip4"><path clip-rule="evenodd" d="M488.4 321.1 L685.8 321.1 L685.8 292.0 L488.4 292.0 Z"/></clipPath><clipPath id="0clip5"><path clip-rule="evenodd" d="M686.3 444.3 L709.8 444.3 L709.8 292.0 L686.3 292.0 Z"/></clipPath><clipPath id="0clip6"><path clip-rule="evenodd" d="M710.3 321.1 L949.8 321.1 L949.8 292.0 L710.3 292.0 Z"/></clipPath><clipPath id="0clip7"><path clip-rule="evenodd" d="M163.0 343.2 L277.7 343.2 L277.7 321.6 L163.0 321.6 Z"/></clipPath><clipPath id="0clip8"><path clip-rule="evenodd" d="M278.2 343.2 L463.6 343.2 L463.6 321.6 L278.2 321.6 Z"/></clipPath><clipPath id="0clip9"><path clip-rule="evenodd" d="M488.4 343.2 L685.8 343.2 L685.8 321.6 L488.4 321.6 Z"/></clipPath><clipPath id="0clip10"><path clip-rule="evenodd" d="M710.3 343.2 L949.8 343.2 L949.8 321.6 L710.3 321.6 Z"/></clipPath><clipPath id="0clip11"><path clip-rule="evenodd" d="M163.0 365.4 L277.7 365.4 L277.7 343.8 L163.0 343.8 Z"/></clipPath><clipPath id="0clip12"><path clip-rule="evenodd" d="M278.2 365.4 L463.6 365.4 L463.6 343.8 L278.2 343.8 Z"/></clipPath><clipPath id="0clip13"><path clip-rule="evenodd" d="M488.4 365.4 L685.8 365.4 L685.8 343.8 L488.4 343.8 Z"/></clipPath><clipPath id="0clip14"><path clip-rule="evenodd" d="M710.3 365.4 L949.8 365.4 L949.8 343.8 L710.3 343.8 Z"/></clipPath><clipPath id="0clip15"><path clip-rule="evenodd" d="M163.0 387.5 L277.7 387.5 L277.7 365.9 L163.0 365.9 Z"/></clipPath><clipPath id="0clip16"><path clip-rule="evenodd" d="M278.2 387.5 L463.6 387.5 L463.6 365.9 L278.2 365.9 Z"/></clipPath><clipPath id="0clip17"><path clip-rule="evenodd" d="M488.4 387.5 L685.8 387.5 L685.8 365.9 L488.4 365.9 Z"/></clipPath><clipPath id="0clip18"><path clip-rule="evenodd" d="M710.3 387.5 L949.8 387.5 L949.8 365.9 L710.3 365.9 Z"/></clipPath><clipPath id="0clip19"><path clip-rule="evenodd" d="M163.0 409.7 L277.7 409.7 L277.7 388.1 L163.0 388.1 Z"/></clipPath><clipPath id="0clip20"><path clip-rule="evenodd" d="M278.2 409.7 L463.6 409.7 L463.6 388.1 L278.2 388.1 Z"/></clipPath><clipPath id="0clip21"><path clip-rule="evenodd" d="M488.4 409.7 L685.8 409.7 L685.8 388.1 L488.4 388.1 Z"/></clipPath><clipPath id="0clip22"><path clip-rule="evenodd" d="M710.3 409.7 L949.8 409.7 L949.8 388.1 L710.3 388.1 Z"/></clipPath><clipPath id="0clip23"><path clip-rule="evenodd" d="M163.0 444.3 L277.7 444.3 L277.7 410.2 L163.0 410.2 Z"/></clipPath><clipPath id="0clip24"><path clip-rule="evenodd" d="M278.2 444.3 L463.6 444.3 L463.6 410.2 L278.2 410.2 Z"/></clipPath><clipPath id="0clip25"><path clip-rule="evenodd" d="M488.4 444.3 L685.8 444.3 L685.8 410.2 L488.4 410.2 Z"/></clipPath><clipPath id="0clip26"><path clip-rule="evenodd" d="M710.3 444.3 L949.8 444.3 L949.8 410.2 L710.3 410.2 Z"/></clipPath><clipPath id="0clip27"><path clip-rule="evenodd" d="M163.0 479.0 L277.7 479.0 L277.7 444.9 L163.0 444.9 Z"/></clipPath><clipPath id="0clip28"><path clip-rule="evenodd" d="M278.2 479.0 L463.6 479.0 L463.6 444.9 L278.2 444.9 Z"/></clipPath><clipPath id="0clip29"><path clip-rule="evenodd" d="M464.4 479.0 L487.6 479.0 L487.6 444.9 L464.4 444.9 Z"/></clipPath><clipPath id="0clip30"><path clip-rule="evenodd" d="M488.4 479.0 L685.8 479.0 L685.8 444.9 L488.4 444.9 Z"/></clipPath><clipPath id="0clip31"><path clip-rule="evenodd" d="M686.3 479.0 L709.8 479.0 L709.8 444.9 L686.3 444.9 Z"/></clipPath><clipPath id="0clip32"><path clip-rule="evenodd" d="M710.3 479.0 L949.8 479.0 L949.8 444.9 L710.3 444.9 Z"/></clipPath></defs>
</svg>