<?xml version="1.0" standalone="no"?><!DOCTYPE svg PUBLIC "-//W3C//DTD SVG 1.1//EN" "http://www.w3.org/Graphics/SVG/1.1/DTD/svg11.dtd"><!-- Created with RasterEdge (http://www.rasteredge.com/) -->
<!-- Product Page (http://www.rasteredge.com/demo/online-document-viewer/) -->
<svg width="8.266666in" height="11.69in" version="1.1" xmlns="http://www.w3.org/2000/svg" xmlns:xlink="http://www.w3.org/1999/xlink" >
<g>
<path d="M252.5 471.3 L252.5 471.3 C247.2 466.1 247.2 454.2 252.5 449.0 L263.2 449.0 L263.2 449.0 C268.5 454.2 268.5 466.1 263.2 471.3" class="df0_0"/><path d="M313.3 471.8 L313.3 471.8 C308.2 466.7 308.2 455.3 313.3 450.2 L318.5 450.2 L318.5 450.2 C323.5 455.3 323.5 466.7 318.5 471.8" class="df0_0"/><path d="M269.4 470.4 L269.4 470.4 C265.6 466.6 265.6 458.1 269.4 454.3 L307.6 454.3 L307.6 454.3 C311.4 458.1 311.4 466.6 307.6 470.4" class="df0_0"/><path d="M324.2 470.8 L324.2 470.8 C321.1 467.7 321.1 460.8 324.2 457.7 L373.3 457.7 L373.3 457.7 C376.4 460.8 376.4 467.7 373.3 470.8" class="df0_0"/><path d="M368.0 507.1 L368.0 507.1 C364.4 503.5 364.4 495.3 368.0 491.7 L432.5 491.7 L432.5 491.7 C436.1 495.3 436.1 503.5 432.5 507.1" class="df0_0"/><path d="M476.8 561.0 L476.8 561.0 C473.3 557.6 473.3 549.8 476.8 546.4 L541.6 546.4 L541.6 546.4 C545.0 549.8 545.0 557.6 541.6 561.0" class="df0_0"/><path d="M369.0 524.1 L369.0 524.1 C365.7 520.8 365.7 513.5 369.0 510.2 L430.3 510.2 L430.3 510.2 C433.6 513.5 433.6 520.8 430.3 524.1" class="df0_0"/><path d="M476.1 525.5 L476.1 525.5 C472.7 522.1 472.7 514.3 476.1 510.9 L540.2 510.9 L540.2 510.9 C543.7 514.3 543.7 522.1 540.2 525.5" class="df0_0"/><path d="M367.0 541.5 L367.0 541.5 C363.6 538.1 363.6 530.3 367.0 526.9 L431.8 526.9 L431.8 526.9 C435.3 530.3 435.3 538.1 431.8 541.5" class="df0_0"/><path d="M477.7 542.0 L477.7 542.0 C474.5 538.7 474.5 531.4 477.7 528.1 L539.1 528.1 L539.1 528.1 C542.4 531.4 542.4 538.7 539.1 542.0" class="df0_0"/><path d="M369.0 559.7 L369.0 559.7 C365.5 556.3 365.5 548.6 369.0 545.1 L429.5 545.1 L429.5 545.1 C432.9 548.6 432.9 556.3 429.5 559.7" class="df0_0"/><path d="M623.0 525.8 L623.0 525.8 C619.9 522.8 619.9 515.8 623.0 512.7 L640.0 512.7 L640.0 512.7 C643.1 515.8 643.1 522.8 640.0 525.8" class="df0_0"/><path d="M623.0 561.8 L623.0 561.8 C619.8 558.6 619.8 551.2 623.0 548.0 L640.4 548.0 L640.4 548.0 C643.6 551.2 643.6 558.6 640.4 561.8" class="df0_0"/><image transform="matrix(0.32,0,0,-0.32,0,1122)"  width="2480" height="3507" xlink:href="image/15881922551851141330971421162401531413.jpeg" /><style type="text/css"><![CDATA[ .df0_0{fill:#FFFF00;fill-rule:evenodd;stroke:none;} .ss0{stroke:#000000;}]]></style></g>
</svg>