<?xml version="1.0" standalone="no"?><!DOCTYPE svg PUBLIC "-//W3C//DTD SVG 1.1//EN" "http://www.w3.org/Graphics/SVG/1.1/DTD/svg11.dtd"><!-- Created with RasterEdge (http://www.rasteredge.com/) -->
<!-- Product Page (http://www.rasteredge.com/demo/online-document-viewer/) -->
<svg width="8.266666in" height="11.69in" version="1.1" xmlns="http://www.w3.org/2000/svg" xmlns:xlink="http://www.w3.org/1999/xlink" >
<g>
<path d="M231.7 514.8 L231.7 514.8 C225.7 508.8 225.7 495.4 231.7 489.4 L247.6 489.4 L247.6 489.4 C253.6 495.4 253.6 508.8 247.6 514.8" class="df2_0"/><path d="M452.8 514.5 L452.8 514.5 C446.8 508.5 446.8 495.0 452.8 489.1 L458.9 489.1 L458.9 489.1 C464.9 495.0 464.9 508.5 458.9 514.5" class="df2_0"/><path d="M300.2 512.0 L300.2 512.0 C296.0 507.8 296.0 498.5 300.2 494.3 L335.1 494.3 L335.1 494.3 C339.3 498.5 339.3 507.8 335.1 512.0" class="df2_0"/><path d="M254.7 513.2 L254.7 513.2 C250.7 509.2 250.7 500.2 254.7 496.2 L294.6 496.2 L294.6 496.2 C298.6 500.2 298.6 509.2 294.6 513.2" class="df2_0"/><path d="M340.8 513.2 L340.8 513.2 C336.8 509.2 336.8 500.2 340.8 496.2 L446.5 496.2 L446.5 496.2 C450.5 500.2 450.5 509.2 446.5 513.2" class="df2_0"/><path d="M465.6 512.7 L465.6 512.7 C462.1 509.3 462.1 501.5 465.6 498.1 L519.8 498.1 L519.8 498.1 C523.2 501.5 523.2 509.3 519.8 512.7" class="df2_0"/><path d="M364.2 570.9 L364.2 570.9 C360.3 567.1 360.3 558.6 364.2 554.7 L435.7 554.7 L435.7 554.7 C439.6 558.6 439.6 567.1 435.7 570.9" class="df2_0"/><path d="M488.0 571.1 L488.0 571.1 C484.0 567.1 484.0 558.1 488.0 554.1 L541.8 554.1 L541.8 554.1 C545.8 558.1 545.8 567.1 541.8 571.1" class="df2_0"/><path d="M552.0 570.8 L552.0 570.8 C548.7 567.5 548.7 560.2 552.0 556.9 L558.7 556.9 L558.7 556.9 C561.9 560.2 561.9 567.5 558.7 570.8" class="df2_0"/><path d="M97.6 589.6 L97.6 589.6 C93.6 585.6 93.6 576.7 97.6 572.7 L128.8 573.3 L128.8 573.3 C132.6 577.1 132.6 585.7 128.8 589.5" class="df2_0"/><path d="M133.8 589.2 L133.8 589.2 C130.3 585.7 130.3 578.0 133.8 574.5 L209.8 574.5 L209.8 574.5 C213.2 578.0 213.2 585.7 209.8 589.2" class="df2_0"/><path d="M362.9 609.3 L362.9 609.3 C359.1 605.5 359.1 597.0 362.9 593.1 L434.5 593.1 L434.5 593.1 C438.3 597.0 438.3 605.5 434.5 609.3" class="df2_0"/><path d="M551.7 600.7 L551.7 600.7 C548.2 597.3 548.2 589.5 551.7 586.1 L558.7 586.1 L558.7 586.1 C562.2 589.5 562.2 597.3 558.7 600.7" class="df2_0"/><path d="M488.0 609.3 L488.0 609.3 C484.2 605.5 484.2 597.0 488.0 593.1 L544.0 593.1 L544.0 593.1 C547.8 597.0 547.8 605.5 544.0 609.3" class="df2_0"/><path d="M364.2 589.8 L364.2 589.8 C360.7 586.4 360.7 578.6 364.2 575.2 L434.6 575.2 L434.6 575.2 C438.0 578.6 438.0 586.4 434.6 589.8" class="df2_0"/><path d="M651.2 591.2 L651.2 591.2 C645.7 585.7 645.7 573.5 651.2 568.0 L670.1 568.0 L670.1 568.0 C675.5 573.5 675.5 585.7 670.1 591.2" class="df2_0"/><path d="M488.0 590.3 L488.0 590.3 C484.0 586.3 484.0 577.3 488.0 573.3 L541.8 573.3 L541.8 573.3 C545.8 577.3 545.8 586.3 541.8 590.3" class="df2_0"/><path d="M552.0 590.0 L552.0 590.0 C548.7 586.7 548.7 579.4 552.0 576.1 L558.7 576.1 L558.7 576.1 C561.9 579.4 561.9 586.7 558.7 590.0" class="df2_0"/><path d="M551.7 600.7 L551.7 600.7 C548.2 597.3 548.2 589.5 551.7 586.1 L558.7 586.1 L558.7 586.1 C562.2 589.5 562.2 597.3 558.7 600.7" class="df2_0"/><path d="M97.6 609.9 L97.6 609.9 C93.1 605.4 93.1 595.2 97.6 590.7 L105.9 590.7 L105.9 590.7 C110.5 595.2 110.5 605.4 105.9 609.9" class="df2_0"/><path d="M111.4 609.2 L111.4 609.2 C107.7 605.5 107.7 597.4 111.4 593.8 L216.6 593.4 L216.6 593.4 C220.2 597.1 220.2 605.2 216.6 608.9" class="df2_0"/><path d="M362.9 609.3 L362.9 609.3 C359.1 605.5 359.1 597.0 362.9 593.1 L434.5 593.1 L434.5 593.1 C438.3 597.0 438.3 605.5 434.5 609.3" class="df2_0"/><path d="M488.0 609.3 L488.0 609.3 C484.2 605.5 484.2 597.0 488.0 593.1 L544.0 593.1 L544.0 593.1 C547.8 597.0 547.8 605.5 544.0 609.3" class="df2_0"/><image transform="matrix(0.32,0,0,-0.32,0,1122)"  width="2480" height="3507" xlink:href="image/24517612311311911642331081412552915875141242.jpeg" /><style type="text/css"><![CDATA[ .df2_0{fill:#FFFF00;fill-rule:evenodd;stroke:none;} .ss0{stroke:#000000;}]]></style></g>
</svg>