<?xml version="1.0" standalone="no"?><!DOCTYPE svg PUBLIC "-//W3C//DTD SVG 1.1//EN" "http://www.w3.org/Graphics/SVG/1.1/DTD/svg11.dtd"><!-- Created with RasterEdge (http://www.rasteredge.com/) -->
<!-- Product Page (http://www.rasteredge.com/demo/online-document-viewer/) -->
<svg width="8.266666in" height="11.69333in" version="1.1" xmlns="http://www.w3.org/2000/svg" xmlns:xlink="http://www.w3.org/1999/xlink" >
<text class="ft0_1" y="57.15509" x="359.1733 377.0837 391.5234 405.8889 419.2892 426.72 432.8 444.3072 453.2717 458.6912 468.9363 475.024">MOOCs-Points</text><path d="M359.2 62.5 L482.8 62.5 L482.8 60.6 L359.2 60.6 Z" class="df0_1"/><text class="ft0_3" y="80.10669" x="120.032"></text><text class="ft0_5" y="78.92908" x="144.0667 154.3118 159.1105 163.5707 169.65 174.7579 182.7361 187.8439 195.2039 201.6071 208.6433 213.1035 216.9454 222.0532 229.4132 233.5643 240.9243 247.9604 255.9387 260.3989 267.7589 273.8382 281.8165 287.5425 294.9025 302.6011 306.7521 312.8315 319.2347 323.3857 329.1118 337.1342 343.8465 351.2065 358.5665 366.8686 372.9479 380.3079 387.977 394.0564 399.1642 403.3153 409.0414 412.898 420.8763 425.0273 429.1783 440.3802 446.7834 454.7617 458.9128 465.6251 472.9851 477.1361 483.2155 491.5175 502.0718 506.2228 510.3739 514.2158 522.1941 529.8632 536.2664 544.2446 551.6046 556.7125 562.7919 570.1519 576.8641 581.972 588.3752 595.4114 603.3896 610.1019 617.4619 624.8219 632.8002 640.1602 647.5201 651.6712 659.6495 663.8005 670.8367 678.8149 683.2751 690.6351 697.0383">After Identifying the subjects and experts, time table will be prepared and put in the </text><text class="ft0_5" y="98.44898" x="144.0667 154.6209 161.9809 166.132 173.4919 179.5713 184.6791 190.4052 194.2766 198.4276 205.4638 209.291 223.3633 229.4427 236.8027 242.8673 246.7092 251.1694 257.2487 261.0759 267.7883 275.1483 282.1844 286.0116 292.4148 296.2567 301.3646 307.7678 315.1278 318.9697 325.682 330.1422 336.5454 343.5815 347.4088 351.5598 358.5959 362.4232 369.1355 372.9774 376.8193 380.6465 384.7976 392.1576 398.2369 402.0641 412.2945 419.3307 423.4817 427.6328 434.0359 441.3959 447.4753 453.92 458.7188 462.546 466.697 473.7332 478.841 485.8772 493.5463 500.9063 507.9424 511.7696 519.1296 524.2375 531.2736 538.9427 545.0221 550.1299 553.9572 560.3604 567.3965 574.1088 581.4688 588.8288 595.232 599.0739 604.0667 608.2267">University Website and circulated to all the Colleges( through proper channel). </text><text class="ft0_3" y="120.1067" x="120.032"></text><text class="ft0_5" y="118.9291" x="144.0667 153.3256 160.3617 166.4411">The </text><text class="ft0_6" y="118.9291" x="170.3067 180.2132 187.2494 192.3572 198.7604 205.4728 213.4657 220.8257 224.6676 228.8187 232.6459 240.948 248.9409 256.9339 262.0417 268.4449 274.8481 279.6468 283.474 293.3806 300.7406 308.7335 315.1367 321.5399 326.3386">External/ Subject Experts</text><text class="ft0_5" y="118.9291" x="336.4533 343.8133 350.2165 356.6197 363.6559 367.8069 375.1669 382.203 386.3541 390.1813 396.5845 403.9445 415.1464 421.2257 425.0529 429.5131 436.5493 440.3765 444.5275 451.8875 457.9669 462.1179 472.6721 480.0321 484.1832 491.5432 497.6225 502.7303 508.4564 512.3278 516.4789 523.515 527.3422 532.4501 539.4862 544.5941 548.4213 555.7813 562.1845 566.3356 570.1775 577.5375 583.6168 589.0485 593.1995 600.5595 607.5956 611.4229 615.5739 622.9339 629.0132 632.8405 639.5528 646.9128 653.9489 658.4091 664.8123 671.8484 675.9995 679.8267">need not come to the University for delivering the content. </text><text class="ft0_7" y="139.6266" x="168.0667">o</text><text class="ft0_5" y="138.449" x="192.0667 201.3255 208.3617 214.7649 221.8011 230.1031 236.5063 243.5278 250.564 259.1899 266.5499 272.9531 276.795 280.946 288.3061 294.3854 299.4933 307.7953 312.2555 319.6155 325.6949 333.9969 340.7092 344.5511 351.2635 356.9896 362.7745 371.0766 375.8753 380.9832 388.3432 399.2213 407.5233 414.2357 421.5956 428.9556 439.5099 446.8698 452.9492 458.3809 464.4602 468.2874 476.5895 480.4315 485.2302 493.5323 497.9924 505.3524 511.7556 519.1156 527.4177 534.4539 541.1661 548.5261 554.6055 563.2314 567.0734 573.7856 581.1456 585.2967 592.3328 599.6928 603.8439 612.4698 619.8298 625.9091 631.9738 639.0099 643.1609 650.197 657.557 665.8591 670.967 681.5212 685.3632 689.8232 697.1833">They can deliver the class from anywhere, if they have laptop/ desktop (with </text><text class="ft0_5" y="157.6491" x="192.0667 206.139 212.2184 219.5784 225.9816 233.003 243.8811 247.7083 254.4206 261.4568 268.493 272.3201 285.4062 289.5867 296.9467 303.3499 308.1486 311.9758 318.6881 326.0481 333.0843 336.9115 341.0625 348.0987 352.5588 358.6382 363.7461 371.106 377.1854 381.3364 385.1637 395.7179 399.5598 404.02 411.0561 414.8834 422.2433 429.6033 436.9633 443.9995 447.8267 455.1866 461.899 469.259 476.619 486.8641 491.0151 498.0512 502.5114 509.5475 513.7867">Webcam and Mike) and internet with good bandwidth. </text><text class="ft0_7" y="178.3866" x="168.0667">o</text><text class="ft0_5" y="177.209" x="192.0667 205.1528 215.7806 226.3054 236.212 241.938 245.7947 249.9457 256.0251 262.7374 273.6155 277.7665 288.0117 292.1627 296.3138 300.1557 303.9828 311.3429 316.4507 323.8107 330.8469 334.9979 342.3579 348.4373 352.2645 356.7247 364.0847 370.4879 381.3659 385.5169 392.8769 399.2801 405.9924 412.0718 417.7979 423.5828 430.2951 435.403 442.4391 446.2664 450.4174 454.5685 461.9284 468.9646 474.6906 478.5473 485.2596 492.2957 499.3319 503.1591 509.2237 516.5837 521.3824 525.5335 535.7786 542.491 547.5988 553.6782 559.4042 563.2609 568.3688 574.772 581.8081 589.4772 593.3191 600.0314 605.6667 609.5086 616.5447 620.3719 624.523 631.5591 635.7102 643.0702 649.4734 653.6244 657.4663 664.8263 670.9056 676.0135 679.8408 683.9918 691.3518 697.755">MOOCs team will provide them necessary links and softwares regularly to deliver the </text><text class="ft0_5" y="196.729" x="192.0667 198.4699 205.506 212.8661 217.9739 224.0385 230.1179 233.9451 240.3483 247.7083 254.7444 259.2046 265.6078 272.644 276.795 280.7333">course content. </text><text class="ft0_7" y="217.1067" x="168.0667">o</text><text class="ft0_5" y="215.9291" x="192.0667 200.3688 207.4049 212.5128 216.34 222.4193 229.7793 235.8587 241.2904 248.3265 252.1537 265.2398 275.8677 286.3925 296.299 302.0251 305.8817 311.9611 319.3211 326.9902 333.0696 338.1774 342.3285 346.1557 353.5157 359.2418 365.3506 370.4584 374.2856 381.3218 388.0341 399.236 405.3154 409.1426 415.8549 423.2149 430.251 434.0782 441.4382 448.1506 453.8766 459.6616 469.9067 476.9428 482.0507 489.0869 493.2379 503.7921 507.634 511.7851 515.9362 519.7634 527.1234 533.2027 537.0299 543.4331 548.541 554.6204 561.3326 565.7928 571.8722 578.9083 582.7355">For every MOOCs expert user name and password will be created. </text><text class="ft0_8" y="236.6266" x="216.0934"></text><text class="ft0_5" y="235.449" x="240.0934 249.9999 256.4031 263.4393 270.7993 274.6412 280.0729 286.4761 293.5123 297.3394 301.7996 307.879 314.5913 321.9513 328.9875 333.1385 339.5417 346.254 350.0959 353.9232 359.6493 367.0092 374.3692 381.7292 388.8095 393.9174 398.0685 401.8957 412.1408 416.2918 420.1338 423.9757 427.8029 435.472 441.5514 445.7024 452.7385 456.8896 464.2496 470.6528 477.6889 481.5161 489.1852 496.2214 500.0486 504.1996 511.5596 517.639 521.4662 531.3728 538.7328 545.7689 550.8768 558.2368 562.3878 569.424 576.1362 580.2873 587.3234 592.4313 596.2585 602.9708 610.007 617.0431 620.8704 628.2303 632.0723 637.7983 641.655 645.806 651.8854 658.9068 669.7849 674.4933">Required technical support will be given by the Coordinator and his team. </text><text class="ft0_8" y="255.8267" x="216.0934"></text><text class="ft0_5" y="254.6491" x="240.0934 244.8921 252.2521 256.094 260.245 264.0869 270.7993 274.9503 279.1013 286.1375 290.2886 297.6486 305.0086 308.8505 313.0015 320.3615 326.7647 330.5919 334.743 339.8508 346.5631 350.405 357.4412 361.5922 368.9522 375.9883 380.1394 390.6936 394.8447 398.9957 402.8376 406.6649 414.334 420.4133 424.5643 431.9243 436.0754 443.4354 449.8386 456.8747 460.7019 465.8098 472.8459 477.9538 481.781 485.9321 493.2921 499.6953 503.8463 509.9256 517.2856 521.7458 527.8251 532.933 539.9691 546.6815 550.5234 554.6744 561.3867 568.7467 576.1067 582.186 587.2939 591.4449 595.2722 601.9845 609.0206 616.0568 620.2078 627.5678 633.971 645.1729 652.5329 656.684 663.0872 666.9291 673.6414 679.3674 685.4615 691.5409 697.267">Initially online training will be given for the external expert and demo classes </text><text class="ft0_5" y="274.1691" x="240.0934 250.6476 254.7986 258.6534 262.4953 266.3224 273.9916 280.071 283.8981 290.6105 297.9705 305.3305 312.3666 319.7267 326.1299 330.59 336.9932 344.0294 347.8566 352.6553 356.4825 363.8425 369.9219 375.0298 382.0659 387.4976 393.5769 397.4041 401.5552 408.9152 414.9945 418.8217 425.5341 431.9373 436.0883 443.4483 450.1606 454.0025 457.8298 464.233 471.2691 478.6291 483.7369 489.463 495.5718 499.399 505.1251 509.3056 516.0179 521.1259 525.2769 531.0029 535.8667">will be conducted ( before the actual course starts) </text><text class="ft0_7" y="294.8667" x="168.0667">o</text><text class="ft0_5" y="293.6891" x="192.0667 201.0606 207.7288 214.132 221.1681 225.9521 231.6782 239.0382 246.3982 250.5787 256.6581 263.0613 267.2123 272.3201 278.3995 285.7595 293.4286 299.508 304.6158 308.7669 313.5509 319.2769 326.637 333.7173 341.3864 345.2283 352.2645 357.0485 361.1995 367.9118 375.2718 381.3512">Each subject expert should take </text><text class="ft0_6" y="293.6891" x="386.4 393.76 398.8679 406.5517 414.2208 422.2137 428.6169 433.401 440.761 448.1209 453.2288 465.0637 469.2147 477.5168 485.5098 490.3085 496.7117 502.4378 507.2512 513.9636 518.1146 525.1508 530.8768">1 hour 50 minutes class</text><text class="ft0_5" y="293.6891" x="536.8267 540.6539 545.4379 554.6968 561.733 567.8123 573.244 579.3234 584.4312 594.6763 598.8274 602.9784 606.8203 611.6044 619.2734 625.3528 630.1368 634.2878 644.8421 651.8782 656.6622 663.3746 667.2165 673.9288 679.6549 685.749 691.8283 697.5544">. There will be two classes </text><text class="ft0_5" y="312.9157" x="192.0667 199.4267 205.506 210.6139 214.4411 224.9953 231.3985 237.8017 244.8379 249.0533">per week. </text><text class="ft0_7" y="333.6133" x="168.0667">o</text><text class="ft0_5" y="332.4357" x="192.0667 205.1528 211.8945 216.0456 222.1249 227.2328 231.0747 237.787 241.6289 245.4561 249.298 253.4491 260.8091 266.8884 270.7156 277.4279 284.4641 291.8241 296.9319 302.658 308.7668 312.9179 320.2779 327.3141 331.7742 337.8536 343.5797 347.4363 351.2635 357.5733 362.3734 370.0424 377.4024 384.7624 391.7986 397.5246 401.3813 405.2085 413.5106 421.5035 430.4975 436.2236 440.0508 446.1301 450.2812 456.6844 460.5116 464.3388 470.0649 477.1452 484.1814 491.5414 495.6924 502.7285 506.5558 514.2249 520.3042 524.1315 531.4915 536.5993 543.9593 551.3193 555.1612 562.5212 568.9244 575.9605 579.7877 587.4568 594.493 598.3202 602.4713 609.8312 615.9106 620.0616 626.141 633.501 641.17 647.2494 652.3573 656.8934">Material like course notes, e-books, PPTs etc. should be provided by the expert </text><text class="ft0_8" y="350.5733" x="216.0934"></text><text class="ft0_5" y="349.3957" x="240.0934 250.3385 258.0076 262.1587 269.1948 275.9072 283.2672 287.4182 294.4544 301.4905 305.3177 313.6198 321.9219 331.1808 336.6272 340.4543 347.1667 354.2028 361.239 365.0662 378.1523 384.894 389.0451 395.1245 400.2323 404.0742 410.7866 414.6285 418.4557 428.7008 432.8519 437.0029 440.8448 444.96 452.32 458.3994 462.5504 469.9104 477.2704 484.6303 490.7097 494.5369 501.8969 508.933 512.7603 525.8464 536.4742 546.999 556.9056 562.6317 566.4883 570.6394 576.7188 583.7402 595.1067">Uploading PPTs and Material will be done by MOOCs team </text><text class="ft0_7" y="367.2133" x="168.0667">o</text><text class="ft0_5" y="366.0356" x="192.0667 202.3118 209.0241 215.7365 222.7726 227.8805 235.2405 239.3915 246.4277 253.4639 258.2479 262.708 270.068 276.1474 280.9314 285.0824 289.2335 300.4354 306.8386 310.9896 317.702 325.062 329.213 335.2924 340.4002 347.4363 354.1487 361.1848 365.9688 370.429 377.4651 382.2491 389.2852 395.9976 403.0337 407.8177 413.5438 420.9038 428.2638 435.9623 442.9984 448.1063 452.2573 457.0414 467.2865 471.4375 475.5886 479.4305 484.2145 491.5745 497.6538 502.7617 510.1217 514.2727 521.6327 528.0359 535.072 539.8561 547.5251 554.5613 559.3453 563.4963 570.8563 576.9357 581.7197 588.432 595.792 602.8281 607.936 615.296 619.447 626.4832 633.1955 637.3466 644.3827 649.4905 654.2745 660.9869 668.023 675.0591 680.167 687.527 691.3689 697.095">According the timetable day to day support will be given by the coordinator and his </text><text class="ft0_5" y="385.5557" x="192.0667 196.2177 202.2971 209.3185 220.1966 224.4133">team. </text><text class="ft0_8" y="406.2533" x="216.0934"></text><text class="ft0_5" y="405.0757" x="240.0934 248.3954 255.4316 260.5394 266.9426 271.0937 278.4537 285.4899 290.2739 298.5759 305.9359 313.296 317.447 323.5264 329.9296 334.0806 339.1884 345.2678 352.6277 360.2968 366.3762 371.4841 375.6351 381.3612 386.4985 397.3765 404.0888 411.125 415.909 423.5781 429.9813 435.0892 442.1253 446.2763 453.6363 460.0395 467.0757 471.8597 479.2197 484.3275 488.4786 495.5147 500.6226 504.4645 508.9247 515.9608 521.0687 525.2197 532.2559 537.0399 542.1477 545.9896 553.3496 557.5007 564.8607 571.8968 576.6808 582.7454 586.5873 593.6235 597.7745 603.5006 608.6379 612.7889 619.8251 624.6091 628.7601 636.1201 642.5233 647.3073 660.3934 671.0212 681.5461 691.4526 697.1787">Foreign Subject experts may be given priority in fixing slots in the MOOCs </text><text class="ft0_5" y="424.3157" x="240.0934 244.2444 248.3954 259.5974 265.6767 269.5039 273.655 280.3673 287.7273 291.8783 297.9577 301.8933">time table. </text><text class="ft0_8" y="445.0133" x="216.0934"></text><text class="ft0_5" y="443.8357" x="240.0934 250.3385 257.0508 263.7631 270.7993 275.9071 283.2672 287.4182 294.4543 301.8144 309.4835 313.6345 320.6707 328.3398 332.8 340.16 346.5632 354.2323 367.3184 377.9462 388.471 398.3776 404.1037 411.8022 415.9533 420.1043 431.3062 437.3856 441.5366 448.249 455.6089 459.76 466.1632 473.8323 477.9834 485.3434 491.7466 499.4157 506.128 509.9699 516.6823 522.4083 528.1933 535.8624 540.0135 544.1646 555.3665 561.4458 565.9059 572.6183 579.9783 583.8202 589.8995 597.8778 602.9857 610.0218 615.1296 623.2667 629.3461 636.0583 642.7707 649.8068 657.476 664.8359 669.9438 676.6561 683.6923 690.4047 697.7646">According to the MOOCs timetable the class timetable for each branch </text><text class="ft0_5" y="463.0357" x="240.0934 245.8194 253.1794 260.2598 267.6198 271.7708 278.807 282.6342 290.3033 296.3827 300.2098 307.5699 312.6777 318.757 326.1171 332.8294 337.9372 344.3404 351.3765 355.3333">should be prepared. </text><text class="ft0_8" y="483.7333" x="216.0934"></text><text class="ft0_5" y="482.5557" x="240.0934 253.1794 263.8073 274.3321 284.2386 289.9647 294.1452 298.2962 302.4473 313.6492 319.7286 323.8796 330.5919 337.9519 342.103 348.5062 352.6572 356.4991 362.5637 366.7148 371.8226 378.8588 383.9666 388.1177 394.83 398.6719 402.823 406.974 411.4342 418.7942 424.8735 429.3337 436.046 443.0821 450.1183 455.8443 460.3486 464.1906 468.3416 476.0107 482.4139 489.45 493.6011 497.7521 504.4644 511.8244 518.8606 523.0116 529.7239 534.5227 539.6306 543.7816 547.9326 551.7745 558.4869 562.6379 569.0411 576.4011 580.5521 587.2645 594.6245 598.4664 602.6174 609.0206 616.3806 622.7838 628.5099 632.3665 636.5176 640.3595 644.8196 649.2798 660.1578 667.1793 674.2155 678.6756 686.0356 693.0718 697.2228">MOOCs timetable is for all the constituent and affiliated colleges, it may not </text><text class="ft0_5" y="502.0757" x="240.0934 247.4534 253.5327 257.3599 264.0722 271.1084 277.8207 285.1807 292.5407 298.9439 306.0533 310.2133">be changed. </text><text class="ft0_7" y="522.4533" x="168.0667">o</text><text class="ft0_5" y="521.2757" x="192.0667 205.1528 215.7806 226.3054 236.212 241.938 245.7947 249.9457 256.0251 262.7374 273.6155 277.4427 287.9969 292.1479 296.299 300.1409 303.9681 310.3713 317.7313 324.7675 329.8753 337.2353 341.3864 348.4225 355.1348 359.2859 365.3652 369.1924 373.6526 381.0126 387.0919 390.9192 396.027 403.387 410.4232 417.7831 421.9342 429.2942 436.3303 440.1575 447.5175 452.3163 456.1435 462.8558 466.6977 470.5396 474.3669 487.453 498.0808 508.6057 518.5122 524.2383 528.095 534.4982 540.2242 544.0809 551.4409 557.5202 562.6281 566.4553 570.6063 577.6425 583.7218 587.5491 591.7001 595.8511 607.053 613.4562 617.6073 624.3196 631.6796 635.8306 642.8134">MOOCs team will coordinate the running of all MOOCs as per the timetable </text><text class="ft0_8" y="542" x="216.0934"></text><text class="ft0_5" y="540.8224" x="240.0934 248.3954 255.4316 259.5826 263.4246 270.1369 277.4969 284.8569 290.583 294.4396 300.8428 307.879 315.239 321.3184 326.4262 333.1385 340.4985 346.5779 350.7289 361.2831 365.4342 369.2761 373.118 376.9453 384.6143 390.6937 394.8447 406.0466 413.4066 420.7666 424.6085 428.7596 435.7957 441.2274 447.6306 455.2">Syllabus coverage will be monitored </text><text class="ft0_8" y="561.2" x="216.0934"></text><text class="ft0_5" y="560.0224" x="240.0934 249.0873 256.4473 260.5394 265.3676 272.0799 276.231 281.957 285.8284 292.8646 297.0156 302.7417 307.246 317.8002 321.9513 325.7932 329.9442 334.0953 341.7644 347.8437 351.9948 359.3547 364.4626 371.8226 379.36 383.511 390.871 397.2742 404.3104 408.7705 412.9216 419.9577 424.1087 428.5689 435.9289 442.3321 446.4831 450.6342 454.7852 465.9871 472.3903 476.5414 480.6924 487.4047 494.7647 498.9157 504.9951 508.8223 513.2825 517.1244 522.2323 526.3833 533.0956 540.4556 547.4918 551.6428 557.3689 565.0674 572.4274 576.5784 582.6578 589.061 593.212 597.6722 604.0754 611.4354 619.1045 625.1838 630.2917 634.4427 638.5938 645.9537 652.3569 658.7601 666.1201 671.8462 676.0267 682.739 690.0991 697.4591">Extra slots will be provided in the time table, if any subject expert needs any </text><text class="ft0_5" y="579.5424" x="240.0934 246.1727 253.5327 257.6838 262.7916 269.5039 273.3311 279.7343 283.5762 290.2885 296.0146 301.7996 307.8789 313.605 317.4616 321.6127 328.6489 332.476 338.8792 346.2392 353.5992 359.6786 364.7864 368.6136 372.7647 380.1247 386.204 390.0313 395.7573 403.1173 407.2978 411.1397 417.8521 425.212 432.572 438.56">extra classes to cover the syllabus </text><text class="ft0_8" y="600.24" x="216.0934"></text><text class="ft0_5" y="599.0624" x="240.0934 244.8921 249.6908 254.1509 260.2303 267.5903 275.2594 281.3388 286.4466 290.5977 294.7487 301.1519 307.8642 314.9004 322.2604 329.2966 333.4476 337.5986 341.7497 348.462 355.822 361.9013 366.0524 372.7647 376.6066 383.3189 389.045 394.83 398.981 406.341 413.3771 417.5282 424.2405 428.3915 435.7515 442.4638 447.2626 451.4136 455.2556 461.6588 469.0187 472.8607 479.573 484.6808 488.8319 495.868 502.5803 509.6165 513.4437 517.5947 524.6309 532.3 538.3793 542.5304 546.9905 554.0267 558.1777 564.2423 571.6023 582.8042 589.2074 593.3585 598.4663 604.5457 611.258 616.9841 624.3441 631.4244 637.1505 641.0071 645.1581 649.3092 656.6692 662.7485 666.8995 672.6256 679.6912 690.8932 697.2963">If expert cannot take class on a particular day, due to some reasons, the same </text><text class="ft0_5" y="618.2624" x="240.0934 246.4966 250.3385 257.0508 262.7769 268.5618 277.8207 288.6988 295.4111 302.7711 311.7209 319.39 325.7932 334.7429 339.8508 345.9301 351.6562 358.3979 365.7579 372.1611 379.1973 386.8664 391.0174 397.4206 404.7806 413.7304 418.1906 425.2267 434.1765 440.8888 448.2488 455.2849 459.7451 467.1051 473.1844 478.2923 487.5512 494.5873 501.2997 507.7029 514.4152 521.4513 525.6024 534.5521 540.2782 544.4587 551.4949 555.955 565.2139 569.365 576.4011 585.3509 589.811 597.171 603.5742 612.524 616.675 620.8261 632.028 638.4312 642.5823 649.2946 656.6545 660.8056 666.8849 675.8347 682.8562 690.2162 697.2524">class may be rescheduled to another vacant slot in the timetable and </text><text class="ft0_5" y="637.7824" x="240.0934 244.2444 251.2806 255.4316 259.5826 270.4608 277.1731 281.6332 285.4752 292.8351 299.8713 304.0224 314.5766 318.4185 322.5696 326.4115 330.3734 338.0425 344.1218 347.949 355.309 359.4601 366.82 373.2232 380.2594 384.0866 388.2376 395.2738 399.101 405.8133 409.6552 413.4972 417.3244 421.7845 429.1445 435.2239 439.0511 445.7634 452.7996 456.9506 461.1017 467.5049 474.8648 481.268 486.9941 491.0667">intimation will be given to all the colleges. </text><text class="ft0_3" y="659.1466" x="264.0934"></text><text class="ft0_5" y="657.9691" x="288.0934 297.6908 305.0508 309.2018 313.029 319.1084 326.4684 334.1375 340.2169 345.3248 349.4758 355.2019 358.7494 366.1094 372.5126 378.9158 386.2758 389.7939 394.254 401.614 405.1321 409.2832 416.3193 420.7795 424.9305 435.8086 442.5209 446.981 453.0604 456.5785 461.0387 468.3987 474.8018 478.3199 484.046 490.7878 501.9897 508.3929 511.911 518.6234 522.7744 526.6016 530.7527 536.832 543.5443 549.2704 553.4509 556.969 564.329 571.689 578.0922 581.9194 588.9556 595.6678 602.704 606.2221 613.8912 620.2944 625.4023 632.4384 637.5463 643.6256 647.4529 651.2801 655.4312 662.9734 666.8134 673.8495 678.9573 686.3173 692.3967 697.8284">But experts need to intimate the same at least one day before, in order </text><text class="ft0_5" y="677.4891" x="288.0934 292.2444 299.2806 303.1733 308.8994 315.3321 322.6921 329.7282 333.5554 337.7065 345.0665 351.1458 355.2968 359.4479 366.484 371.5919 378.628 384.0597 394.9377 401.6501 405.8011 409.643 417.003 424.0392 427.8664 432.0174 439.0536 442.8808 449.5931 453.7441 457.5861 461.4133 465.5643 472.9243 479.0037 482.8309 489.5432 496.9032 500.7451 504.8962 511.2994 518.6594 525.0626 530.7886 534.9067">to send the information to all the colleges. </text><text class="ft0_7" y="698.1866" x="168.0667">o</text><text class="ft0_5" y="697.0091" x="192.0667 205.1528 215.7806 226.3054 236.212 241.938 250.9172 255.0683 261.1476 267.86 278.738 287.9969 298.5511 302.7022 306.8532 310.6952 319.6449 323.796 330.8321 335.2923 341.3716 346.4795 353.1918 359.595 363.7461 372.6959 383.2501 387.092 391.243 398.2792 407.229 413.9413 418.0923 421.9343 430.884 435.3442 442.7042 448.7835 457.7333 463.4594 470.8194 478.1794 482.3599 488.7631 495.1663 499.3173 508.5762 514.9794 522.3394 529.6994 535.7787 540.8866 545.0377 550.7637 559.7429 566.4553 573.4914 580.5275 589.7864 597.1464 600.9883 605.7871 610.895 616.9743 622.406 628.8092 635.8453 639.9963 648.9462 655.6584 663.0184 667.1695 671.3206 677.7238 685.0837 691.1631 697.2277">MOOCs team will interact with all the subject experts and different colleges </text><text class="ft0_5" y="716.5291" x="192.0667 197.1745 203.5777 210.6139 217.9739 221.8158 228.5281 233.636 237.4779 244.514 248.7333">regularly. </text><text class="ft0_7" y="736.9066" x="168.0667">o</text><text class="ft0_5" y="735.7291" x="192.0667 201.3255 208.3617 214.4411 219.8728 225.9521 232.0168 242.571 246.722 250.564 254.715 260.4558 268.1249 274.2043 280.2689 287.6289 294.989 298.8309 302.9819 310.3419 316.7451 322.6934 327.1535 333.2329 339.9452 347.3052 354.6652 358.5071 364.9103 371.6226 375.4645 381.2053 386.9314 394.2914 401.6514 409.3499 416.386 421.4939 425.645 431.3857 436.1845 443.2206 448.3285 454.0693 460.7816 464.9327 468.7746 474.5154 478.6664 486.0264 492.4296 498.1704 504.8828 512.2427 516.3938 520.5448 526.948 534.308 540.3873 546.1134 551.8984 556.3585 563.3947 568.5026 575.5387 583.2078 590.5677 597.9277 604.9639 612.3239 616.4749 622.2157 626.3668 633.7267 640.1299 645.8707 651.9354 658.3386 669.5405 675.9437 681.6697 686.1741 692.2534 697.3613">There will be online technical support for all the colleges throughout the semester </text><text class="ft0_5" y="755.2491" x="192.0667 196.8654 201.9732 209.3332 220.2113 224.0385 228.1895 235.5495 241.9527 248.9889 252.8161 265.9022 276.53 287.0548 296.9614 305.2635 309.0907 313.2417 319.3211 326.0334 336.9115 341.2534">from then MOOCS team. </text><text class="ft0_7" y="775.6666" x="168.0667">o</text><text class="ft0_5" y="774.4891" x="192.0667 201.0606 208.4206 214.4705 219.5784 226.6145 230.4417 235.5495 242.5857 247.6935 251.8446 255.6718 262.7079 266.859 274.219 281.2552 285.4062 289.2334 296.5934 303.9534 307.7953 311.9464 319.3064 325.3857 329.213 334.3208 340.724 347.1272 354.4872 361.8471 368.5594 375.2718 382.3079 386.1351 390.9339 396.0417 403.4017 414.2798 418.107 424.8193 428.6613 432.5032 436.3304 440.4814 447.8414 453.9208 457.748 465.108 471.8203 476.9282 481.0792 484.9211 491.3243 495.1663 502.5262 509.2386 516.5986 520.7496 524.5768 530.98 538.0162 542.1672 546.3182 552.7214 560.0814 566.1608 571.8868 576.0674 586.6216 590.4635 594.6146 598.4565 602.2837 609.9528 616.0322 619.8594 624.0104 630.7228 638.0828 644.1621 652.0934">Every fort night online feedback from all the participant colleges will be taken </text><text class="ft0_7" y="795.1866" x="168.0667">o</text><text class="ft0_5" y="794.0091" x="192.0667 201.9732 209.0094 216.3694 221.4772 227.2033 233.3121 237.4632 248.3412 255.0536 259.2046 265.284 270.3918 274.2337 280.946 284.788 288.6152 295.3275 302.6875 309.7237 313.5508 320.9109 325.0619 332.4219 338.8251 345.8613 351.5873 355.7678 366.0129 370.164 374.315 378.157 381.9842 389.6533 395.7326 399.5599 406.9199 410.7618 416.4879 420.6683 425.7762 429.6181 436.9781 444.3381 448.4891 454.8923 461.9285 465.7557 469.9067 476.9429 480.7701 487.4824 491.3243 495.1663 498.9935 503.4537 510.8137 517.2169 521.0441 528.4041 534.8073 539.9152 544.0662 547.9081 554.3113 558.1532 565.5132 572.2255 579.2617 583.4127 587.2399 593.6431 601.0031 605.1542 609.3052 615.7084 623.0684 629.1477 634.8738 638.7305 643.8383 650.2415 657.2776 664.9468 668.7887 675.501 680.6089 684.4508 691.487 695.9333">Course material and videos will be distributed to all the participant colleges regularly. </text><text class="ft0_3" y="834.8666" x="120.032"></text><text class="ft0_5" y="833.6891" x="144.0667 153.3256 160.3617 166.4411 171.8727 177.9521 181.7793 185.6212 191.3473 195.2039 202.5639 209.6001 213.4273 218.5351 222.6862 229.7223 236.4347 243.4708 250.1832 254.0251 260.7374 264.5793 268.4065 275.1188 282.4788 293.6808 304.8827 308.7246 313.1848 324.3867 330.7899 338.1499 342.3009 346.1281 350.9269 356.0348 363.3947 374.2728 378.1 382.5602 389.9202 395.9995 399.8268 412.9128 423.5407 434.0655 443.9721 449.6982 453.5548 460.5909 467.9509 472.102 478.5052 485.5413 489.3685 496.0809 503.117 507.268 511.4191 517.8223 525.1823 531.5854 537.3115 541.6267">There is no financial commitment from the MOOCs opted colleges. </text><text class="ft0_3" y="855.3467" x="120.032"></text><text class="ft0_5" y="854.1691" x="144.0667 154.6209 161.6571 165.8081 169.9592 176.6715 182.7508 187.5348 198.0891 201.931 206.082 209.924 214.3841 222.0532 228.1326 232.5927 238.6574 245.0606 252.0967 256.2478 260.7079 264.859 271.8951 276.5733 283.2856 287.4367 291.2786 295.8134 302.5257 309.8857 316.9218 322.6479 326.8284 330.6703 334.8214 342.4905 348.8937 355.9298 360.0809 364.541 376.0521 380.5122 387.2245 392.0233 396.822 400.6639 404.815 408.6569 415.3692 419.5203 425.9235 432.9596 437.4198 444.1321 451.4921 455.6431 459.7942 466.1974 473.5573 479.6367 485.3628 489.8671 494.3272 501.3634 505.8235 513.1835 517.3346 524.6946 530.7739 535.5579 546.1122 550.2632 554.1051 558.2562 562.4072 569.7672 577.1272 584.4872 590.5665 596.2926 602.0775 606.5377 611.6456 618.6817 623.7896 628.2498 641.3358 651.9636 662.4885 672.395 678.1211 681.6686 686.1288 690.2799 697.3161">Notice will be sent to all constituent &amp; affiliated colleges to give willingness for MOOCs, to </text><text class="ft0_5" y="873.6891" x="144.0667 148.2177 155.5777 161.9809 169.0171 173.1681 177.3191 182.427 189.4631 193.2903 199.6935 207.0535 211.2046 215.3556 221.7588 229.1188 235.1982 239.0254 247.3275 255.6295 266.1838 276.0903 279.6084 286.3207 293.3569 300.3931 304.2203 309.3281 316.3643 320.8244 326.9038 332.0116 339.0478 345.7601 349.602 353.7531 364.955 371.3582 378.3943 382.8545 389.8906 394.9985 398.8257 403.6245 410.6606 415.7684 419.5957 425.675 432.3873 439.0997 446.1358 449.963 455.6891 463.0491 470.4091 474.5896 480.6689 487.0721 491.2231 495.8667">identify college SPOC and Internal mentor for each subject. </text><text class="ft0_7" y="894.4133" x="168.0667">o</text><text class="ft0_5" y="893.2358" x="192.0667 201.0606 204.8731 210.5992 214.7796 218.6068 225.643 230.4417 238.0961 248.0026 255.0388 259.1898 263.3409 269.7441 277.1041 283.1835 288.9095 293.09 299.4932 306.5294 311.6372 318.9972 323.1483 327.2993 333.7025 340.7387 344.5659 355.1201 359.2712 363.4222 367.2641 371.0914 378.4514 384.5307 388.3579 395.36 402.72 406.5619 410.713 417.1161 423.5193 427.9795 434.3827 441.76">List of Colleges enrolled will be collected </text><text class="ft0_7" y="913.6133" x="168.0667">o</text><text class="ft0_5" y="912.4358" x="192.0667 201.0606 204.8731 210.5992 214.7796 220.8443 227.8804 232.6791 238.7438 247.0459 251.1969 258.5569 265.9169 272.3201 279.3563 283.5073 289.2334 295.6513 302.0545 309.0907 314.1985 321.5585 325.7096 329.8606 336.2638 343.2999 349.3646 354.4725 361.5086 366.6165 372.6811 378.7605 385.4728 392.1851 399.2213 405.2859 411.012 418.3719 425.7319 429.9124 436.3156 442.7188 446.8699 452.9345 457.7333 462.8412 470.2011 481.0792 487.4677 493.5471 500.2594 506.9717 514.3317 520.3964 526.7996 534.1595 538.0015 542.1525 548.5557 555.9156 562.3188 568.7074 579.2616 583.1035 587.2546 591.0965 597.1611 604.8303 610.9096 616.9742 623.6866 631.0466 635.1976 639.3486 645.428 651.8312 656.2914 662.6946 669.7307 675.7953 682.5077 689.8677 697.2277">List of Students enrolled for each subject from each college will be collected and </text><text class="ft0_5" y="931.9557" x="192.0667 202.9448 209.9662 214.1172 221.1534 225.3045 232.0168 235.8587 243.2187 249.6219 256.6581 260.8933">maintained. </text><text class="ft0_3" y="953.6133" x="120.032"></text><text class="ft0_6" y="952.4358" x="144.0667 152.3687 158.7719 162.6139 169.0171 175.4203 180.5281 184.6791 192.6721 200.0321 203.8593 209.5854 217.6225 222.4212 228.8244 235.5367 243.5297 250.8897 254.7316 258.8826 270.7175 277.4298 285.4228 290.2215 297.5815 303.9847 308.1357 311.9777 317.7037 321.5604 328.9204 335.3236 341.7268 349.0868 352.914 357.065 368.8999 376.8929 384.562 390.9652 396.0731 403.433 411.1169 415.9156">Selecting Internal mentor is very important </text><text class="ft0_7" y="970.2533" x="168.0667">o</text><text class="ft0_5" y="969.0757" x="192.0667 201.3255 208.3617 214.4411 218.2683 223.3761 230.4123 234.8724 240.9518 246.0596 253.0958 259.8081 263.6501 267.4772 272.2759 278.9883 285.3915 292.7515 296.5934 301.0536 308.0897 311.9169 317.643 325.003 332.0833 339.7524 343.9035 350.9396 354.7668 361.4792 365.6302 369.7813 375.8606 383.2206 390.2567 394.084 400.7963 404.6382 408.4801 412.3073 416.4584 423.8184 429.8977 433.7249 440.4373 444.2792 450.9915 456.7176 462.8116 468.891 474.6171 478.4737 485.186 489.028 496.3879 503.7479 510.7841 514.6113 525.1655 529.0074 533.1585 540.1946 544.0219 548.4821 555.842 561.9214 565.7486 571.4747 575.6552 583.0151 590.3751 596.7783 603.8145 607.9655 613.6916 617.5482 624.2606 631.2967 638.3328 642.4839 652.729 656.88 661.0311 664.873 668.7002 676.0602 682.4634 686.3053 693.6653">The Internal faculty should attend all the classes along with the students and will help </text><text class="ft0_5" y="986.0358" x="192.0667 196.2177 203.5777 209.9809 220.859 225.0101 229.1611 236.1973 240.0245 245.7505 253.1105 257.291 264.3272 268.4782 275.8383 282.8744 286.7016 290.8527 298.3734 304.4527 308.2799 314.9922 320.7183 326.5032 330.6543 338.0143 345.3743 356.5762 362.9794 370.0155 374.1666 379.8926 383.7493 390.4616 397.8216 404.8577 408.6849 415.0881 418.9301 425.6424 430.7502 434.5922 439.7 446.7362 450.5634 454.7144 462.0744 468.1538 472.3048 479.3409 486.3771 493.7371 501.097 505.2481 510.9742 514.8308">them in solving the assignments and clarify the doubts. </text><text class="ft0_7" y="1004.176" x="168.0667">o</text><text class="ft0_5" y="1002.998" x="192.0667 201.3255 208.3617 212.2036 217.9297 221.7863 225.6283 231.3543 235.211 241.6142 248.9742 256.0103 262.075 266.226 273.586 279.6654 285.0971 291.1765 298.2126 302.0398 308.7521 314.4782 318.5333 323.332 330.692 334.534 338.3759 342.2031 348.2677 354.6709 365.8728 372.276 378.0021 382.5064 388.5858 393.6936 397.5208 401.3628 406.4706 413.183 417.0249 424.061 428.212 435.572">This is considered as full semester training</text><path d="M318.5 1006.4 L442.7 1006.4 L442.7 1005.8 L318.5 1005.8 Z" class="df0_1"/><text class="ft0_5" y="1002.998" x="446.56 451.6679 458.704 463.8119 467.6391 471.7902 478.8263 484.9056 488.7329 492.8839 499.92 504.3802 510.4596 515.8912 522.9274 529.6397 533.4816 537.3088 542.1076 548.8199 555.2231 562.5831 566.425 570.8852 577.9213 581.7485">for the internal faculty. </text><text class="ft0_7" y="1021.168" x="168.0667">o</text><text class="ft0_5" y="1019.99" x="195.5867 204.8456 212.2056 218.2849 222.1121 226.9108 233.947 238.4072 244.4865 249.9182 256.9544 263.6667 267.5086 271.3358 276.1345 282.8468 289.25 296.61 300.452 304.603 311.6392 315.7902 319.6321 325.3582 329.2148 333.3659 340.7259 346.8052 350.6324 354.7835 361.8196 366.2798 372.3591 377.467 382.2657 388.9781 395.6904 401.7697 405.597 412.957 419.0363 423.4965 434.0507 440.4539 446.8571 453.8932 457.7205 462.1806 469.5406 475.62 479.4472 486.8072 494.1672 498.3182 502.4692 509.8292 516.2324 520.0597 531.2616 537.6648 544.7009 549.1611 556.1972 561.3051 565.1323 571.8446 578.8807 585.9169 589.7441 595.4702 599.6507 607.0107 614.3707 620.7739 627.81 631.9611 635.7883">The Internal faculty is the interface between the online mentor and student. </text><style type="text/css"><![CDATA[@font-face{font-family:'Symbol';src:url('font/Symbol.woff') format('woff');}@font-face{font-family:'ABCDEECourier20New';src:url('font/ABCDEE$Courier20New.woff') format('woff');}@font-face{font-family:'ABCDEEWingdings';src:url('font/ABCDEE$Wingdings.woff') format('woff');}@font-face{font-family:'ABCDEECambria';src:url('font/ABCDEE$Cambria.woff') format('woff');} .ft0_1{font-family:Times New Roman,Arial;font-size:18.56px;fill:#000000;font-weight:bold;} .df0_1{fill:#000000;fill-rule:evenodd;stroke:none;} .ft0_3{font-family:Symbol,Arial;font-size:14.72px;fill:#000000;} .ft0_4{font-family:Arial,Arial;font-size:14.72px;fill:#000000;} .ft0_5{font-family:Times New Roman,Arial;font-size:14.72px;fill:#000000;} .ft0_6{font-family:Times New Roman,Arial;font-size:14.72px;fill:#000000;font-weight:bold;} .ft0_7{font-family:ABCDEECourier20New,Arial;font-size:14.72px;fill:#000000;} .ft0_8{font-family:ABCDEEWingdings,Arial;font-size:14.72px;fill:#000000;} .ft0_9{font-family:ABCDEECambria,Arial;font-size:14.72px;fill:#000000;} .ss0{stroke:#000000;}]]></style>
</svg>