<?xml version="1.0" standalone="no"?><!DOCTYPE svg PUBLIC "-//W3C//DTD SVG 1.1//EN" "http://www.w3.org/Graphics/SVG/1.1/DTD/svg11.dtd"><!-- Created with RasterEdge (http://www.rasteredge.com/) -->
<!-- Product Page (http://www.rasteredge.com/demo/online-document-viewer/) -->
<svg width="8.266666in" height="11.69333in" version="1.1" xmlns="http://www.w3.org/2000/svg" xmlns:xlink="http://www.w3.org/1999/xlink" >
<text class="ft1_1" y="54.47998" x="168.0667">o</text><text class="ft1_3" y="53.30238" x="195.5867 204.8456 212.2056 218.2849 222.1121 226.9108 233.947 238.4072 244.4865 249.9182 256.9544 263.6667 267.5086 271.3358 276.1345 282.8468 289.25 296.61 300.452 304.603 311.6392 315.7902 326.3445 330.1864 334.3374 338.1793 342.3304 348.7336 355.7697 362.482 366.3239 373.6839 380.3962 384.5473 390.6266 394.4539 398.6049 405.9649 412.0443 416.1953 420.3463 427.3824 431.8426 437.922 443.0298 450.066 456.7783 460.6202 464.4474 470.1735 476.6062 481.7141 485.556 492.916 497.067 502.7931 506.6497">The Internal faculty will evaluate the internal scripts. </text><text class="ft1_1" y="71.46655" x="168.0667">o</text><text class="ft1_3" y="70.28895" x="195.5867 204.8456 212.2056 218.2849 222.1121 226.9108 233.947 238.4072 244.4865 249.9182 256.9544 263.6667 267.5086 271.3358 276.1345 282.8468 289.25 296.61 300.452 304.603 311.6392 315.4664 321.531 328.5672 335.6033 343.2725 347.4235 354.4597 358.2869 365.956 372.0353 375.8625 382.5749 389.9349 394.0859 400.1653 403.9925 408.1435 415.1797 419.0069 426.043 432.7553 440.1153 447.4753 451.6263 457.7057 461.5329 465.684 473.0439 479.1233 482.9505 488.6766 496.0366 503.7351 507.8862 514.2894 520.6926 524.8436 528.6708 535.707 542.7431 546.8942 553.9303 557.7722 563.4983 567.6788 575.0388 585.593 592.6292 596.4564 600.6074 607.6436 612.0667 618.4698 625.1822 630.9083 637.0171 640.8443 648.2043 653.0031">The Internal faculty should be able to handle the subject on his own in case of </text><path d="M612.1 73.7 L653.1 73.7 L653.1 73.1 L612.1 73.1 Z" class="df1_3"/><text class="ft1_3" y="87.24903" x="192.0667 198.4699 209.6718 216.075 221.1828 228.5428 234.946 242.306 249.0184 256.0545 259.8817">emergency. </text><path d="M192.1 90.7 L259.9 90.7 L259.9 90.0 L192.1 90.0 Z" class="df1_3"/><text class="ft1_1" y="105.0667" x="168.0667">o</text><text class="ft1_3" y="103.889" x="195.5867 203.8888 210.9249 216.0328 222.0974 226.2484 233.6084 239.6878 245.7524 250.8603 257.8965 262.3566 268.436 273.5438 280.58 287.2923 291.1342 297.1989 301.9976 308.7099 315.1131 322.4731 326.315 330.7752 337.8113 343.876 348.027 355.387 361.4664 367.531 380.6171 391.245 401.7698 411.6764 417.4024 423.4965 434.0508 441.0869 446.1948 453.2309 459.6194 463.7704 470.8066 477.5189 484.555 490.6197 496.3458 503.7057 510.7861 518.4552 522.6062 529.6423 535.707 543.3761 549.4554 555.5201 559.6711 564.7791 570.8584 577.5707 581.7217 588.1249 595.1611 601.8267 608.539 614.2651 620.3591 625.467 631.5464 638.5825 646.2516 650.0935 656.8058 661.9137 667.9784 678.2235 685.2597 690.3676 697.7275">For the Internal faculty the MOOCs work load should be treated as regular work </text><path d="M601.8 107.3 L697.9 107.3 L697.9 106.7 L601.8 106.7 Z" class="df1_3"/><text class="ft1_3" y="120.8491" x="192.0667 196.2177 203.2539 209.9662 217.0024">load.</text><path d="M192.1 124.3 L220.9 124.3 L220.9 123.6 L192.1 123.6 Z" class="df1_3"/><text class="ft1_5" y="139.9467" x="168.0667"></text><text class="ft1_3" y="138.7691" x="192.0667 196.8654 203.9016 208.3617 214.4411 219.5489 226.5851 233.2974 237.1393 241.2904 252.4923 258.8955 266.2555 270.4066 277.4427 282.5505 286.3777 290.2197 295.9457 299.8024 304.9102 310.9896 316.7156 324.0756 331.4356 338.516 344.5806 348.4225 356.0916 360.2426 366.322 370.1492 375.2571 382.2932 387.4011 391.2283 397.9406 401.7826 405.6245 409.4517 413.6028 420.9627 427.0421 430.8693 437.5816 443.9848 448.1359 451.9778 459.0139 465.7263 469.8773 475.9566 481.6827 485.5394 490.6472 497.0504 500.8923 507.6047 512.0648 518.468 525.5042 529.3314 533.4824 540.5186 544.3458 548.4968 555.533 562.2453 566.3964 570.2236 575.9496 583.3096 590.6696 594.541 600.9442 607.3474 612.0667">Internal mentor is responsible for all the activates related to that subject </text><text class="ft1_1" y="159.4666" x="216.0934">o</text><text class="ft1_3" y="158.289" x="240.0934 249.0873 253.1794 260.5394 266.6483 270.4754 274.6265 281.3388 288.375 292.526 299.886 306.9222 310.7494 317.4617 321.6127 325.7638 331.8431 339.2032 346.2393 353.2607 360.2969 367.0092 373.5733">Like taking attendance </text><text class="ft1_1" y="178.7067" x="216.0934">o</text><text class="ft1_3" y="177.5291" x="240.0934 250.3385 255.4463 260.5541 267.2665 274.3026 281.6627 285.5046 292.8646 299.9008 303.7279 308.8358 315.8719 320.9798 324.8069 332.167 339.2031 343.3542 347.5052 354.8652 360.9445 364.7718 369.2319 375.3113 381.0374 385.2179 390.9439 394.8006 399.5993 403.4413 408.24 412.0672 418.7795 425.8157 433.1757 437.9744 441.8016 448.514 455.5501 462.5862 466.7373 477.9392 482.0902 489.1263 493.2774 499.3568 506.7167 513.7382 524.6162 531.0667">Arranging for online tests (if any) and mid exams </text><text class="ft1_1" y="198.2266" x="216.0934">o</text><text class="ft1_3" y="197.049" x="240.0934 249.9999 253.8418 260.5541 265.662 269.5039 274.3026 281.6626 285.5045 292.8645 299.9007 303.7279 307.8789 315.239 321.3183 325.4694 332.8293 339.8655 347.2255 354.5855 358.7365 364.6133">Clarifying the doubts </text><text class="ft1_1" y="217.4266" x="216.0934">o</text><text class="ft1_3" y="216.249" x="240.0934 244.8921 251.9282 256.3884 262.4678 267.5756 274.2879 280.6911 284.8422 288.9932 296.0294 303.0656 310.087 320.6412 324.4831 328.9433 335.9795 342.6918 346.8428 354.2028 360.606 367.3183 374.6783 382.0383 386.1893 390.3404 397.7004 403.7797 410.8011 414.9522 421.9883 427.7144 431.8949 437.0028 444.3628 450.766 454.917 461.9531 467.061 473.7733 478.5721 484.2982 491.6581 499.0181 502.8895 509.2927 515.6959 519.8469 526.8684 532.9478 540.3077 547.9768 554.0562 559.1641 563.3151 568.1138 574.8262 581.5385 588.5746 595.6107 602.3231 607.4309 611.2728 618.942 623.093 630.453 637.4891 644.2014 648.3525 655.7125 661.7918 668.8132 675.2164 679.0583 685.7707 691.4968 697.2817">Interacting with the online instructor (subject expert) and fixing the class </text><text class="ft1_3" y="235.7691" x="240.0934 244.2444 248.3954 259.5974 263.7484 271.1084 278.1446 283.8707 287.7273 294.4396 301.4758 308.512 312.663 318.7424 326.1024 333.1238 344.0019 347.8291 351.9802 356.1312 367.3331 371.4841 378.8441 385.8802 391.6063 395.463 400.2617 404.1036 408.9024 412.7296 419.442 426.8019 433.8381 438.6368 443.04">timings and exam timings (if any). </text><text class="ft1_1" y="256.4666" x="216.0934">o</text><text class="ft1_3" y="255.289" x="240.0934 249.9999 257.0361 264.3961 271.4323 279.1014 285.5046 289.6556 293.8067 301.1667 308.2029 312.03 318.7424 325.7785 332.8147 336.6419 344.0019 349.1097 355.8221 362.2253 366.3763 370.2182 376.6214 383.3337 387.1757 391.0029 395.8016 399.6436 404.4423 408.5934 415.9533 422.0327 428.745 435.1482 440.8743 446.6592 453.3716 458.4794 465.5156 470.3143 474.4653 478.2926 488.5377 492.3796 497.4875 501.6385 508.9985 515.7108 519.5527 523.7067 527.5486 534.2609 541.6209 545.4481 550.2469 557.283 562.3909 565.909 570.0601 577.0962 583.8085 587.9595 591.7867 597.5128 604.8728 612.2328 616.1042 622.1835 628.5867 632.7378 636.7333">Conducting any practical (if necessary)/ Virtual lab for that subject. </text><text class="ft1_1" y="275.6666" x="216.0934">o</text><text class="ft1_3" y="274.489" x="240.0934 249.9999 257.0361 264.0723 269.5039 276.5401 280.6912 287.7273 294.4396 298.5907 302.7417 310.1017 317.1379 320.9651 331.5193 335.3613 339.8214 346.8575 350.6848 354.8358 362.1958 368.2751 372.1024 377.8285 388.4563 397.6858 407.9309 418.72 423.52 436.6061 447.234 457.7588 467.6654 473.3914 477.2481 483.6513 491.0113 498.0474 503.1553 510.5153 514.6663 521.7025 528.4148 532.5658 539.6019 544.7098 548.537 553.3358 560.3719 565.4798 569.307 576.0193 583.0555 590.0916 593.9188 599.6449 607.0049 614.3649 621.7249 628.8052 633.9131 638.3334">Coordinating with the JNTUK-MOOCs coordinator for any support </text><text class="ft1_5" y="296.1466" x="120.032"></text><text class="ft1_3" y="294.969" x="144.0667 153.0606 160.4206 166.4705 171.5783 178.6145 182.4417 193.3051 199.3844 206.7444 213.4568 218.5646 222.7156 233.9175 240.3207 247.3569 251.508 255.3351 261.0612 268.4212 275.5016 283.1707 287.3217 294.3579 298.1851 305.2213 311.9336 319.2936 325.5733 329.4133 336.453 343.4933">Every Department should have an </text><text class="ft1_6" y="294.969" x="347.3333 357.2534 362.0533 372.6076 376.7586 383.7948 389.5208 395.3058 399.133 409.6873 417.0472 424.7164">E-Class Room</text><text class="ft1_3" y="294.969" x="444 448.1511 455.1872 459.0144 465.4176 472.7776 480.1376 487.1737 494.5337 500.9369 505.088 508.9152 522.0012 532.6291 543.1539 553.0605 558.9467">to conduct MOOCs </text><text class="ft1_1" y="315.6934" x="168.0667">o</text><text class="ft1_7" y="314.5157" x="192.0667 204.5345 208.6855 212.8366 219.8728 223.7733 231.1333 238.4933 243.2933 250.6534 257.6895 261.5167 267.2428 273.6754 281.0354 285.1865 289.3375 296.6975 303.7337 307.5609 313.9641 321.3241 328.6841 336.0441 342.4473 346.5983 350.7494 357.1526">With 60-80 seating capacity </text><text class="ft1_1" y="334.8933" x="168.0667">o</text><text class="ft1_7" y="333.7157" x="192.0667 199.4267 206.7867 214.1467 221.5067 228.8667 232.6939 241.3345 247.0606 254.4206 261.7806 265.9611 269.7883 278.7822 286.1422 293.5022 303.7032 307.5304 316.804 320.955 325.1061 332.4661 336.2933 345.2872 349.3794 359.1733">Sound Proof Room with A/C </text><text class="ft1_1" y="354.4133" x="168.0667">o</text><text class="ft1_7" y="353.2357" x="192.0667 200.3688 207.7288 215.0888 219.2398 226.5998 233.9598 238.1109 248.6651 255.0683 260.7944 267.227 271.3781 278.7381 285.7742 289.6934 298.9669 303.118 307.269 314.629 318.4562 322.6073 329.9673 334.1183 340.5215 346.2476 350.119 353.9462 360.3494 367.7094 375.0694 379.2204 383.3715 390.7314 398.0914 403.8175 410.8978 415.0489 419.1999 426.5599 433.76">Laptop/Desktop with latest configuration </text><text class="ft1_1" y="373.9333" x="168.0667">o</text><text class="ft1_7" y="372.7557" x="192.0667 202.6209 206.772 214.132 221.492 225.3192 231.0452 238.4052 244.8379 251.2411 258.6011 262.4283 266.5793 273.6934 277.8444 284.2476 289.9737 297.3337 303.7663 307.9733 311.8134 316.6121 320.4392 332.598 336.4399 343.7999 347.9509 358.5051 365.8651 376.4194 380.2466 387.2827 391.11 403.2687 410.6287 417.9886 423.4351 427.2623 432.16">High speed internet ( Minimum 4 Mbps ) </text><text class="ft1_1" y="393.1333" x="168.0667">o</text><text class="ft1_7" y="391.9557" x="192.0667 200.3688 210.2753 220.8296 224.6567 231.7733 237.4994 244.8594 249.0399 255.4431 261.8463 265.9973 273.3574 279.0834 282.9401 292.2137 296.3647 300.5157 307.8757 311.8134 319.1733 323.0153 328.7413 336.1013 340.2818 347.6418 354.045 357.8723 363.6533 370.0565 375.7826 382.2153 388.6185 395.68">LCD projector with display screen </text><text class="ft1_1" y="412.6533" x="168.0667">o</text><text class="ft1_3" y="411.4757" x="192.0667 201.3255 211.5707 218.6069 222.7579 233.003 239.7154 246.7515 250.5787 257.291 264.3272 271.6872 279.0472 285.4504 291.8536 296.0047 300.1557 307.5157 311.3576 315.8178 322.854 326.6812 330.8322 337.8684 342.6671 347.775 354.4873 360.2134 364.3939 369.1926 376.5526 382.9558 387.1069 394.4669 399.5747 405.6541 411.3801 415.2368 421.64 426.7479 432.8272 436.6544 443.0576 450.4176 461.6195 468.9795 476.3395 480.1814 486.246 493.2822 498.39 505.4261 509.9467">Two way connectivity infrastructures are compulsory. </text><text class="ft1_8" y="431.8933" x="216.0934"></text><text class="ft1_7" y="430.7157" x="240.0934 249.0873 256.4473 263.8073 267.8994 275.2595 279.1161 286.4761 292.8793 298.6053 302.7858 309.189 319.7433 323.5705 332.8441 336.9951 341.1461 348.5062 352.3334 356.4844 365.758 373.118 376.9453 387.4995 391.6505 398.0537 404.4569 410.183">Audio System with two mikes </text><text class="ft1_8" y="451.4133" x="216.0934"></text><text class="ft1_7" y="450.2357" x="240.0934 250.6476 254.7986 262.1586 269.5186 274.6265 280.3525 286.7852 292.5113 299.8713 304.0518 311.4117 315.5628 319.7138 327.0739 334.4338">High resolution </text><text class="ft1_9" y="450.2357" x="339.6534 352.7394 359.1721 366.5321 371.64 378.0432 385.4031 396.605 403.0082 408.7343">Web camera</text><text class="ft1_7" y="450.2357" x="421.28 425.76">/ </text><text class="ft1_9" y="450.2357" x="431.2 440.4736 444.6246 451.9846 458.3878 466.0569 471.2267 481.1333 488.4933 499.6952 506.0984 511.8244">Video Camera</text><text class="ft1_7" y="450.2357" x="524.3467 530.7467 540.0203 544.1713 548.3224 555.6824 561.114 569.4161 575.1422 579.4267 584.2267 592.8674 600.2274 607.5867 613.0267 623.9047 634.4443 638.5953 645.9553 653.3153 657.4663 661.6174 666.7252 673.1284 677.2795 684.6395 690.3656 697.7256">[with Tri-Pod &amp; iball claro </text><text class="ft1_7" y="469.7557" x="240.0934 248.3954 257.0361 261.8348 265.662 269.813 277.173 281.0002 287.4034 294.7634 302.1234 309.4834 315.8866 322.2898 326.4409 330.2681 336.6713 344.0313 354.5855 360.9887 366.7148 374.0748 377.9314 382.0825 389.1186 392.9458 397.0969 404.4568 411.8168 415.6588 423.0187 430.3787 435.1775 440.8">TV( to connect camera to laptop)] </text><text class="ft1_5" y="491.0933" x="120.032"></text><text class="ft1_3" y="489.9157" x="144.0667 154.6209 160.7003 168.0603 174.7726 179.8804 184.0315 195.2334 201.6366 208.6728 212.8238 219.5361 223.378 227.2052 237.1118 244.4718 251.508 256.6158 263.9758 268.1268 275.163 281.8753 286.0264 293.0626 298.1704 301.9976 309.0338 314.1416 317.9688 322.7675 329.8036 334.2638 340.3432 345.451 352.4872 359.1995 363.0414 366.8686 379.9547 386.3873 393.4235 397.8836 404.9198 410.0276 413.8549 419.5809 426.6613 433.6974 441.3665 445.5175 452.5537 456.3809 460.532 466.9352 474.2951 480.3745 484.2017 490.6049 497.3172 502.4251 508.5045 512.3317 519.6917 524.4904 528.3176 532.4687 539.8287 545.908 549.7352 556.4476 563.8076 571.1675 578.2037 585.5637 591.9669 596.1179 600.2689 607.6289 614.665 618.8161 625.8522 630.651 634.4782 640.8814 644.7233 651.4357 657.1617 663.2558 669.3351 675.0612">Departmental Coordinator or Internal Mentor should take care of the conduction of classes.</text><path d="M144.1 493.3 L679.6 493.3 L679.6 492.7 L144.1 492.7 Z" class="df1_3"/><text class="ft1_5" y="511.5733" x="120.032"></text><text class="ft1_6" y="510.3957" x="144.0667 153.9732 160.3764 167.0887 175.0817 183.0746 186.9166 193.6289 200.9889 204.8308 208.658 216.651 223.3633 229.7665 235.4926 243.1911">Technical person</text><text class="ft1_3" y="510.3957" x="254.8133 258.6553 264.3813 268.238 273.3458 279.749 286.7852 294.1452 297.9871 303.4188 309.822 316.8582 320.6853 325.7932 332.8293 337.9372 341.7644 345.9154 352.9515 359.0309 362.8581 368.9227 380.1246 387.4846 394.5208 398.9809 406.0171 409.8443 416.2475 423.6075 430.9675 438.0036 445.3636 451.7668 456.2269 460.378 467.738 474.7741 478.6013 485.9613 490.7601 494.5873 498.7383 506.0983 512.1777 516.0049 529.091 539.7189 550.2437 560.1503 566.3067">is required for the smooth conduction of the MOOCs </text><text class="ft1_5" y="532.0533" x="120.032"></text><text class="ft1_3" y="530.8758" x="144.0667 154.6209 158.772 162.6139 166.4411 170.5921 177.9521 184.0315 187.8587 200.9447 211.5726 222.0974 232.004 237.73 241.5867 246.6945 252.7738 256.6158 263.3281 267.4791 273.8823 280.9185 284.7457 292.1057 299.4657 306.5019 313.2142 317.6744 323.7537 329.4798 333.3364 343.8907 347.7326 351.8836 355.7256 359.5528 367.2219 373.3012 377.1285 384.4885 390.5678 397.9278 402.0788 405.9061 410.0571 417.0932 420.9205 425.0715 432.4315 438.88">All the MOOCs related updates will be kept in the </text><text class="ft1_10" y="530.8758" x="443.04 453.5942 464.1485 474.3936 478.2208 482.3719 489.408 493.5591 501.2281 508.2643 512.4153 518.8185 522.9696 529.049 535.7612 540.8691 547.9053 552.0563 556.2073">www.jntuklelearn.in</text><path d="M443.0 534.3 L563.7 534.3 L563.7 533.6 L443.0 533.6 Z" class="df1_10"/><text class="ft1_5" y="552.56" x="120.032"></text><text class="ft1_3" y="551.3824" x="144.0667 157.8299 164.866 171.5784 175.7294 181.4555 191.73 200.0321 208.3342 212.4853 219.5214 224.6293 231.6654 239.0254 246.3854 250.5365 257.5579 264.9179 271.9541 276.1052 289.1912 295.933 299.7749 303.926 308.077 315.1132 320.5449 327.8134 335.1733 342.5333 346.9935 357.2386 361.3896 365.5407 369.3826 373.5337 381.2028 387.606 391.757 398.1602 403.2681 409.3474 416.0598 420.5199 426.9231 434.08 438.24 445.9091 452.9453 457.0963 461.5565 468.9164 475.3196 479.4707 492.5567 503.1846 513.7094 523.616 529.342 533.5226 537.6736 543.7529 550.7744 561.8267 565.9867 570.4468 577.483 581.634 587.6986 594.1018 601.4618 608.4979 612.9581 617.1091 624.1453 629.2532 636.2893 641.7209 652.599 659.3113 663.4624 667.6134 674.9734 682.0095 686.1606 690.3116 697.6716">WhatsAPP group and Mail group will be created by the MOOCs team to send information to </text><text class="ft1_3" y="570.9024" x="144.0667 150.779 154.6209 158.4628 162.29 166.4411 173.8011 179.8804 183.7076 196.7937 207.4216 217.9464 227.8529 233.579 237.4356 244.4718 251.8318 255.9828 262.386 269.4222 273.3734 281.6754 286.7833 290.6252 297.6613 304.3737 308.2156 315.5756 322.2879 326.1298 331.8559 335.7125 339.5397 347.8418 356.1439 366.6981 376.2956 382.0217 385.5692 392.2815 399.3176 406.3538 410.181 415.2889 422.325 426.7852 432.8645 437.9724 445.0085 451.7208 455.5627 459.39 472.4761 478.9088 485.9449 490.405 497.4412 502.549 508.6667">all the MOOCs opted Principals, SPOCs and Internal Mentors </text><text class="ft1_5" y="592.56" x="120.032"></text><text class="ft1_3" y="591.3824" x="144.0667 154.6209 161.3332 168.3694 174.7579 185.3121 189.154 195.2187 201.298 207.6865 218.2407 222.3918 229.7518 236.155 243.1911 248.9172 255.0113 262.0327 269.0689 276.4289 282.8174 293.6955 300.4078 304.868 310.9473 316.0552 319.8971 326.6094 330.4513 336.8398 347.394 351.545 355.6961 359.538 365.6027 373.2718 379.675 385.7396 393.0996 400.4596 404.6107 411.6468 418.3591 425.7191 432.1223 439.4823 445.8708 449.7127 457.0727 463.1373 467.5975 474.9575 481.3607 487.4254 493.1514 503.7793 513.0087 523.2538 534.2667 539.0667 548.0606 561.4558 567.859 575.219 582.2551 588.9674 593.7662 602.7601 615.8462 624.1483 628.947 632.7743 638.8389 649.084 655.7964 662.5087 668.588 674.3141 680.0991 686.1637 690.6238 697.66">Day wise Videos and material will be uploaded in the JNTUK-EMedha(LMS). Access to </text><text class="ft1_3" y="610.5825" x="144.0667 153.0606 159.1105 165.8228 170.9306 178.2906 182.1326 189.4926 196.5287 200.3559 213.442 220.1838 227.22 233.9323 241.2923 247.6955 258.8974 265.3006 272.6606 276.8116 280.6389 288.9409 295.9771 301.7032 306.2075 312.6107 323.4888 327.316 332.1147 341.1086 354.1947 362.4968 367.2955 374.95 385.1951 389.3461 393.4972 397.3391 401.1663 408.8354 414.9148 418.742 426.102 430.253 437.613 444.0162 451.0523 454.8796 459.0306 466.0667 469.894 476.6063 480.4482 484.2901 488.5067 492.6577 500.0177 506.097 509.9243 517.2843 523.9966 529.1045 533.2555 537.0974 543.5006 547.3425 554.7025 561.4149 568.451 572.6021 578.4667">Learning Management System (LMS) will be given to all the participants </text><text class="ft1_8" y="631.28" x="122.912"></text><text class="ft1_3" y="630.1024" x="146.9467 157.1918 162.9179 166.7745 171.5732 178.2856 183.3934 186.9114 193.6238 199.0702 202.8973 207.0484 214.0846 220.1639 223.9911 237.0772 243.819 249.545 255.33 259.1719 266.5319 272.6113 276.4385 286.9927 294.6618 301.065 308.1012 311.9284 322.7917 329.8279 333.979 338.13 345.49 351.5693 355.3966 365.3032 372.3393 379.6993 384.8071 390.8718 396.9511 402.6772 406.5338 411.3326 424.4186 435.0465 445.5713 455.4779 461.2039 466.0321 469.5502 475.9534 482.9896 490.3495 495.4574 501.522 507.6014 513.3275 517.1841 523.5873 528.6952 534.7745 538.6017 545.3141 552.3502 559.7102 566.4225 572.5018 577.6097 584.9697 591.3729 598.4091 602.2363 606.0635 610.2145 617.5745 623.9777 631.0139 634.8411 641.5534 646.6613 652.7406 656.5679 660.7189 668.0789 674.1582">As far as the Massive Open Online Courses (MOOCs) courses are concerned, they are the </text><text class="ft1_3" y="647.0624" x="146.9467 152.6728 159.4145 170.6164 176.6958 180.523 187.2353 192.9614 196.818 200.969 208.0052 214.7175 218.5594 222.3866 229.4228 234.2215 238.0487 243.1565 249.5597 256.5959 263.9559 267.7979 274.5102 279.618 283.4452 289.8484 296.8846 304.2446 309.3524 315.0785 321.1873 326.9133 330.77 341.0151 344.8423 349.9502 353.7774 357.9284 361.4465 365.2738 371.677 376.7849 382.8642 390.2242 394.0661 398.2171 403.9432 407.7999 411.6271 418.6632 426.0232 431.1311 437.5343 441.6853 445.5272 452.8872 459.9233 463.7506 470.4629 477.8229 484.859 489.0101 495.4133 502.4494 509.1617 513.0037 520.3636 527.0759 531.227 535.0689 542.4289 549.465 553.2922 557.6667 566.9256 573.9617 580.0411 584.1921 591.5521 598.5883 602.7393 609.7754 613.9265 620.9626 625.1136 629.9124 635.0203 641.0996 646.5313 652.9344 659.9706 666.6829 672.7623 676.9133 680.7552 686.4813">same as that of regular courses w.r.t. credits, duration and evaluation. The only difference is </text><path d="M557.7 650.5 L686.7 650.5 L686.7 649.8 L557.7 649.8 Z" class="df1_3"/><text class="ft1_3" y="663.7291" x="146.9467 151.0977 158.1339 164.8462 168.9972 172.8244 176.9754 184.0116 190.4148 197.451 201.2782 207.9905 213.0983 219.1777 223.0049 230.0411 236.7534 244.1134 251.4734 255.6244 262.0276 269.0638 272.891 280.251 287.2872 291.4382 297.5176 304.8776 309.3378 315.4171 320.525 327.5611 334.2734 338.1154 342.2664 348.3458 355.7057 363.3748 369.4542 374.5621 378.7131 384.4392 388.2958">that they are handled by external experts. </text><path d="M146.9 667.1 L388.6 667.1 L388.6 666.5 L146.9 666.5 Z" class="df1_3"/><text class="ft1_5" y="682.8267" x="96.03201"></text><text class="ft1_3" y="681.6491" x="147.5867 156.8456 163.8817 167.7236 173.5067 177.3467 183.4113 189.8145 201.0164 207.0958 212.8219 217.3262 223.4055 228.5733 232.4133 245.4994 256.1273 266.6521 276.5586 282.3333 286.1733 296.4185 300.5695 304.4114 308.2534 312.0806 317.8066 321.9871 328.6994 333.8073 337.6492 341.4764 346.2751 351.383 358.4191">This semester MOOCs will start from</text><text class="ft1_5" y="700.7466" x="120.032"></text><text class="ft1_6" y="699.5691" x="144.0667 151.4267 158.7867 163.5867 170.9467 178.3067 183.1067 190.4667 197.8267 205.1867 212.5733">19-06-2017 </text><text class="ft1_3" y="699.5691" x="216.4133 223.1257 230.1618 237.198 241.0252 247.4284 254.7884 261.8246 267.5507 271.4073 278.7673">and ends on</text><text class="ft1_6" y="699.5691" x="289.6934 297.0533 304.4533 309.2534 316.6133 323.9733 328.7733 336.1334 343.4933 350.8533 358.2133 362.0405 366.5154 373.8754 380.2786 384.1058 389.8319 395.6169 399.4441 406.8041 413.2073 420.5673 427.04 431.84 437.5661 441.4227 449.7248 456.4371 468.272 474.6752 480.4013 485.2295 491.6327 498.1067 501.9467 507.0545 515.6952 523.0552 528.1631 535.8469 543.516 551.1998 555.3509 567.5096 577.4162 581.2581 587.6613 594.3737 599.1724 605.8847 609.7266 616.439 623.799 627.6409 631.4681 645.2313 652.5912 659.3036 667.2965 671.4476 679.4406 685.8437 691.5698 696.8933">07-10-2017 for II year-I Semester (Python &amp;Electrical Machines) </text><text class="ft1_5" y="718.6666" x="120.032"></text><text class="ft1_6" y="717.4891" x="144.0667 151.4267 158.7867 163.5867 170.9467 178.3067 183.1067 190.4667 197.8267 205.1867 212.5467">19-06-2017 </text><text class="ft1_3" y="717.4891" x="216.4133 223.1257 230.1618 237.198 241.0252 247.4284 254.7884 261.8246 267.5507 271.4073 278.7673">and ends on</text><text class="ft1_6" y="717.4891" x="289.6934 297.0533 304.4533 309.2534 316.6133 323.9733 328.7733 336.1334 343.4933 350.8533 358.2133 362.0405 366.5154 373.8754 380.2786 384.1058 389.8319 400.4598 404.2575 411.6175 418.0207 425.3807 431.84 436.64 440.48 446.2061 450.0627 458.3648 464.768 476.6029 483.0061 489.0707 493.8694 500.2726 507.0667 511.8654 515.6926 527.2037 534.2398 542.2328 549.5928 556.9528 564.9457 568.7729 580.9316 584.7589 594.6655 598.5074 605.8674 609.6946 620.2488 627.285 632.3928 639.9333 645.0533">14-10-2017 for IV year- I Semester( Hadoop &amp; Big Data) </text><text class="ft1_5" y="736.5867" x="120.032"></text><text class="ft1_6" y="735.4091" x="144.0667 151.4267 158.7867 163.5867 170.9467 178.3067 183.1067 190.4667 197.8267 205.1867 212.5467">27-06-2017 </text><text class="ft1_3" y="735.4091" x="216.4133 223.1257 230.1618 237.198 241.0252 247.4284 254.7884 261.8246 267.5507 271.4073 278.7673">and ends on</text><text class="ft1_6" y="735.4091" x="289.6934 297.0533 304.4533 309.2534 316.6133 323.9733 328.7733 336.1334 343.4933 350.8533 358.2133 362.0405 366.5154 373.8754 380.2786 384.1058 389.8319 400.4598 404.2575 411.6175 418.0207 425.3807 431.84 436.64 440.48 446.2061 450.0627 458.3648 464.768 476.6029 483.0061 489.0707 493.8694 500.2726 506.985 511.8667 515.7067 524.7006 528.7928 536.8299 540.6718 545.7797 552.1829 556.0101 565.9167 569.7586 576.4709 588.3058 595.0181 603.0111 607.8098 611.6371 625.4003 631.8035 636.9113 644.9043 652.2643 660.2572 665.9833 671.2933">14-10-2017 for IV year- I Semester( Finite Element Methods) </text><text class="ft1_12" y="771.4667" x="384.8 392.793 401.1098 409.12">o0o </text><style type="text/css"><![CDATA[@font-face{font-family:'ABCDEECourier20New';src:url('font/ABCDEE$Courier20New.woff') format('woff');}@font-face{font-family:'Symbol';src:url('font/Symbol.woff') format('woff');}@font-face{font-family:'ABCDEEWingdings';src:url('font/ABCDEE$Wingdings.woff') format('woff');}@font-face{font-family:'ABCDEELato';src:url('font/ABCDEE$Lato.woff') format('woff');} .ft1_1{font-family:ABCDEECourier20New,Arial;font-size:14.72px;fill:#000000;} .ft1_2{font-family:Arial,Arial;font-size:14.72px;fill:#000000;} .ft1_3{font-family:Times New Roman,Arial;font-size:14.72px;fill:#000000;} .df1_3{fill:#000000;fill-rule:evenodd;stroke:none;} .ft1_5{font-family:Symbol,Arial;font-size:14.72px;fill:#000000;} .ft1_6{font-family:Times New Roman,Arial;font-size:14.72px;fill:#000000;font-weight:bold;} .ft1_7{font-family:Times New Roman,Arial;font-size:14.72px;fill:#000000;font-style:italic;} .ft1_8{font-family:ABCDEEWingdings,Arial;font-size:14.72px;fill:#000000;} .ft1_9{font-family:Times New Roman,Arial;font-size:14.72px;fill:#000000;font-style:italic;font-weight:bold;} .ft1_10{font-family:Times New Roman,Arial;font-size:14.72px;fill:#0000FF;} .df1_10{fill:#0000FF;fill-rule:evenodd;stroke:none;} .ft1_12{font-family:ABCDEELato,Arial;font-size:14.72px;fill:#000000;} .ss0{stroke:#000000;}]]></style>
</svg>