<?xml version="1.0" standalone="no"?><!DOCTYPE svg PUBLIC "-//W3C//DTD SVG 1.1//EN" "http://www.w3.org/Graphics/SVG/1.1/DTD/svg11.dtd"><!-- Created with RasterEdge (http://www.rasteredge.com/) -->
<!-- Product Page (http://www.rasteredge.com/demo/online-document-viewer/) -->
<svg width="10in" height="7.5in" version="1.1" xmlns="http://www.w3.org/2000/svg" xmlns:xlink="http://www.w3.org/1999/xlink" >
<g clip-path="url(#0clip0)"><path d="M0.0 720.0 L960.0 720.0 L960.0 0.0 L0.0 0.0 Z" class="df0_0"/></g><path d="M86.3 0.3 L86.3 0.3 C86.3 47.8 47.8 86.3 0.3 86.3 L0.3 86.3 C0.3 86.3 0.3 86.3 0.3 86.3 L0.3 86.3 L0.3 0.3 Z" class="df0_1"/><g clip-path="url(#0clip0)"><path d="M86.3 0.3 L86.3 0.3 C86.3 47.8 47.8 86.3 0.3 86.3 L0.3 86.3 C0.3 86.3 0.3 86.3 0.3 86.3 L0.3 86.3 L0.3 0.3 Z" class="df0_2"/></g><image transform="matrix(0.4794544,0,0,-0.4794544,13.33333,188)"  width="391" height="391" xlink:href="image/1766318914423613714013312342151061109132116.png" /><image transform="matrix(0.4888889,0,0,-0.4937778,104.2667,97.06665)"  width="12" height="12" xlink:href="image/70608211892715831104235340517055104.png" /><path d="M17.7 91.6 L17.7 91.6 C17.7 42.2 57.7 2.2 107.1 2.2 L107.1 2.2 C107.1 2.2 107.1 2.2 107.1 2.2 L107.1 2.2 L107.1 2.2 C156.5 2.2 196.5 42.2 196.5 91.6 L196.5 91.6 C196.5 91.6 196.5 91.6 196.5 91.6 L196.5 91.6 L196.5 91.6 C196.5 141.0 156.5 181.0 107.1 181.0 L107.1 181.0 C107.1 181.0 107.1 181.0 107.1 181.0 L107.1 181.0 L107.1 181.0 C57.7 181.0 17.7 141.0 17.7 91.6 L17.7 91.6 C17.7 91.6 17.7 91.6 17.7 91.6 Z" class="df0_3"/><image transform="matrix(0.4806324,0,0,-0.4804233,17.86667,230.6667)"  width="253" height="252" xlink:href="image/7643183110222524916324424350239193189177197.png" /><image transform="matrix(0.4571429,0,0,-0.4617143,77.06667,171.7333)"  width="7" height="7" xlink:href="image/101796716911614318884918410494024812452.png" /><g clip-path="url(#0clip1)"><path d="M32.1 131.8 L32.1 131.8 C52.0 106.8 88.9 103.1 114.4 123.4 L114.4 123.4 C114.4 123.4 114.4 123.4 114.4 123.4 L114.4 123.4 L114.4 123.4 C139.9 143.8 144.4 180.5 124.5 205.5 L124.5 205.5 C124.5 205.5 124.5 205.5 124.5 205.5 L124.5 205.5 L124.5 205.5 C104.5 230.5 67.7 234.3 42.2 213.9 L42.2 213.9 C42.2 213.9 42.2 213.9 42.2 213.9 L42.2 213.9 L42.2 213.9 C16.7 193.5 12.2 156.8 32.1 131.8 L32.1 131.8 C32.1 131.8 32.1 131.8 32.1 131.8 ZM42.8 140.3 L42.8 140.3 C27.6 159.4 31.1 187.5 50.7 203.2 L50.7 203.2 L50.7 203.2 C70.3 218.8 98.6 216.0 113.8 197.0 L113.8 197.0 C113.8 197.0 113.8 197.0 113.8 197.0 L113.8 197.0 L113.8 197.0 C129.0 177.9 125.4 149.8 105.9 134.1 L105.9 134.1 C105.9 134.1 105.9 134.1 105.9 134.1 L105.9 134.1 L105.9 134.1 C86.3 118.5 58.0 121.3 42.8 140.3 Z" class="df0_4"/></g><path d="M32.1 131.8 L32.1 131.8 C52.0 106.8 88.9 103.1 114.4 123.4 L114.4 123.4 C114.4 123.4 114.4 123.4 114.4 123.4 L114.4 123.4 L114.4 123.4 C139.9 143.8 144.4 180.5 124.5 205.5 L124.5 205.5 C124.5 205.5 124.5 205.5 124.5 205.5 L124.5 205.5 L124.5 205.5 C104.5 230.5 67.7 234.3 42.2 213.9 L42.2 213.9 C42.2 213.9 42.2 213.9 42.2 213.9 L42.2 213.9 L42.2 213.9 C16.7 193.5 12.2 156.8 32.1 131.8 L32.1 131.8 C32.1 131.8 32.1 131.8 32.1 131.8 Z" class="df0_5"/><path d="M42.8 140.3 L42.8 140.3 C27.6 159.4 31.1 187.5 50.7 203.2 L50.7 203.2 L50.7 203.2 C70.3 218.8 98.6 216.0 113.8 197.0 L113.8 197.0 C113.8 197.0 113.8 197.0 113.8 197.0 L113.8 197.0 L113.8 197.0 C129.0 177.9 125.4 149.8 105.9 134.1 L105.9 134.1 C105.9 134.1 105.9 134.1 105.9 134.1 L105.9 134.1 L105.9 134.1 C86.3 118.5 58.0 121.3 42.8 140.3 Z" class="df0_5"/><g clip-path="url(#0clip0)"><path d="M106.3 720.0 L960.0 720.0 L960.0 0.0 L106.3 0.0 Z" class="df0_6"/></g><image transform="matrix(0.48,0,0,-0.48,97.86667,720)"  width="35" height="1500" xlink:href="image/43482492461481112772301731068814621123414.png" /><image transform="matrix(0.477193,0,0,-0.4819649,107.4667,364.5333)"  width="19" height="19" xlink:href="image/192161354321116120280249225164246206115234221.png" /><g clip-path="url(#0clip0)"><path d="M106.5 720.0 L114.2 720.0 L114.2 0.0 L106.5 0.0 Z" class="df0_6"/></g><g clip-path="url(#0clip2)"><path d="M96.7 159.5 L96.7 159.5 C96.7 153.4 101.7 148.4 107.8 148.4 L107.8 148.4 C107.8 148.4 107.8 148.4 107.8 148.4 L107.8 148.4 L107.8 148.4 C113.9 148.4 118.8 153.4 118.8 159.5 L118.8 159.5 C118.8 159.5 118.8 159.5 118.8 159.5 L118.8 159.5 L118.8 159.5 C118.8 165.6 113.9 170.5 107.8 170.5 L107.8 170.5 C107.8 170.5 107.8 170.5 107.8 170.5 L107.8 170.5 L107.8 170.5 C101.7 170.5 96.7 165.6 96.7 159.5 L96.7 159.5 C96.7 159.5 96.7 159.5 96.7 159.5 Z" class="df0_7"/></g><path d="M121.5 144.6 L121.5 144.6 C121.5 142.7 123.0 141.2 124.8 141.2 L124.8 141.2 C124.8 141.2 124.8 141.2 124.8 141.2 L124.8 141.2 L124.8 141.2 C126.7 141.2 128.2 142.7 128.2 144.6 L128.2 144.6 C128.2 144.6 128.2 144.6 128.2 144.6 L128.2 144.6 L128.2 144.6 C128.2 146.5 126.7 148.0 124.8 148.0 L124.8 148.0 C124.8 148.0 124.8 148.0 124.8 148.0 L124.8 148.0 L124.8 148.0 C123.0 148.0 121.5 146.5 121.5 144.6 L121.5 144.6 C121.5 144.6 121.5 144.6 121.5 144.6 Z" class="df0_8"/><g clip-path="url(#0clip3)"><image transform="matrix(0.48,0,0,-0.4805281,2.542667E-06,194.1333)"  width="2000" height="404" xlink:href="image/184108111722087821940982285911231246182.png" /></g><g clip-path="url(#0clip3)"><image transform="matrix(0.4801132,0,0,-0.4803653,146.1333,152)"  width="1413" height="292" xlink:href="image/220652152456012966239151442431771584422787.png" /></g><g clip-path="url(#0clip0)"></g><g clip-path="url(#0clip4)"><path d="M0.0 184.0 L960.0 184.0 L960.0 0.0 L0.0 0.0 Z" class="df0_9"/></g><g clip-path="url(#0clip0)"><path d="M0.0 184.0 L960.0 184.0 L960.0 0.0 L0.0 0.0 Z" class="df0_10"/></g><text class="ft0_12" y="53.99733" x="172.4 188.4167 208.1492 236.6909 259.819 284.7409 307.869 330.9971 352.3633 375.5875 395.0637 402.5275 425.6556 447.0218 471.9437 495.0718 518.1998 525.7277 547.0939 568.4602 591.5883 616.382 639.5101 664.432 685.7982 710.528 735.3217 747.7827 771.0389 790.5151">JAWAHARLAL NEHRU TECHNOLOGIAL </text><text class="ft0_13" y="92.41333" x="282.84 305.944 329.208 341.656 364.408 385.752 408.856 426.776 439.224 460.568 480.92 491.576 502.232 527.1281 550.2321 575.1281 587.576 610.744 633.848 657.1121">UNIVERSITY::KAKINADA</text><text class="ft0_14" y="134.2" x="179.0667 199.6 212.9333 227.84 235.2533 250.2133 263.5467 278.4533 291.7867 298.4533 304.5867 322.3733 335.7067 346.16 354.96 361.6267 382.16 395.4933 410.4 423.7333 437.0667 450.4 462.1334 469.5467 476.2133 481.3333 500.5867 515.4133 530.3734 545.28 557.0134 570.3467 577.0134 593.0134 604.7467 618.0801 632.9867 644.7201 655.0934 670.0267">Kakinada, East Godavari, Andhra Pradesh </text><text class="ft0_15" y="136.3333" x="677.3334">–</text><text class="ft0_14" y="134.2" x="697.3334 710.6667 724 737.3334 744 757.3334 770.6667">533 003</text><g clip-path="url(#0clip0)"><image transform="matrix(0.9960883,0,0,-0.9331896,349.84,369.1166)"  width="347" height="16" xlink:href="image/2306214920319119413111027311991124142209231.jpeg" /></g><g clip-path="url(#0clip0)"><image transform="matrix(0.4803876,0,0,-0.4808743,0,176)"  width="344" height="366" xlink:href="image/13622699108176153123244162173938823550183.jpeg" /></g><g clip-path="url(#0clip0)"><image transform="matrix(0.8,0,0,-1.346734,0,720)"  width="1200" height="398" xlink:href="image/1412641200432622398140110177122132109145.jpeg" /></g><text class="ft0_16" y="703.7333" x="924.6667">1</text><style type="text/css"><![CDATA[@font-face{font-family:'Times20New20RomanBold';src:url('font/Times20New20Roman,Bold.woff') format('woff');}@font-face{font-family:'ABCDEEGill20Sans20MT';src:url('font/ABCDEE$Gill20Sans20MT.woff') format('woff');} .df0_0{filter:url(#0filter0);fill-rule:evenodd;stroke:none;} .df0_1{fill:#FEFAF4;fill-opacity:0.3;fill-rule:evenodd;stroke:none;} .df0_2{stroke:#D2C39E;stroke-linejoin:round;stroke-miterlimit:10;fill:none;} .df0_3{stroke-width:2.15pt;stroke:#FFF6DB;stroke-linejoin:round;stroke-miterlimit:10;fill:none;} .df0_4{filter:url(#0filter1);fill-rule:evenodd;stroke:none;} .df0_5{stroke:#C7B791;stroke-linejoin:round;stroke-miterlimit:10;fill:none;} .df0_6{fill:#FFFFFF;fill-rule:evenodd;stroke:none;} .df0_7{filter:url(#0filter2);fill-rule:evenodd;stroke:#308DA5;stroke-linejoin:round;stroke-miterlimit:10;} .df0_8{stroke:#307F93;stroke-linejoin:round;stroke-miterlimit:10;fill:none;} .df0_9{filter:url(#0filter3);fill-rule:evenodd;stroke:none;} .df0_10{stroke:#84AA33;stroke-miterlimit:8;fill:none;} .ft0_12{font-family:Times New Roman,Arial;font-size:32.03333px;fill:#000000;font-weight:bold;} .ft0_13{font-family:Times New Roman,Arial;font-size:32px;fill:#000000;font-weight:bold;} .ft0_14{font-family:Times New Roman,Arial;font-size:26.66667px;fill:#000000;font-weight:bold;} .ft0_15{font-family:Times20New20RomanBold,Arial;font-size:26.66667px;fill:#000000;} .ft0_16{font-family:ABCDEEGill20Sans20MT,Arial;font-size:16px;fill:#B5A788;} .ss0{stroke:#000000;}]]></style><defs><clipPath id="0clip0"><path clip-rule="evenodd" d="M0.0 720.0 L960.0 720.0 L960.0 0.0 L0.0 0.0 Z"/></clipPath><filter id="0filter0" primitiveUnits="objectBoundingBox"><feImage xlink:href="16495101125208971495413485382222241658240.png" x="0" y="0" width="0.00625" height="0.008333334" preserveAspectRatio="none" result="0filter0res"/><feTile x="0" y="0" width="1" height="1" in="0filter0res" /></filter><clipPath id="0clip1"><path clip-rule="evenodd" d="M32.1 131.8 L32.1 131.8 C52.0 106.8 88.9 103.1 114.4 123.4 L114.4 123.4 C114.4 123.4 114.4 123.4 114.4 123.4 L114.4 123.4 L114.4 123.4 C139.9 143.8 144.4 180.5 124.5 205.5 L124.5 205.5 C124.5 205.5 124.5 205.5 124.5 205.5 L124.5 205.5 L124.5 205.5 C104.5 230.5 67.7 234.3 42.2 213.9 L42.2 213.9 C42.2 213.9 42.2 213.9 42.2 213.9 L42.2 213.9 L42.2 213.9 C16.7 193.5 12.2 156.8 32.1 131.8 L32.1 131.8 C32.1 131.8 32.1 131.8 32.1 131.8 ZM42.8 140.3 L42.8 140.3 C27.6 159.4 31.1 187.5 50.7 203.2 L50.7 203.2 L50.7 203.2 C70.3 218.8 98.6 216.0 113.8 197.0 L113.8 197.0 C113.8 197.0 113.8 197.0 113.8 197.0 L113.8 197.0 L113.8 197.0 C129.0 177.9 125.4 149.8 105.9 134.1 L105.9 134.1 C105.9 134.1 105.9 134.1 105.9 134.1 L105.9 134.1 L105.9 134.1 C86.3 118.5 58.0 121.3 42.8 140.3 Z"/></clipPath><filter id="0filter1" primitiveUnits="objectBoundingBox"><feImage xlink:href="9111019103162149186191341401559591027237.png" x="0" y="0" width="1.043501" height="1.051829" preserveAspectRatio="none" result="0filter1res"/><feTile x="0" y="0" width="1" height="1" in="0filter1res" /></filter><clipPath id="0clip2"><path clip-rule="evenodd" d="M96.7 159.5 L96.7 159.5 C96.7 153.4 101.7 148.4 107.8 148.4 L107.8 148.4 C107.8 148.4 107.8 148.4 107.8 148.4 L107.8 148.4 L107.8 148.4 C113.9 148.4 118.8 153.4 118.8 159.5 L118.8 159.5 C118.8 159.5 118.8 159.5 118.8 159.5 L118.8 159.5 L118.8 159.5 C118.8 165.6 113.9 170.5 107.8 170.5 L107.8 170.5 C107.8 170.5 107.8 170.5 107.8 170.5 L107.8 170.5 L107.8 170.5 C101.7 170.5 96.7 165.6 96.7 159.5 L96.7 159.5 C96.7 159.5 96.7 159.5 96.7 159.5 Z"/></clipPath><filter id="0filter2" primitiveUnits="objectBoundingBox"><feImage xlink:href="7218931587916187188251109434318214896133.png" x="0" y="0" width="0.9963771" height="0.996376" preserveAspectRatio="none" result="0filter2res"/><feTile x="0" y="0" width="1" height="1" in="0filter2res" /></filter><clipPath id="0clip3"><path clip-rule="evenodd" d="M960.0 0.0 L960.0 0.0 L960.0 720.0 L0.0 720.0 L0.0 184.0 L960.0 184.0 L960.0 0.0 Z"/></clipPath><clipPath id="0clip4"><path clip-rule="evenodd" d="M0.0 184.0 L960.0 184.0 L960.0 0.0 L0.0 0.0 Z"/></clipPath><filter id="0filter3" primitiveUnits="objectBoundingBox"><feImage xlink:href="186126711118113198301492482213784108100227.png" x="0" y="0" width="0.7625" height="3.978261" preserveAspectRatio="none" result="0filter3res"/><feTile x="0" y="0" width="1" height="1" in="0filter3res" /></filter></defs>
</svg>