<?xml version="1.0" standalone="no"?><!DOCTYPE svg PUBLIC "-//W3C//DTD SVG 1.1//EN" "http://www.w3.org/Graphics/SVG/1.1/DTD/svg11.dtd"><!-- Created with RasterEdge (http://www.rasteredge.com/) -->
<!-- Product Page (http://www.rasteredge.com/demo/online-document-viewer/) -->
<svg width="10in" height="7.5in" version="1.1" xmlns="http://www.w3.org/2000/svg" xmlns:xlink="http://www.w3.org/1999/xlink" >
<g clip-path="url(#11clip0)"><path d="M0.0 720.0 L960.0 720.0 L960.0 0.0 L0.0 0.0 Z" class="df11_0"/></g><path d="M86.3 0.3 L86.3 0.3 C86.3 47.8 47.8 86.3 0.3 86.3 L0.3 86.3 C0.3 86.3 0.3 86.3 0.3 86.3 L0.3 86.3 L0.3 0.3 Z" class="df11_1"/><g clip-path="url(#11clip0)"><path d="M86.3 0.3 L86.3 0.3 C86.3 47.8 47.8 86.3 0.3 86.3 L0.3 86.3 C0.3 86.3 0.3 86.3 0.3 86.3 L0.3 86.3 L0.3 0.3 Z" class="df11_2"/></g><image transform="matrix(0.4794544,0,0,-0.4794544,13.33333,188)"  width="391" height="391" xlink:href="image/1766318914423613714013312342151061109132116.png" /><image transform="matrix(0.4888889,0,0,-0.4937778,104.2667,97.06665)"  width="12" height="12" xlink:href="image/70608211892715831104235340517055104.png" /><path d="M17.7 91.6 L17.7 91.6 C17.7 42.2 57.7 2.2 107.1 2.2 L107.1 2.2 C107.1 2.2 107.1 2.2 107.1 2.2 L107.1 2.2 L107.1 2.2 C156.5 2.2 196.5 42.2 196.5 91.6 L196.5 91.6 C196.5 91.6 196.5 91.6 196.5 91.6 L196.5 91.6 L196.5 91.6 C196.5 141.0 156.5 181.0 107.1 181.0 L107.1 181.0 C107.1 181.0 107.1 181.0 107.1 181.0 L107.1 181.0 L107.1 181.0 C57.7 181.0 17.7 141.0 17.7 91.6 L17.7 91.6 C17.7 91.6 17.7 91.6 17.7 91.6 Z" class="df11_3"/><image transform="matrix(0.4806324,0,0,-0.4804233,17.86667,230.6667)"  width="253" height="252" xlink:href="image/7643183110222524916324424350239193189177197.png" /><image transform="matrix(0.4571429,0,0,-0.4617143,77.06667,171.7333)"  width="7" height="7" xlink:href="image/101796716911614318884918410494024812452.png" /><g clip-path="url(#11clip1)"><path d="M32.1 131.8 L32.1 131.8 C52.0 106.8 88.9 103.1 114.4 123.4 L114.4 123.4 C114.4 123.4 114.4 123.4 114.4 123.4 L114.4 123.4 L114.4 123.4 C139.9 143.8 144.4 180.5 124.5 205.5 L124.5 205.5 C124.5 205.5 124.5 205.5 124.5 205.5 L124.5 205.5 L124.5 205.5 C104.5 230.5 67.7 234.3 42.2 213.9 L42.2 213.9 C42.2 213.9 42.2 213.9 42.2 213.9 L42.2 213.9 L42.2 213.9 C16.7 193.5 12.2 156.8 32.1 131.8 L32.1 131.8 C32.1 131.8 32.1 131.8 32.1 131.8 ZM42.8 140.3 L42.8 140.3 C27.6 159.4 31.1 187.5 50.7 203.2 L50.7 203.2 L50.7 203.2 C70.3 218.8 98.6 216.0 113.8 197.0 L113.8 197.0 C113.8 197.0 113.8 197.0 113.8 197.0 L113.8 197.0 L113.8 197.0 C129.0 177.9 125.4 149.8 105.9 134.1 L105.9 134.1 C105.9 134.1 105.9 134.1 105.9 134.1 L105.9 134.1 L105.9 134.1 C86.3 118.5 58.0 121.3 42.8 140.3 Z" class="df11_4"/></g><path d="M32.1 131.8 L32.1 131.8 C52.0 106.8 88.9 103.1 114.4 123.4 L114.4 123.4 C114.4 123.4 114.4 123.4 114.4 123.4 L114.4 123.4 L114.4 123.4 C139.9 143.8 144.4 180.5 124.5 205.5 L124.5 205.5 C124.5 205.5 124.5 205.5 124.5 205.5 L124.5 205.5 L124.5 205.5 C104.5 230.5 67.7 234.3 42.2 213.9 L42.2 213.9 C42.2 213.9 42.2 213.9 42.2 213.9 L42.2 213.9 L42.2 213.9 C16.7 193.5 12.2 156.8 32.1 131.8 L32.1 131.8 C32.1 131.8 32.1 131.8 32.1 131.8 Z" class="df11_5"/><path d="M42.8 140.3 L42.8 140.3 C27.6 159.4 31.1 187.5 50.7 203.2 L50.7 203.2 L50.7 203.2 C70.3 218.8 98.6 216.0 113.8 197.0 L113.8 197.0 C113.8 197.0 113.8 197.0 113.8 197.0 L113.8 197.0 L113.8 197.0 C129.0 177.9 125.4 149.8 105.9 134.1 L105.9 134.1 C105.9 134.1 105.9 134.1 105.9 134.1 L105.9 134.1 L105.9 134.1 C86.3 118.5 58.0 121.3 42.8 140.3 Z" class="df11_5"/><g clip-path="url(#11clip0)"><path d="M106.3 720.0 L960.0 720.0 L960.0 0.0 L106.3 0.0 Z" class="df11_6"/></g><image transform="matrix(0.48,0,0,-0.48,97.86667,720)"  width="35" height="1500" xlink:href="image/43482492461481112772301731068814621123414.png" /><image transform="matrix(0.477193,0,0,-0.4819649,107.4667,364.5333)"  width="19" height="19" xlink:href="image/192161354321116120280249225164246206115234221.png" /><g clip-path="url(#11clip0)"><path d="M106.5 720.0 L114.2 720.0 L114.2 0.0 L106.5 0.0 Z" class="df11_6"/></g><text class="ft11_8" y="49.89331" x="145.6267 171.4175 196.3116 213.6478 238.5419 256.8175 280.3879 291.7461 318.8606 343.7547 368.6488 391.3225 416.0031 437.3531 460.9235 501.6166 525.187 549.8676 567.2037 585.4366">Future Enhancements </text><text class="ft11_9" y="49.89331" x="597.7733 614.2128 626.0834 662.1223 689.2368 716.3513 750.5967 754.9094 781.5969 818.9594 854.1015 883.0094">( NEED YOUR </text><text class="ft11_10" y="101.1066" x="145.6267 173.9147 204.592 235.2693 262.4907 298.5013 329.1786 343.3867 380.72 416.7307 428.208">ATTENTION )</text><text class="ft11_11" y="155.2667" x="130.4333"></text><text class="ft11_12" y="155.2667" x="160.0267 192.814 202.9024 212.7506 231.9265 247.7797 256.547 276.5637">Offering</text><text class="ft11_13" y="155.2667" x="336.9067 365.2502 387.3486 402.241 464.4 481.4666 501.4557 564.9734 573.7407 593.7573 614.0542 634.0709 649.4838 662.8148 679.6288 740.4667 773.2539 789.1071 797.8745 817.0504 837.0671 850.3982 869.5742">CoreandindustryOriented</text><text class="ft11_14" y="203.2667" x="160.0267 175.4267 195.4267 215.4267 224.1867 243.4667 260.9867 274.3067 310.7733 324.1067 367.0267 384.1067 392.8667 422.5333 444.9333 460.7733 477.8533 497.7333 515.2534 535.2534 554.4933 591.1067 612.9733 644.2 666.6 675.4 693.52 712.6799 730.2 771.4401 781.52 796.2001 818.28 870.1067 879.9734">subjectstoallBranchesofB.TechfromII</text><text class="ft11_12" y="251.3067" x="160.0267 176.8407 196.0166 213.1109 239.8 261.8984 281.9151 310.699 327.7933 343.0059 363.2628 378.7733">yearonwards.</text><text class="ft11_15" y="307.3067" x="130.4333"></text><text class="ft11_14" y="307.3067" x="160.0267 188.3467 205.4267 220.8267 275 290.4 303.72 323.72 344.12 396.36 416.08 433.16 448.56 467.72 523.0667 582.84 592.92 612.92 633.2 653.2 668.6 681.72 698.48 751.1333 773.2133 789.0533 797.8134 816.9733 836.9733 850.2933 869.4533">Casestudybased&amp;Industryoriented</text><text class="ft11_14" y="355.3333" x="160.0267 191.2667 224.0267 256.8267 285.1467">MOOCS</text><text class="ft11_16" y="355.3333" x="314.7733 332.2933 352.2933 367.8534 383.6934 392.4534 409.9734 429.9734 438.7334 458.7334 500.9333 521.2134 540.3734 555.7733 564.6533 581.7333 601.7733">curriculumdesign.</text><text class="ft11_15" y="411.36" x="130.4333"></text><text class="ft11_12" y="411.36" x="160.0267 180.0433 195.4562 208.7873 225.8815 245.8982 254.6655 263.4328 278.8456 298.8623 307.7096 327.7263">Establishing</text><text class="ft11_13" y="411.36" x="365.44 375.5734 385.7068 430.5333 452.952 475.0504 505.9161 525.9327 541.4657 579.8934 603.9134 623.0894 653.9551 676.1335 689.1843 729.2667 757.6103 776.7863 796.8029 810.134 824.9865 865.04">IITBombayRemoteCentre&amp;</text><text class="ft11_17" y="456.9733" x="160.0267 186.4587 212.2933 235.4773 261.9333 273.9333 301.1494 323.6987 362.2267 384.8507 402.7333 431.5173 452.1253 464.5573 492.6667 519.0987 536.9813 555.648 568.08 582.0054">CDAC-HYDRemoteCentre</text><text class="ft11_11" y="512.2" x="130.4333"></text><text class="ft11_13" y="512.2" x="160.0267 178.8023 193.6146 212.7906 251.5333 284.3206 304.3373 313.1046 321.8719 341.8885 380.64 408.9836 431.082 451.0987 466.7917 482.2046 501.3806">FreeOnlineCourses</text><text class="ft11_12" y="512.2" x="536.1733 546.2618 560.9139 583.0123 633.2267 643.075 653.1633 696.4667 718.8853 740.9836 771.8494 791.8661 807.399 821.811 845.84 855.6882 865.7766">fromIITBombay,IIT</text><text class="ft11_14" y="560.2" x="160.0267 188.3467 208.3467 227.5067 247.5067 267.5067 284.5867 304.36 321.44 341.44 372.8934 404.1334 424.3734 448.5333 468.5333 488.4">ChennaiandNPTEL.</text><text class="ft11_11" y="616.2333" x="130.4333"></text><text class="ft11_13" y="616.2333" x="160.0267 184.2068 192.9741 209.5879 222.919 242.9357 260.0299 287.2667 296.034 313.1282 333.1449">Virtuallabs</text><text class="ft11_12" y="616.2333" x="367.0267 376.8749 398.9733 432.9333 443.0218 474.2878 498.468 526.8115 571.36 586.7728 604.3074 613.1948 621.9622 639.0564 659.0731 678.8095 712.4667 725.2773 745.2939 764.4699 773.2372 811.7067 822.0753 836.7275 858.8259">forJNTUKsyllabus(helpfrom</text><text class="ft11_14" y="664.2333" x="160.0267 170.16 180.2933 190.4267 225.1333 254.2933 271.8134 292.0533 311.2133 327.0533 344.1334 364.1334 381.2133 401.3734">IIITHyderabad)</text><text class="ft11_18" y="703.7333" x="920.6667 928.6667">12</text><style type="text/css"><![CDATA[@font-face{font-family:'ABCDEEGill20Sans20MTBold';src:url('font/ABCDEE$Gill20Sans20MT,Bold.woff') format('woff');}@font-face{font-family:'ABCDEEWingdings202';src:url('font/ABCDEE$Wingdings202.woff') format('woff');}@font-face{font-family:'ABCDEEGill20Sans20MT';src:url('font/ABCDEE$Gill20Sans20MT.woff') format('woff');} .df11_0{filter:url(#11filter0);fill-rule:evenodd;stroke:none;} .df11_1{fill:#FEFAF4;fill-opacity:0.3;fill-rule:evenodd;stroke:none;} .df11_2{stroke:#D2C39E;stroke-linejoin:round;stroke-miterlimit:10;fill:none;} .df11_3{stroke-width:2.15pt;stroke:#FFF6DB;stroke-linejoin:round;stroke-miterlimit:10;fill:none;} .df11_4{filter:url(#11filter1);fill-rule:evenodd;stroke:none;} .df11_5{stroke:#C7B791;stroke-linejoin:round;stroke-miterlimit:10;fill:none;} .df11_6{fill:#FFFFFF;fill-rule:evenodd;stroke:none;} .ft11_8{font-family:ABCDEEGill20Sans20MTBold,Arial;font-size:42.7px;fill:#0000FF;} .ft11_9{font-family:ABCDEEGill20Sans20MTBold,Arial;font-size:42.7px;fill:#FF0000;} .ft11_10{font-family:ABCDEEGill20Sans20MTBold,Arial;font-size:42.66667px;fill:#FF0000;} .ft11_11{font-family:ABCDEEWingdings202,Arial;font-size:32.03333px;fill:#3891A7;} .ft11_12{font-family:ABCDEEGill20Sans20MT,Arial;font-size:40.03333px;fill:#000000;} .ft11_13{font-family:ABCDEEGill20Sans20MT,Arial;font-size:40.03333px;fill:#000099;} .ft11_14{font-family:ABCDEEGill20Sans20MT,Arial;font-size:40px;fill:#000000;} .ft11_15{font-family:ABCDEEWingdings202,Arial;font-size:32px;fill:#3891A7;} .ft11_16{font-family:ABCDEEGill20Sans20MT,Arial;font-size:40px;fill:#000099;} .ft11_17{font-family:ABCDEEGill20Sans20MT,Arial;font-size:37.33334px;fill:#000099;} .ft11_18{font-family:ABCDEEGill20Sans20MT,Arial;font-size:16px;fill:#B5A788;} .ss0{stroke:#000000;}]]></style><defs><clipPath id="11clip0"><path clip-rule="evenodd" d="M0.0 720.0 L960.0 720.0 L960.0 0.0 L0.0 0.0 Z"/></clipPath><filter id="11filter0" primitiveUnits="objectBoundingBox"><feImage xlink:href="16495101125208971495413485382222241658240.png" x="0" y="0" width="0.00625" height="0.008333334" preserveAspectRatio="none" result="11filter0res"/><feTile x="0" y="0" width="1" height="1" in="11filter0res" /></filter><clipPath id="11clip1"><path clip-rule="evenodd" d="M32.1 131.8 L32.1 131.8 C52.0 106.8 88.9 103.1 114.4 123.4 L114.4 123.4 C114.4 123.4 114.4 123.4 114.4 123.4 L114.4 123.4 L114.4 123.4 C139.9 143.8 144.4 180.5 124.5 205.5 L124.5 205.5 C124.5 205.5 124.5 205.5 124.5 205.5 L124.5 205.5 L124.5 205.5 C104.5 230.5 67.7 234.3 42.2 213.9 L42.2 213.9 C42.2 213.9 42.2 213.9 42.2 213.9 L42.2 213.9 L42.2 213.9 C16.7 193.5 12.2 156.8 32.1 131.8 L32.1 131.8 C32.1 131.8 32.1 131.8 32.1 131.8 ZM42.8 140.3 L42.8 140.3 C27.6 159.4 31.1 187.5 50.7 203.2 L50.7 203.2 L50.7 203.2 C70.3 218.8 98.6 216.0 113.8 197.0 L113.8 197.0 C113.8 197.0 113.8 197.0 113.8 197.0 L113.8 197.0 L113.8 197.0 C129.0 177.9 125.4 149.8 105.9 134.1 L105.9 134.1 C105.9 134.1 105.9 134.1 105.9 134.1 L105.9 134.1 L105.9 134.1 C86.3 118.5 58.0 121.3 42.8 140.3 Z"/></clipPath><filter id="11filter1" primitiveUnits="objectBoundingBox"><feImage xlink:href="9111019103162149186191341401559591027237.png" x="0" y="0" width="1.043501" height="1.051829" preserveAspectRatio="none" result="11filter1res"/><feTile x="0" y="0" width="1" height="1" in="11filter1res" /></filter></defs>
</svg>