<?xml version="1.0" standalone="no"?><!DOCTYPE svg PUBLIC "-//W3C//DTD SVG 1.1//EN" "http://www.w3.org/Graphics/SVG/1.1/DTD/svg11.dtd"><!-- Created with RasterEdge (http://www.rasteredge.com/) -->
<!-- Product Page (http://www.rasteredge.com/demo/online-document-viewer/) -->
<svg width="10in" height="7.5in" version="1.1" xmlns="http://www.w3.org/2000/svg" xmlns:xlink="http://www.w3.org/1999/xlink" >
<g clip-path="url(#12clip0)"><path d="M0.0 720.0 L960.0 720.0 L960.0 0.0 L0.0 0.0 Z" class="df12_0"/></g><path d="M86.3 0.3 L86.3 0.3 C86.3 47.8 47.8 86.3 0.3 86.3 L0.3 86.3 C0.3 86.3 0.3 86.3 0.3 86.3 L0.3 86.3 L0.3 0.3 Z" class="df12_1"/><g clip-path="url(#12clip0)"><path d="M86.3 0.3 L86.3 0.3 C86.3 47.8 47.8 86.3 0.3 86.3 L0.3 86.3 C0.3 86.3 0.3 86.3 0.3 86.3 L0.3 86.3 L0.3 0.3 Z" class="df12_2"/></g><image transform="matrix(0.4794544,0,0,-0.4794544,13.33333,188)"  width="391" height="391" xlink:href="image/1766318914423613714013312342151061109132116.png" /><image transform="matrix(0.4888889,0,0,-0.4937778,104.2667,97.06665)"  width="12" height="12" xlink:href="image/70608211892715831104235340517055104.png" /><path d="M17.7 91.6 L17.7 91.6 C17.7 42.2 57.7 2.2 107.1 2.2 L107.1 2.2 C107.1 2.2 107.1 2.2 107.1 2.2 L107.1 2.2 L107.1 2.2 C156.5 2.2 196.5 42.2 196.5 91.6 L196.5 91.6 C196.5 91.6 196.5 91.6 196.5 91.6 L196.5 91.6 L196.5 91.6 C196.5 141.0 156.5 181.0 107.1 181.0 L107.1 181.0 C107.1 181.0 107.1 181.0 107.1 181.0 L107.1 181.0 L107.1 181.0 C57.7 181.0 17.7 141.0 17.7 91.6 L17.7 91.6 C17.7 91.6 17.7 91.6 17.7 91.6 Z" class="df12_3"/><image transform="matrix(0.4806324,0,0,-0.4804233,17.86667,230.6667)"  width="253" height="252" xlink:href="image/7643183110222524916324424350239193189177197.png" /><image transform="matrix(0.4571429,0,0,-0.4617143,77.06667,171.7333)"  width="7" height="7" xlink:href="image/101796716911614318884918410494024812452.png" /><g clip-path="url(#12clip1)"><path d="M32.1 131.8 L32.1 131.8 C52.0 106.8 88.9 103.1 114.4 123.4 L114.4 123.4 C114.4 123.4 114.4 123.4 114.4 123.4 L114.4 123.4 L114.4 123.4 C139.9 143.8 144.4 180.5 124.5 205.5 L124.5 205.5 C124.5 205.5 124.5 205.5 124.5 205.5 L124.5 205.5 L124.5 205.5 C104.5 230.5 67.7 234.3 42.2 213.9 L42.2 213.9 C42.2 213.9 42.2 213.9 42.2 213.9 L42.2 213.9 L42.2 213.9 C16.7 193.5 12.2 156.8 32.1 131.8 L32.1 131.8 C32.1 131.8 32.1 131.8 32.1 131.8 ZM42.8 140.3 L42.8 140.3 C27.6 159.4 31.1 187.5 50.7 203.2 L50.7 203.2 L50.7 203.2 C70.3 218.8 98.6 216.0 113.8 197.0 L113.8 197.0 C113.8 197.0 113.8 197.0 113.8 197.0 L113.8 197.0 L113.8 197.0 C129.0 177.9 125.4 149.8 105.9 134.1 L105.9 134.1 C105.9 134.1 105.9 134.1 105.9 134.1 L105.9 134.1 L105.9 134.1 C86.3 118.5 58.0 121.3 42.8 140.3 Z" class="df12_4"/></g><path d="M32.1 131.8 L32.1 131.8 C52.0 106.8 88.9 103.1 114.4 123.4 L114.4 123.4 C114.4 123.4 114.4 123.4 114.4 123.4 L114.4 123.4 L114.4 123.4 C139.9 143.8 144.4 180.5 124.5 205.5 L124.5 205.5 C124.5 205.5 124.5 205.5 124.5 205.5 L124.5 205.5 L124.5 205.5 C104.5 230.5 67.7 234.3 42.2 213.9 L42.2 213.9 C42.2 213.9 42.2 213.9 42.2 213.9 L42.2 213.9 L42.2 213.9 C16.7 193.5 12.2 156.8 32.1 131.8 L32.1 131.8 C32.1 131.8 32.1 131.8 32.1 131.8 Z" class="df12_5"/><path d="M42.8 140.3 L42.8 140.3 C27.6 159.4 31.1 187.5 50.7 203.2 L50.7 203.2 L50.7 203.2 C70.3 218.8 98.6 216.0 113.8 197.0 L113.8 197.0 C113.8 197.0 113.8 197.0 113.8 197.0 L113.8 197.0 L113.8 197.0 C129.0 177.9 125.4 149.8 105.9 134.1 L105.9 134.1 C105.9 134.1 105.9 134.1 105.9 134.1 L105.9 134.1 L105.9 134.1 C86.3 118.5 58.0 121.3 42.8 140.3 Z" class="df12_5"/><g clip-path="url(#12clip0)"><path d="M106.3 720.0 L960.0 720.0 L960.0 0.0 L106.3 0.0 Z" class="df12_6"/></g><image transform="matrix(0.48,0,0,-0.48,97.86667,720)"  width="35" height="1500" xlink:href="image/43482492461481112772301731068814621123414.png" /><image transform="matrix(0.477193,0,0,-0.4819649,107.4667,364.5333)"  width="19" height="19" xlink:href="image/192161354321116120280249225164246206115234221.png" /><g clip-path="url(#12clip0)"><path d="M106.5 720.0 L114.2 720.0 L114.2 0.0 L106.5 0.0 Z" class="df12_6"/></g><text class="ft12_8" y="197.9333" x="169.0933"></text><text class="ft12_9" y="197.9333" x="198.7333 228.9413 250.2747 273.8267 283.1707 301.8587 333.9733 355.3066 373.5253 389.952 410.6027 444.1334 462.8214 478.864 499.3867 521.232 530.576 556.44 572.952 591.64 608.1947 622.4027 642.84 687.4 696.7333 729.8 763.1227 798.3654 833.48 863.688">ChoicebasedcreditsysteminMOOCs</text><text class="ft12_10" y="257.16" x="202.7333">◦</text><text class="ft12_11" y="257.16" x="227.5333 247.0899 261.1809 282.5309 304.3933 324.8466 346.2821 400.36 419.0626 437.2955 499.0667 508.418 528.8713 547.1042 564.0134 625.2267 683.6667 700.1062 721.5416 742.8916 752.2429 772.6962 791.3989 845.56 856.235 871.9912 895.5616">Studentcanlearnasubjectfrom</text><text class="ft12_9" y="308.36" x="227.5333 245.752 266.2747 284.9627 306.296 329.848 351.6933 390.2267 422.2667 440.4854 461.008 479.696 510.3734 531.7067 552.3147 568.3573">anybody/anywhere</text><text class="ft12_12" y="308.36" x="628.6934 662.6 686.1 727.6667 757.8747 776.0934 808.8187 830.152 851.4854 888 911.5">(onCampusor</text><text class="ft12_12" y="359.6" x="227.5333 262.648 284.1093 293.4533 302.7973 324.1306 344.6533 358.5067">Online).</text><text class="ft12_10" y="418.8267" x="202.7333">◦</text><text class="ft12_11" y="418.8267" x="227.5333 248.8833 270.2333 288.4662 321.3879 330.6111 351.9612 370.1941 384.2851 393.6364 417.2068 480.4 511.1013 520.4526 529.804 580.9734 602.34 664.7333 683.436 707.0063 728.3564 750.4323 771.7823 790.485 804.704 825.1573 888.8 909.6327">Examinationwillbeconductedby</text><text class="ft12_9" y="470.0267" x="227.5333 244.0453 265.3787 286.712 296.056 316.6213 335.3093 360.8934 381.416 402.7494 424.0827 444.6907 462.2693 488.4 512.1334 522.8 544.1334 558.3414 578.7787 595.6747 617.0081 635.2267 656.4667 689.7893 710.3547 731.688 745.896 769.448">subjectexpert/InternalMentor</text><text class="ft12_12" y="470.0267" x="781.84">.</text><text class="ft12_10" y="529.2667" x="202.7333">◦</text><text class="ft12_13" y="529.2667" x="227.5333 257.765 273.7347 294.188 316.1786 325.5298 339.749">Credits</text><text class="ft12_11" y="529.2667" x="387.0267 417.728 427.0793 436.4306 476.6667 498.2993 549.7733 568.0062 577.3575 595.1635 615.6168 667.9333 688.3867 697.738 711.957 733.3071 753.8457 801.84 822.6727 872.5067 886.7258 908.0758">willbegiveneitherbythe</text><text class="ft12_12" y="580.4667" x="227.5333 248.8667 267.0853 284.664 298.872 308.216 326.904 336.248 357.5813 375.8 389.8373 399.1813 420.5146 520.4 550.608 571.9413 581.2853 599.1627 619.6853 636.5813 653.008 662.352 676.56 735.9333 759.4333 817.04 838.3734 856.592 872.592 893.1147 914.4481">participatingUniversityorparent</text><text class="ft12_12" y="631.7" x="227.5333 257.7413 279.0747 288.4187 306.296 326.8187 343.7147 360.1414 369.4854 383.6934 398.7733">University.</text><text class="ft12_14" y="73.89331" x="121.6333 147.4241 172.3182 189.6544 214.5486 232.8241 256.3945 267.7527 294.8672 319.7614 344.6555 367.3292 392.0097 413.3597 436.9301 477.6233 501.1937 525.8743 543.2104 561.4434">Future Enhancements </text><text class="ft12_15" y="73.89331" x="573.7733 590.2128 602.0834 638.1223 665.2368 692.3513 726.5967 730.824 757.5115 794.874 830.0161 858.924">( NEED YOUR </text><text class="ft12_16" y="125.1066" x="121.6333 149.9213 180.5987 211.276 238.3693 274.38 305.0573 319.2653 356.5986 392.6093 404.0439">ATTENTION )</text><text class="ft12_17" y="703.7333" x="920.6667 928.6667">13</text><style type="text/css"><![CDATA[@font-face{font-family:'ABCDEEWingdings202';src:url('font/ABCDEE$Wingdings202.woff') format('woff');}@font-face{font-family:'ABCDEEGill20Sans20MT';src:url('font/ABCDEE$Gill20Sans20MT.woff') format('woff');}@font-face{font-family:'ABCDEEVerdana';src:url('font/ABCDEE$Verdana.woff') format('woff');}@font-face{font-family:'ABCDEEGill20Sans20MTBold';src:url('font/ABCDEE$Gill20Sans20MT,Bold.woff') format('woff');} .df12_0{filter:url(#12filter0);fill-rule:evenodd;stroke:none;} .df12_1{fill:#FEFAF4;fill-opacity:0.3;fill-rule:evenodd;stroke:none;} .df12_2{stroke:#D2C39E;stroke-linejoin:round;stroke-miterlimit:10;fill:none;} .df12_3{stroke-width:2.15pt;stroke:#FFF6DB;stroke-linejoin:round;stroke-miterlimit:10;fill:none;} .df12_4{filter:url(#12filter1);fill-rule:evenodd;stroke:none;} .df12_5{stroke:#C7B791;stroke-linejoin:round;stroke-miterlimit:10;fill:none;} .df12_6{fill:#FFFFFF;fill-rule:evenodd;stroke:none;} .ft12_8{font-family:ABCDEEWingdings202,Arial;font-size:34.13334px;fill:#3891A7;} .ft12_9{font-family:ABCDEEGill20Sans20MT,Arial;font-size:42.66667px;fill:#000099;} .ft12_10{font-family:ABCDEEVerdana,Arial;font-size:42.7px;fill:#3891A7;} .ft12_11{font-family:ABCDEEGill20Sans20MT,Arial;font-size:42.7px;fill:#000000;} .ft12_12{font-family:ABCDEEGill20Sans20MT,Arial;font-size:42.66667px;fill:#000000;} .ft12_13{font-family:ABCDEEGill20Sans20MT,Arial;font-size:42.7px;fill:#000099;} .ft12_14{font-family:ABCDEEGill20Sans20MTBold,Arial;font-size:42.7px;fill:#0000FF;} .ft12_15{font-family:ABCDEEGill20Sans20MTBold,Arial;font-size:42.7px;fill:#FF0000;} .ft12_16{font-family:ABCDEEGill20Sans20MTBold,Arial;font-size:42.66667px;fill:#FF0000;} .ft12_17{font-family:ABCDEEGill20Sans20MT,Arial;font-size:16px;fill:#B5A788;} .ss0{stroke:#000000;}]]></style><defs><clipPath id="12clip0"><path clip-rule="evenodd" d="M0.0 720.0 L960.0 720.0 L960.0 0.0 L0.0 0.0 Z"/></clipPath><filter id="12filter0" primitiveUnits="objectBoundingBox"><feImage xlink:href="16495101125208971495413485382222241658240.png" x="0" y="0" width="0.00625" height="0.008333334" preserveAspectRatio="none" result="12filter0res"/><feTile x="0" y="0" width="1" height="1" in="12filter0res" /></filter><clipPath id="12clip1"><path clip-rule="evenodd" d="M32.1 131.8 L32.1 131.8 C52.0 106.8 88.9 103.1 114.4 123.4 L114.4 123.4 C114.4 123.4 114.4 123.4 114.4 123.4 L114.4 123.4 L114.4 123.4 C139.9 143.8 144.4 180.5 124.5 205.5 L124.5 205.5 C124.5 205.5 124.5 205.5 124.5 205.5 L124.5 205.5 L124.5 205.5 C104.5 230.5 67.7 234.3 42.2 213.9 L42.2 213.9 C42.2 213.9 42.2 213.9 42.2 213.9 L42.2 213.9 L42.2 213.9 C16.7 193.5 12.2 156.8 32.1 131.8 L32.1 131.8 C32.1 131.8 32.1 131.8 32.1 131.8 ZM42.8 140.3 L42.8 140.3 C27.6 159.4 31.1 187.5 50.7 203.2 L50.7 203.2 L50.7 203.2 C70.3 218.8 98.6 216.0 113.8 197.0 L113.8 197.0 C113.8 197.0 113.8 197.0 113.8 197.0 L113.8 197.0 L113.8 197.0 C129.0 177.9 125.4 149.8 105.9 134.1 L105.9 134.1 C105.9 134.1 105.9 134.1 105.9 134.1 L105.9 134.1 L105.9 134.1 C86.3 118.5 58.0 121.3 42.8 140.3 Z"/></clipPath><filter id="12filter1" primitiveUnits="objectBoundingBox"><feImage xlink:href="9111019103162149186191341401559591027237.png" x="0" y="0" width="1.043501" height="1.051829" preserveAspectRatio="none" result="12filter1res"/><feTile x="0" y="0" width="1" height="1" in="12filter1res" /></filter></defs>
</svg>