<?xml version="1.0" standalone="no"?><!DOCTYPE svg PUBLIC "-//W3C//DTD SVG 1.1//EN" "http://www.w3.org/Graphics/SVG/1.1/DTD/svg11.dtd"><!-- Created with RasterEdge (http://www.rasteredge.com/) -->
<!-- Product Page (http://www.rasteredge.com/demo/online-document-viewer/) -->
<svg width="10in" height="7.5in" version="1.1" xmlns="http://www.w3.org/2000/svg" xmlns:xlink="http://www.w3.org/1999/xlink" >
<g clip-path="url(#13clip0)"><path d="M0.0 720.0 L960.0 720.0 L960.0 0.0 L0.0 0.0 Z" class="df13_0"/></g><path d="M86.3 0.3 L86.3 0.3 C86.3 47.8 47.8 86.3 0.3 86.3 L0.3 86.3 C0.3 86.3 0.3 86.3 0.3 86.3 L0.3 86.3 L0.3 0.3 Z" class="df13_1"/><g clip-path="url(#13clip0)"><path d="M86.3 0.3 L86.3 0.3 C86.3 47.8 47.8 86.3 0.3 86.3 L0.3 86.3 C0.3 86.3 0.3 86.3 0.3 86.3 L0.3 86.3 L0.3 0.3 Z" class="df13_2"/></g><image transform="matrix(0.4794544,0,0,-0.4794544,13.33333,188)"  width="391" height="391" xlink:href="image/1766318914423613714013312342151061109132116.png" /><image transform="matrix(0.4888889,0,0,-0.4937778,104.2667,97.06665)"  width="12" height="12" xlink:href="image/70608211892715831104235340517055104.png" /><path d="M17.7 91.6 L17.7 91.6 C17.7 42.2 57.7 2.2 107.1 2.2 L107.1 2.2 C107.1 2.2 107.1 2.2 107.1 2.2 L107.1 2.2 L107.1 2.2 C156.5 2.2 196.5 42.2 196.5 91.6 L196.5 91.6 C196.5 91.6 196.5 91.6 196.5 91.6 L196.5 91.6 L196.5 91.6 C196.5 141.0 156.5 181.0 107.1 181.0 L107.1 181.0 C107.1 181.0 107.1 181.0 107.1 181.0 L107.1 181.0 L107.1 181.0 C57.7 181.0 17.7 141.0 17.7 91.6 L17.7 91.6 C17.7 91.6 17.7 91.6 17.7 91.6 Z" class="df13_3"/><image transform="matrix(0.4806324,0,0,-0.4804233,17.86667,230.6667)"  width="253" height="252" xlink:href="image/7643183110222524916324424350239193189177197.png" /><image transform="matrix(0.4571429,0,0,-0.4617143,77.06667,171.7333)"  width="7" height="7" xlink:href="image/101796716911614318884918410494024812452.png" /><g clip-path="url(#13clip1)"><path d="M32.1 131.8 L32.1 131.8 C52.0 106.8 88.9 103.1 114.4 123.4 L114.4 123.4 C114.4 123.4 114.4 123.4 114.4 123.4 L114.4 123.4 L114.4 123.4 C139.9 143.8 144.4 180.5 124.5 205.5 L124.5 205.5 C124.5 205.5 124.5 205.5 124.5 205.5 L124.5 205.5 L124.5 205.5 C104.5 230.5 67.7 234.3 42.2 213.9 L42.2 213.9 C42.2 213.9 42.2 213.9 42.2 213.9 L42.2 213.9 L42.2 213.9 C16.7 193.5 12.2 156.8 32.1 131.8 L32.1 131.8 C32.1 131.8 32.1 131.8 32.1 131.8 ZM42.8 140.3 L42.8 140.3 C27.6 159.4 31.1 187.5 50.7 203.2 L50.7 203.2 L50.7 203.2 C70.3 218.8 98.6 216.0 113.8 197.0 L113.8 197.0 C113.8 197.0 113.8 197.0 113.8 197.0 L113.8 197.0 L113.8 197.0 C129.0 177.9 125.4 149.8 105.9 134.1 L105.9 134.1 C105.9 134.1 105.9 134.1 105.9 134.1 L105.9 134.1 L105.9 134.1 C86.3 118.5 58.0 121.3 42.8 140.3 Z" class="df13_4"/></g><path d="M32.1 131.8 L32.1 131.8 C52.0 106.8 88.9 103.1 114.4 123.4 L114.4 123.4 C114.4 123.4 114.4 123.4 114.4 123.4 L114.4 123.4 L114.4 123.4 C139.9 143.8 144.4 180.5 124.5 205.5 L124.5 205.5 C124.5 205.5 124.5 205.5 124.5 205.5 L124.5 205.5 L124.5 205.5 C104.5 230.5 67.7 234.3 42.2 213.9 L42.2 213.9 C42.2 213.9 42.2 213.9 42.2 213.9 L42.2 213.9 L42.2 213.9 C16.7 193.5 12.2 156.8 32.1 131.8 L32.1 131.8 C32.1 131.8 32.1 131.8 32.1 131.8 Z" class="df13_5"/><path d="M42.8 140.3 L42.8 140.3 C27.6 159.4 31.1 187.5 50.7 203.2 L50.7 203.2 L50.7 203.2 C70.3 218.8 98.6 216.0 113.8 197.0 L113.8 197.0 C113.8 197.0 113.8 197.0 113.8 197.0 L113.8 197.0 L113.8 197.0 C129.0 177.9 125.4 149.8 105.9 134.1 L105.9 134.1 C105.9 134.1 105.9 134.1 105.9 134.1 L105.9 134.1 L105.9 134.1 C86.3 118.5 58.0 121.3 42.8 140.3 Z" class="df13_5"/><g clip-path="url(#13clip0)"><path d="M106.3 720.0 L960.0 720.0 L960.0 0.0 L106.3 0.0 Z" class="df13_6"/></g><image transform="matrix(0.48,0,0,-0.48,97.86667,720)"  width="35" height="1500" xlink:href="image/43482492461481112772301731068814621123414.png" /><image transform="matrix(0.477193,0,0,-0.4819649,107.4667,364.5333)"  width="19" height="19" xlink:href="image/192161354321116120280249225164246206115234221.png" /><g clip-path="url(#13clip0)"><path d="M106.5 720.0 L114.2 720.0 L114.2 0.0 L106.5 0.0 Z" class="df13_6"/></g><text class="ft13_8" y="115.2267" x="122.4333"></text><text class="ft13_9" y="115.2267" x="152.0267 172.3067 186.9867 208.8667 226.3867 235.1467 255.5467 264.3067 284.3067 318.5067 349.3467 371.5467 386.4667">Providingmore</text><text class="ft13_10" y="115.2267" x="422.2667 431.0267 439.7867 456.6667 492.9333 510.4534 519.2134 539.6134 558.7734 597.7733 606.5333 625.6934 643.3334 656.6533 676.6533 691.3334 710.4933">livevideolectures</text><text class="ft13_9" y="115.2267" x="743.1333 761.5333 778.3334 797.4933 834.3734 843.9734 866.0534">evenfor</text><text class="ft13_11" y="163.2667" x="152.0267 173.6447 206.4319 226.4486 245.1042 264.7205 280.8667 310.4913 334.6715 354.6882 370.7733 400.398 423.0569 447.237 467.2537 483.3333 512.958 537.1382 557.1548 573.2267 604.4927 624.5094 643.6454 659.4 688.7043 711.3632 758.1067 777.2827 790.6138 809.04">TOEFL,GRE,GATE,GRE,NET,CATetc.</text><text class="ft13_8" y="219.2667" x="122.4333"></text><text class="ft13_9" y="219.2667" x="152.0267 172.3067 186.9867 208.8667 226.3867 235.1467 255.5467 264.3067 284.3067 333.9733 349.3734 371.2933 402.1334">Providingsome</text><text class="ft13_10" y="219.2667" x="453.7333 462.4933 471.2534 488.1334 539.8934 555.2933 574.2933 589.6934 605.1733 613.9333 636.0133 655.8533">livesessions</text><text class="ft13_9" y="219.2667" x="703.6667 725.8 778.3734 795.8934 812.9734 827.9734 847.1334 866.2934">oncareer</text><text class="ft13_9" y="267.3067" x="152.0267 169.1067 189.1067 197.8667 218.2667 235.2267 255.2267 272.7467 302.7733 318.7733 338.7733 347.5333 364.6133 382.1334 401.4133 432.2534 451.4933 471.4933 495.8667 509.1866 525.0267 542.1067 550.8667 570.8667 579.6267 599.6267 616.6934">guidance,placementtraining.</text><text class="ft13_8" y="323.3333" x="122.4333"></text><text class="ft13_11" y="323.3333" x="152.0267 172.2835 181.0508 198.1451 215.6797 234.8556 265.8414 285.0174 305.0341 331.0267 353.1251 368.9783 377.7456 396.9216 416.9382 430.2693 449.4453 482.5333 504.6317 524.6484 533.4157 542.183 562.1997 594.3067 611.6411 633.7395 653.7562 667.0873 686.0231 706.0397 745 773.7839 782.5513 795.8824">Placementorientedonlinecontentwith</text><text class="ft13_12" y="323.3333" x="828.7734 857.8401">HR</text><text class="ft13_10" y="371.3333" x="152.0267 162.1067 182.1067 195.4267 214.5867 230.4267 247.5067 265.0267 278.3467 287.1067 309.1867">Interaction</text><text class="ft13_9" y="371.3333" x="340.1067 355.5067 374.6667 390.1866 405.5866 414.3466 436.5466 456.5466 472.1334">sessions.</text><text class="ft13_13" y="427.36" x="122.4333"></text><text class="ft13_11" y="427.36" x="152.0267 170.3619 189.5379 205.0708 220.4837 229.0909 251.1893 271.2059 299.0267 321.16 353.44 362.2073 379.3015 392.6326 411.5684 426.9813 452.9333 466.2645 485.4404 502.975 522.9917 542.8082 564.9066 573.674 595.6122 612.7064 621.4738 640.6497 668.4667 685.5333 705.5224 750.8667 779.2103 799.227 814.5998 829.5322 848.7082 868.7249">SessionsonlatesttechnologiesandCurrent</text><text class="ft13_9" y="475.36" x="152.0267 165.3467 180.3067 199.4667 219.4667 239.8667 268.8667 277.6667 311.3067 324.6267 343.7867 361.3867 381.3867 401.1067 422.9867 431.7467 453.8267 471.7467">trendsintechnology</text><text class="ft13_10" y="475.36" x="503.0667 522.7867 541.4667 557.9867 580.0667 600.0667">beyond</text><text class="ft13_9" y="475.36" x="634.0267 650.8267 668.3467 685.2267 705.5066 724.6666 755.5866 764.3466 781.8666 811.1733 839.9333 848.6934 862.0134">academicswith</text><text class="ft13_12" y="523.4" x="152.0267 160.794 180.8106 201.1075 221.1242 236.537 249.8681 266.6821 295.3067 314.4826 334.4993 354.516 373.692 390.1857 403.5168 419.0667">industryexperts.</text><text class="ft13_8" y="579.4" x="122.4333"></text><text class="ft13_10" y="579.4" x="152.0267 181.1867 189.9467 207.0267 227.0267 246.1867 299.5733 318.7333 339.1333 359.1333 376.6533 393.7333 407.0533 415.8133 437.8933 495.6 512.6801 532.6801 541.4401 561.84 578.8 598.52 616.04 672.7333 689.8134 709.8134 767.7067 796.0267 813.1067 827.9868 847.1467 866.3068">HighereducationguidanceandCareer</text><text class="ft13_10" y="627.4333" x="152.0267 182.1067 200.7867 217.5867 236.7466 245.3067 267.3867 287.3867 318.3467 337.5067 357.5067">Development</text><text class="ft13_9" y="627.4333" x="406.2267 426.2267 440.9067 462.9867 480.0667 495.9067 512.9867 543.8267 630.0267 639.9067 661.9867 713 723.08 731.84 751.84 768.92 813.2933 830.0934 849.2534 866.3334">programsforfinalyear</text><text class="ft13_11" y="675.4333" x="152.0267 167.4395 180.7706 200.7873 221.2043 240.3802 260.3969 273.728 299.84 319.574">studentsby</text><text class="ft13_12" y="675.4333" x="348.1067 367.2827 387.2993 407.316 426.492 442.9857 456.3168 483.0667 500.1609 514.8131 536.9115 556.9282 576.9448 608.44 621.7711 641.7878 671.9333 689.0276 697.7949 719.8933 739.91">expertsaroundtheglobe</text><text class="ft13_11" y="675.4333" x="759.96">.</text><text class="ft13_14" y="33.8667" x="121.6333 147.404 172.2787 189.6013 214.476 232.8227 256.3747 267.7667 294.86 319.7347 344.6093 367.2654 392.14 413.4734 436.8547 477.7294 501.1107 525.9854 543.3081 561.3987">Future Enhancements </text><text class="ft13_15" y="33.8667" x="573.7733 590.2 602.0613 638.072 665.1653 692.3867 726.6053 730.7866 757.4533 794.7866 829.9013 858.7866">( NEED YOUR </text><text class="ft13_15" y="85.10663" x="121.6333 149.9213 180.5987 211.276 238.3693 274.38 305.0573 319.2653 356.5986 392.6093 404.0439">ATTENTION )</text><text class="ft13_16" y="703.7333" x="920.6667 928.6667">14</text><style type="text/css"><![CDATA[@font-face{font-family:'ABCDEEWingdings202';src:url('font/ABCDEE$Wingdings202.woff') format('woff');}@font-face{font-family:'ABCDEEGill20Sans20MT';src:url('font/ABCDEE$Gill20Sans20MT.woff') format('woff');}@font-face{font-family:'ABCDEEGill20Sans20MTBold';src:url('font/ABCDEE$Gill20Sans20MT,Bold.woff') format('woff');} .df13_0{filter:url(#13filter0);fill-rule:evenodd;stroke:none;} .df13_1{fill:#FEFAF4;fill-opacity:0.3;fill-rule:evenodd;stroke:none;} .df13_2{stroke:#D2C39E;stroke-linejoin:round;stroke-miterlimit:10;fill:none;} .df13_3{stroke-width:2.15pt;stroke:#FFF6DB;stroke-linejoin:round;stroke-miterlimit:10;fill:none;} .df13_4{filter:url(#13filter1);fill-rule:evenodd;stroke:none;} .df13_5{stroke:#C7B791;stroke-linejoin:round;stroke-miterlimit:10;fill:none;} .df13_6{fill:#FFFFFF;fill-rule:evenodd;stroke:none;} .ft13_8{font-family:ABCDEEWingdings202,Arial;font-size:32px;fill:#3891A7;} .ft13_9{font-family:ABCDEEGill20Sans20MT,Arial;font-size:40px;fill:#000000;} .ft13_10{font-family:ABCDEEGill20Sans20MT,Arial;font-size:40px;fill:#000099;} .ft13_11{font-family:ABCDEEGill20Sans20MT,Arial;font-size:40.03333px;fill:#000000;} .ft13_12{font-family:ABCDEEGill20Sans20MT,Arial;font-size:40.03333px;fill:#000099;} .ft13_13{font-family:ABCDEEWingdings202,Arial;font-size:32.03333px;fill:#3891A7;} .ft13_14{font-family:ABCDEEGill20Sans20MTBold,Arial;font-size:42.66667px;fill:#0000FF;} .ft13_15{font-family:ABCDEEGill20Sans20MTBold,Arial;font-size:42.66667px;fill:#FF0000;} .ft13_16{font-family:ABCDEEGill20Sans20MT,Arial;font-size:16px;fill:#B5A788;} .ss0{stroke:#000000;}]]></style><defs><clipPath id="13clip0"><path clip-rule="evenodd" d="M0.0 720.0 L960.0 720.0 L960.0 0.0 L0.0 0.0 Z"/></clipPath><filter id="13filter0" primitiveUnits="objectBoundingBox"><feImage xlink:href="16495101125208971495413485382222241658240.png" x="0" y="0" width="0.00625" height="0.008333334" preserveAspectRatio="none" result="13filter0res"/><feTile x="0" y="0" width="1" height="1" in="13filter0res" /></filter><clipPath id="13clip1"><path clip-rule="evenodd" d="M32.1 131.8 L32.1 131.8 C52.0 106.8 88.9 103.1 114.4 123.4 L114.4 123.4 C114.4 123.4 114.4 123.4 114.4 123.4 L114.4 123.4 L114.4 123.4 C139.9 143.8 144.4 180.5 124.5 205.5 L124.5 205.5 C124.5 205.5 124.5 205.5 124.5 205.5 L124.5 205.5 L124.5 205.5 C104.5 230.5 67.7 234.3 42.2 213.9 L42.2 213.9 C42.2 213.9 42.2 213.9 42.2 213.9 L42.2 213.9 L42.2 213.9 C16.7 193.5 12.2 156.8 32.1 131.8 L32.1 131.8 C32.1 131.8 32.1 131.8 32.1 131.8 ZM42.8 140.3 L42.8 140.3 C27.6 159.4 31.1 187.5 50.7 203.2 L50.7 203.2 L50.7 203.2 C70.3 218.8 98.6 216.0 113.8 197.0 L113.8 197.0 C113.8 197.0 113.8 197.0 113.8 197.0 L113.8 197.0 L113.8 197.0 C129.0 177.9 125.4 149.8 105.9 134.1 L105.9 134.1 C105.9 134.1 105.9 134.1 105.9 134.1 L105.9 134.1 L105.9 134.1 C86.3 118.5 58.0 121.3 42.8 140.3 Z"/></clipPath><filter id="13filter1" primitiveUnits="objectBoundingBox"><feImage xlink:href="9111019103162149186191341401559591027237.png" x="0" y="0" width="1.043501" height="1.051829" preserveAspectRatio="none" result="13filter1res"/><feTile x="0" y="0" width="1" height="1" in="13filter1res" /></filter></defs>
</svg>