<?xml version="1.0" standalone="no"?><!DOCTYPE svg PUBLIC "-//W3C//DTD SVG 1.1//EN" "http://www.w3.org/Graphics/SVG/1.1/DTD/svg11.dtd"><!-- Created with RasterEdge (http://www.rasteredge.com/) -->
<!-- Product Page (http://www.rasteredge.com/demo/online-document-viewer/) -->
<svg width="10in" height="7.5in" version="1.1" xmlns="http://www.w3.org/2000/svg" xmlns:xlink="http://www.w3.org/1999/xlink" >
<g clip-path="url(#14clip0)"><path d="M0.0 720.0 L960.0 720.0 L960.0 0.0 L0.0 0.0 Z" class="df14_0"/></g><path d="M86.3 0.3 L86.3 0.3 C86.3 47.8 47.8 86.3 0.3 86.3 L0.3 86.3 C0.3 86.3 0.3 86.3 0.3 86.3 L0.3 86.3 L0.3 0.3 Z" class="df14_1"/><g clip-path="url(#14clip0)"><path d="M86.3 0.3 L86.3 0.3 C86.3 47.8 47.8 86.3 0.3 86.3 L0.3 86.3 C0.3 86.3 0.3 86.3 0.3 86.3 L0.3 86.3 L0.3 0.3 Z" class="df14_2"/></g><image transform="matrix(0.4794544,0,0,-0.4794544,13.33333,188)"  width="391" height="391" xlink:href="image/1766318914423613714013312342151061109132116.png" /><image transform="matrix(0.4888889,0,0,-0.4937778,104.2667,97.06665)"  width="12" height="12" xlink:href="image/70608211892715831104235340517055104.png" /><path d="M17.7 91.6 L17.7 91.6 C17.7 42.2 57.7 2.2 107.1 2.2 L107.1 2.2 C107.1 2.2 107.1 2.2 107.1 2.2 L107.1 2.2 L107.1 2.2 C156.5 2.2 196.5 42.2 196.5 91.6 L196.5 91.6 C196.5 91.6 196.5 91.6 196.5 91.6 L196.5 91.6 L196.5 91.6 C196.5 141.0 156.5 181.0 107.1 181.0 L107.1 181.0 C107.1 181.0 107.1 181.0 107.1 181.0 L107.1 181.0 L107.1 181.0 C57.7 181.0 17.7 141.0 17.7 91.6 L17.7 91.6 C17.7 91.6 17.7 91.6 17.7 91.6 Z" class="df14_3"/><image transform="matrix(0.4806324,0,0,-0.4804233,17.86667,230.6667)"  width="253" height="252" xlink:href="image/7643183110222524916324424350239193189177197.png" /><image transform="matrix(0.4571429,0,0,-0.4617143,77.06667,171.7333)"  width="7" height="7" xlink:href="image/101796716911614318884918410494024812452.png" /><g clip-path="url(#14clip1)"><path d="M32.1 131.8 L32.1 131.8 C52.0 106.8 88.9 103.1 114.4 123.4 L114.4 123.4 C114.4 123.4 114.4 123.4 114.4 123.4 L114.4 123.4 L114.4 123.4 C139.9 143.8 144.4 180.5 124.5 205.5 L124.5 205.5 C124.5 205.5 124.5 205.5 124.5 205.5 L124.5 205.5 L124.5 205.5 C104.5 230.5 67.7 234.3 42.2 213.9 L42.2 213.9 C42.2 213.9 42.2 213.9 42.2 213.9 L42.2 213.9 L42.2 213.9 C16.7 193.5 12.2 156.8 32.1 131.8 L32.1 131.8 C32.1 131.8 32.1 131.8 32.1 131.8 ZM42.8 140.3 L42.8 140.3 C27.6 159.4 31.1 187.5 50.7 203.2 L50.7 203.2 L50.7 203.2 C70.3 218.8 98.6 216.0 113.8 197.0 L113.8 197.0 C113.8 197.0 113.8 197.0 113.8 197.0 L113.8 197.0 L113.8 197.0 C129.0 177.9 125.4 149.8 105.9 134.1 L105.9 134.1 C105.9 134.1 105.9 134.1 105.9 134.1 L105.9 134.1 L105.9 134.1 C86.3 118.5 58.0 121.3 42.8 140.3 Z" class="df14_4"/></g><path d="M32.1 131.8 L32.1 131.8 C52.0 106.8 88.9 103.1 114.4 123.4 L114.4 123.4 C114.4 123.4 114.4 123.4 114.4 123.4 L114.4 123.4 L114.4 123.4 C139.9 143.8 144.4 180.5 124.5 205.5 L124.5 205.5 C124.5 205.5 124.5 205.5 124.5 205.5 L124.5 205.5 L124.5 205.5 C104.5 230.5 67.7 234.3 42.2 213.9 L42.2 213.9 C42.2 213.9 42.2 213.9 42.2 213.9 L42.2 213.9 L42.2 213.9 C16.7 193.5 12.2 156.8 32.1 131.8 L32.1 131.8 C32.1 131.8 32.1 131.8 32.1 131.8 Z" class="df14_5"/><path d="M42.8 140.3 L42.8 140.3 C27.6 159.4 31.1 187.5 50.7 203.2 L50.7 203.2 L50.7 203.2 C70.3 218.8 98.6 216.0 113.8 197.0 L113.8 197.0 C113.8 197.0 113.8 197.0 113.8 197.0 L113.8 197.0 L113.8 197.0 C129.0 177.9 125.4 149.8 105.9 134.1 L105.9 134.1 C105.9 134.1 105.9 134.1 105.9 134.1 L105.9 134.1 L105.9 134.1 C86.3 118.5 58.0 121.3 42.8 140.3 Z" class="df14_5"/><g clip-path="url(#14clip0)"><path d="M106.3 720.0 L960.0 720.0 L960.0 0.0 L106.3 0.0 Z" class="df14_6"/></g><image transform="matrix(0.48,0,0,-0.48,97.86667,720)"  width="35" height="1500" xlink:href="image/43482492461481112772301731068814621123414.png" /><image transform="matrix(0.477193,0,0,-0.4819649,107.4667,364.5333)"  width="19" height="19" xlink:href="image/192161354321116120280249225164246206115234221.png" /><g clip-path="url(#14clip0)"><path d="M106.5 720.0 L114.2 720.0 L114.2 0.0 L106.5 0.0 Z" class="df14_6"/></g><text class="ft14_8" y="171.2667" x="138.4267"></text><text class="ft14_9" y="171.2667" x="168.0267 196.3467 216.3467 231.7467 245.0667 267.1467 298.1067 306.8667 323.5467 342.7067">Customized</text><text class="ft14_10" y="171.2667" x="397.1733 417.2 430 449.68 468.84 485.92 501.76 521.76 530.52 550.52 601.7733 634.5734 654.5734 663.3334 672.0934 692.0934 745.5334 763.6533 785.7333 807.8134 850.3734 860.2534 882.3334">E-LearningOnlineToolfor</text><text class="ft14_10" y="219.2667" x="168.0267 178.1067 209.3466 233.5066 261.8267 288.0667 311.84 320.6 329.36 347.56 372.8934 411.0134 430.1733 461.2 481.2 501.2 514">JNTUK(likeWebEx).</text><text class="ft14_8" y="275.3067" x="138.4267"></text><text class="ft14_10" y="275.3067" x="168.0267 200.8267 210.9067 220.7867 239.9467 255.7867 264.5467 284.5467">Offering</text><text class="ft14_11" y="275.3067" x="336.9067 369.7067 389.7067 398.4667 407.2267 427.2267 464.1334 492.4533 511.6133 528.0934 541.4133 550.1733 560.3334 569.0934 586.6134 603.6934 617.0134 625.8934 647.9734">OnlineCertification</text><text class="ft14_10" y="275.3067" x="685.5334 702.6134 722.6134">and</text><text class="ft14_11" y="275.3067" x="760.5067 790.5867 799.3467 819.3467 828.1067 850.2667 880.9467">Diploma</text><text class="ft14_12" y="323.3333" x="168.0267 196.3703 218.4687 238.4853 254.1784 269.5912 288.7672 304.36">Courses.</text><text class="ft14_8" y="379.3333" x="138.4267"></text><text class="ft14_10" y="379.3333" x="168.0267 199.2667 216.3467 235.5067 244.2667 264.2667 297.9733 308.0533 339.2933 363.4533 391.7733 434.2667 465.5067 498.2667 531.3067 559.6267 591.64 613.7734 650.3334 670.3334 687.4133 719.6667 748.4267 757.1867 770.5067 807.1733 829.2534 842.5734 862.5734 881.7333">MakingJNTUKMOOCsonparwithother</text><text class="ft14_13" y="427.36" x="168.0267 185.5613 207.6597 238.6455 269.5112 288.6871 303.4594 320.994 329.7614 346.8556 366.2267 397.4927 430.24 463.0273 491.3709 521.4667 538.5333 558.5224">commercialMOOCSand</text><text class="ft14_14" y="427.36" x="590.0267 607.1209 626.2969 646.3136 665.4896 681.3428 698.2768 711.6079 741.8 756.7324 775.3879 792.2019 811.3779 831.1543 851.171 871.1733">generaterevenue.</text><text class="ft14_8" y="483.36" x="138.4267"></text><text class="ft14_10" y="483.36" x="168.0267 196.3467 218.4267 238.4267 258.7067 278.7067 296.2267 309.5467 318.3867 340.4667 420.6667 442.8 512.9333 532.9734 545.7733 554.5333 573.6934 590.7733 606.6133 626.6133 635.3734 655.3734 732.4667 748.1866 776.9467 794.0266 808.9867 828.1467 848.1467 867.3066 882.7067">ConductionofE-learningawareness</text><text class="ft14_13" y="531.4" x="168.0267 188.0433 202.6955 224.7939 241.8882 257.7413 274.7155 305.5812 336.5269 355.7029 387.0267 409.16 444.9333 465.1902 473.9575 484.086 493.694 512.87 527.8424 547.0184 567.0351 596.44 616.4567 636.7136 656.7333 669.5333 687.6685 706.8444 724.379 760.2267 778.642 800.5001 822.5985 831.3658 862.8933 875.9604">programmesondifferentEdu-TechToolsto</text><text class="ft14_10" y="579.4" x="168.0267 198.8667 215.9467 234.1467 264.0667 281.5867 290.3467 307.4267 322.9467 349.1733 363.8534 385.9333 408.0134 450 463.32 482.48 499.56 517.08 537.08 545.96 565.96 594.0267 614.0267 633.1866 646.5067 659.8267 678.9866 690.8667">makeclassroomteachingbetter.</text><text class="ft14_8" y="635.4333" x="138.4267"></text><text class="ft14_10" y="635.4333" x="168.0267 186.3467 199.6667 214.7067 233.8667 250.9467 281.7867 290.6667 310.6667 365.1733 387.3067 434.8 443.56 452.32 469.2 526.0267 543.5467 552.3067 569.2267 584.6267 600.1067 619.0267 672.2 681 738.3334 758.3334 771.1733 779.9333 799.0934 816.1733 832.0134 852.0134 860.7734 880.7734">StreamingofliveclassesinE-learning</text><text class="ft14_13" y="683.4667" x="168.0267 206.1784 225.3544 245.3711 260.7839 269.5512 282.8823 312.9067 335.04 355.84 374.4955 396.5939 416.6106 435.3062 455.3228 475.3395 495.3333">WebsiteorYouTube.</text><text class="ft14_15" y="49.89331" x="145.6267 171.4175 196.3116 213.6478 238.5419 256.8175 280.3879 291.7461 318.8606 343.7547 368.6488 391.3225 416.0031 437.3531 460.9235 501.6166 525.187 549.8676 567.2037 585.4366">Future Enhancements </text><text class="ft14_16" y="49.89331" x="597.7733 614.2128 626.0834 662.1223 689.2368 716.3513 750.5967 754.9094 781.5969 818.9594 854.1015 883.0094">( NEED YOUR </text><text class="ft14_17" y="101.1066" x="145.6267 173.9147 204.592 235.2693 262.4907 298.5013 329.1786 343.3867 380.72 416.7307 428.208">ATTENTION )</text><text class="ft14_18" y="703.7333" x="920.6667 928.6667">15</text><style type="text/css"><![CDATA[@font-face{font-family:'ABCDEEWingdings202';src:url('font/ABCDEE$Wingdings202.woff') format('woff');}@font-face{font-family:'ABCDEEGill20Sans20MT';src:url('font/ABCDEE$Gill20Sans20MT.woff') format('woff');}@font-face{font-family:'ABCDEEGill20Sans20MTBold';src:url('font/ABCDEE$Gill20Sans20MT,Bold.woff') format('woff');} .df14_0{filter:url(#14filter0);fill-rule:evenodd;stroke:none;} .df14_1{fill:#FEFAF4;fill-opacity:0.3;fill-rule:evenodd;stroke:none;} .df14_2{stroke:#D2C39E;stroke-linejoin:round;stroke-miterlimit:10;fill:none;} .df14_3{stroke-width:2.15pt;stroke:#FFF6DB;stroke-linejoin:round;stroke-miterlimit:10;fill:none;} .df14_4{filter:url(#14filter1);fill-rule:evenodd;stroke:none;} .df14_5{stroke:#C7B791;stroke-linejoin:round;stroke-miterlimit:10;fill:none;} .df14_6{fill:#FFFFFF;fill-rule:evenodd;stroke:none;} .ft14_8{font-family:ABCDEEWingdings202,Arial;font-size:32px;fill:#3891A7;} .ft14_9{font-family:ABCDEEGill20Sans20MT,Arial;font-size:40px;fill:#0000FF;} .ft14_10{font-family:ABCDEEGill20Sans20MT,Arial;font-size:40px;fill:#000000;} .ft14_11{font-family:ABCDEEGill20Sans20MT,Arial;font-size:40px;fill:#000099;} .ft14_12{font-family:ABCDEEGill20Sans20MT,Arial;font-size:40.03333px;fill:#000099;} .ft14_13{font-family:ABCDEEGill20Sans20MT,Arial;font-size:40.03333px;fill:#000000;} .ft14_14{font-family:ABCDEEGill20Sans20MT,Arial;font-size:40.03333px;fill:#0000FF;} .ft14_15{font-family:ABCDEEGill20Sans20MTBold,Arial;font-size:42.7px;fill:#0000FF;} .ft14_16{font-family:ABCDEEGill20Sans20MTBold,Arial;font-size:42.7px;fill:#FF0000;} .ft14_17{font-family:ABCDEEGill20Sans20MTBold,Arial;font-size:42.66667px;fill:#FF0000;} .ft14_18{font-family:ABCDEEGill20Sans20MT,Arial;font-size:16px;fill:#B5A788;} .ss0{stroke:#000000;}]]></style><defs><clipPath id="14clip0"><path clip-rule="evenodd" d="M0.0 720.0 L960.0 720.0 L960.0 0.0 L0.0 0.0 Z"/></clipPath><filter id="14filter0" primitiveUnits="objectBoundingBox"><feImage xlink:href="16495101125208971495413485382222241658240.png" x="0" y="0" width="0.00625" height="0.008333334" preserveAspectRatio="none" result="14filter0res"/><feTile x="0" y="0" width="1" height="1" in="14filter0res" /></filter><clipPath id="14clip1"><path clip-rule="evenodd" d="M32.1 131.8 L32.1 131.8 C52.0 106.8 88.9 103.1 114.4 123.4 L114.4 123.4 C114.4 123.4 114.4 123.4 114.4 123.4 L114.4 123.4 L114.4 123.4 C139.9 143.8 144.4 180.5 124.5 205.5 L124.5 205.5 C124.5 205.5 124.5 205.5 124.5 205.5 L124.5 205.5 L124.5 205.5 C104.5 230.5 67.7 234.3 42.2 213.9 L42.2 213.9 C42.2 213.9 42.2 213.9 42.2 213.9 L42.2 213.9 L42.2 213.9 C16.7 193.5 12.2 156.8 32.1 131.8 L32.1 131.8 C32.1 131.8 32.1 131.8 32.1 131.8 ZM42.8 140.3 L42.8 140.3 C27.6 159.4 31.1 187.5 50.7 203.2 L50.7 203.2 L50.7 203.2 C70.3 218.8 98.6 216.0 113.8 197.0 L113.8 197.0 C113.8 197.0 113.8 197.0 113.8 197.0 L113.8 197.0 L113.8 197.0 C129.0 177.9 125.4 149.8 105.9 134.1 L105.9 134.1 C105.9 134.1 105.9 134.1 105.9 134.1 L105.9 134.1 L105.9 134.1 C86.3 118.5 58.0 121.3 42.8 140.3 Z"/></clipPath><filter id="14filter1" primitiveUnits="objectBoundingBox"><feImage xlink:href="9111019103162149186191341401559591027237.png" x="0" y="0" width="1.043501" height="1.051829" preserveAspectRatio="none" result="14filter1res"/><feTile x="0" y="0" width="1" height="1" in="14filter1res" /></filter></defs>
</svg>