<?xml version="1.0" standalone="no"?><!DOCTYPE svg PUBLIC "-//W3C//DTD SVG 1.1//EN" "http://www.w3.org/Graphics/SVG/1.1/DTD/svg11.dtd"><!-- Created with RasterEdge (http://www.rasteredge.com/) -->
<!-- Product Page (http://www.rasteredge.com/demo/online-document-viewer/) -->
<svg width="10in" height="7.5in" version="1.1" xmlns="http://www.w3.org/2000/svg" xmlns:xlink="http://www.w3.org/1999/xlink" >
<g clip-path="url(#15clip0)"><path d="M0.0 720.0 L960.0 720.0 L960.0 0.0 L0.0 0.0 Z" class="df15_0"/></g><g clip-path="url(#15clip0)"><path d="M106.5 720.0 L960.0 720.0 L960.0 0.0 L106.5 0.0 Z" class="df15_1"/></g><image transform="matrix(0.48,0,0,-0.48,97.86667,720)"  width="35" height="1500" xlink:href="image/43482492461481112772301731068814621123414.png" /><image transform="matrix(0.477193,0,0,-0.4819649,107.4667,364.5333)"  width="19" height="19" xlink:href="image/192161354321116120280249225164246206115234221.png" /><g clip-path="url(#15clip0)"><path d="M106.5 720.0 L114.2 720.0 L114.2 0.0 L106.5 0.0 Z" class="df15_1"/></g><g clip-path="url(#15clip1)"><image transform="matrix(0.479939,0,0,-0.4798785,96.53334,333.8666)"  width="1748" height="439" xlink:href="image/11201153237163301326726120192311748936.png" /></g><g clip-path="url(#15clip1)"><image transform="matrix(0.4801133,0,0,-0.4798952,55.46667,326.4)"  width="1884" height="509" xlink:href="image/121138902142284220118437229122206231412927.png" /></g><g clip-path="url(#15clip2)"><path d="M104.0 323.5 L928.0 323.5 L928.0 128.0 L104.0 128.0 Z" class="df15_2"/></g><path d="M386.0 241.0 L386.0 241.0 C380.0 244.6 375.5 248.4 372.5 252.4 L372.5 252.4 C370.6 255.1 369.6 257.8 369.6 260.6 L369.6 260.6 C369.6 262.9 370.4 264.9 372.1 266.6 L372.1 266.6 C373.3 268.0 375.1 268.7 377.3 268.7 L377.3 268.7 C379.8 268.7 382.7 267.3 386.0 264.5 ZM754.0 213.5 L754.0 213.5 C751.5 213.5 749.3 214.4 747.5 216.4 L747.5 216.4 C745.7 218.3 744.5 222.1 743.9 227.7 L743.9 227.7 C743.3 233.4 743.0 241.3 743.0 251.4 L743.0 251.4 C743.0 256.7 743.4 261.7 744.1 266.3 L744.1 266.3 C744.6 269.9 745.8 272.6 747.6 274.4 L747.6 274.4 C749.4 276.3 751.4 277.2 753.7 277.2 L753.7 277.2 C756.0 277.2 757.8 276.6 759.3 275.3 L759.3 275.3 C761.3 273.6 762.6 271.3 763.2 268.2 L763.2 268.2 C764.2 263.5 764.7 253.9 764.7 239.5 L764.7 239.5 C764.7 231.0 764.3 225.1 763.3 222.0 L763.3 222.0 C762.4 218.8 761.0 216.5 759.1 215.1 L759.1 215.1 C757.8 214.0 756.1 213.5 754.0 213.5 ZM797.1 210.3 L825.6 210.3 L825.6 258.1 L825.6 258.1 C825.6 263.1 825.8 266.3 826.3 267.8 L826.3 267.8 C826.8 269.2 827.5 270.3 828.5 271.1 L828.5 271.1 C829.6 271.8 830.7 272.2 832.1 272.2 L832.1 272.2 C833.9 272.2 835.5 271.7 837.0 270.8 L837.0 270.8 C839.0 269.5 841.3 266.8 844.1 262.9 L844.1 225.5 L844.1 225.5 C844.1 220.2 843.7 216.9 842.7 215.6 L842.7 215.6 C841.7 214.3 839.7 213.4 836.6 213.0 L836.6 210.3 L865.1 210.3 L865.1 265.1 L865.1 265.1 C865.1 270.4 865.6 273.7 866.6 275.1 L866.6 275.1 C867.6 276.4 869.6 277.2 872.7 277.6 L872.7 280.3 L844.1 280.3 L844.1 270.9 L844.1 270.9 C840.8 274.9 837.5 277.8 834.1 279.6 L834.1 279.6 C830.8 281.5 827.0 282.4 822.9 282.4 L822.9 282.4 C818.9 282.4 815.4 281.1 812.4 278.7 L812.4 278.7 C809.3 276.3 807.2 273.5 806.2 270.2 L806.2 270.2 C805.1 267.0 804.6 261.3 804.6 253.2 L804.6 225.5 L804.6 225.5 C804.6 220.2 804.1 216.9 803.2 215.6 L803.2 215.6 C802.2 214.3 800.1 213.4 797.1 213.0 ZM753.7 208.2 L753.7 208.2 C759.8 208.2 765.5 209.7 770.7 212.9 L770.7 212.9 C776.0 216.0 779.9 220.5 782.7 226.3 L782.7 226.3 C785.4 232.1 786.7 238.4 786.7 245.3 L786.7 245.3 C786.7 255.2 784.2 263.5 779.2 270.2 L779.2 270.2 C773.1 278.3 764.7 282.4 753.9 282.4 L753.9 282.4 C743.4 282.4 735.3 278.7 729.6 271.3 L729.6 271.3 C723.9 263.9 721.1 255.3 721.1 245.6 L721.1 245.6 C721.1 235.6 724.0 226.8 729.8 219.4 L729.8 219.4 C735.6 211.9 743.6 208.2 753.7 208.2 ZM473.7 208.2 L473.7 208.2 C478.3 208.2 482.0 209.4 485.0 211.9 L485.0 211.9 C488.0 214.5 490.0 217.6 491.0 221.3 L491.0 221.3 C491.8 224.2 492.2 229.7 492.2 237.7 L492.2 265.0 L492.2 265.0 C492.2 270.4 492.7 273.7 493.7 275.1 L493.7 275.1 C494.7 276.4 496.7 277.2 499.8 277.6 L499.8 280.3 L464.4 280.3 L464.4 277.6 L464.4 277.6 C467.0 277.2 468.9 276.1 470.1 274.3 L470.1 274.3 C470.9 273.0 471.3 269.9 471.3 265.0 L471.3 233.9 L471.3 233.9 C471.3 228.1 471.0 224.5 470.6 223.0 L470.6 223.0 C470.1 221.5 469.4 220.3 468.3 219.5 L468.3 219.5 C467.2 218.7 466.0 218.3 464.7 218.3 L464.7 218.3 C460.5 218.3 456.5 221.3 452.8 227.5 L452.8 265.0 L452.8 265.0 C452.8 270.2 453.3 273.6 454.2 274.9 L454.2 274.9 C455.2 276.3 457.0 277.2 459.7 277.6 L459.7 280.3 L424.2 280.3 L424.2 277.6 L424.2 277.6 C427.2 277.3 429.3 276.3 430.5 274.7 L430.5 274.7 C431.4 273.6 431.8 270.4 431.8 265.0 L431.8 225.5 L431.8 225.5 C431.8 220.2 431.3 216.9 430.3 215.6 L430.3 215.6 C429.4 214.3 427.3 213.4 424.2 213.0 L424.2 210.3 L452.8 210.3 L452.8 219.3 L452.8 219.3 C456.4 215.4 459.8 212.6 463.1 210.8 L463.1 210.8 C466.4 209.1 469.9 208.2 473.7 208.2 ZM382.6 208.2 L382.6 208.2 C389.2 208.2 394.5 209.6 398.3 212.4 L398.3 212.4 C402.2 215.2 404.7 218.3 405.8 221.6 L405.8 221.6 C406.5 223.7 406.9 228.5 406.9 236.0 L406.9 263.2 L406.9 263.2 C406.9 266.4 407.0 268.4 407.3 269.2 L407.3 269.2 C407.5 270.1 407.9 270.7 408.4 271.1 L408.4 271.1 C408.9 271.5 409.5 271.7 410.1 271.7 L410.1 271.7 C411.4 271.7 412.7 270.7 414.1 268.9 L416.3 270.7 L416.3 270.7 C413.8 274.4 411.2 277.1 408.6 278.7 L408.6 278.7 C405.9 280.4 402.9 281.2 399.5 281.2 L399.5 281.2 C395.5 281.2 392.4 280.3 390.1 278.4 L390.1 278.4 C387.9 276.6 386.5 273.7 386.0 269.9 L386.0 269.9 C377.5 277.5 369.8 281.2 363.0 281.2 L363.0 281.2 C359.0 281.2 355.7 279.9 353.1 277.3 L353.1 277.3 C350.4 274.7 349.1 271.4 349.1 267.5 L349.1 267.5 C349.1 262.1 351.4 257.3 356.0 253.1 L356.0 253.1 C360.6 248.8 370.6 243.1 386.0 236.0 L386.0 229.0 L386.0 229.0 C386.0 223.7 385.7 220.4 385.1 219.0 L385.1 219.0 C384.6 217.6 383.5 216.4 381.9 215.4 L381.9 215.4 C380.3 214.4 378.5 213.9 376.5 213.9 L376.5 213.9 C373.3 213.9 370.6 214.6 368.5 216.0 L368.5 216.0 C367.2 216.9 366.5 218.0 366.5 219.2 L366.5 219.2 C366.5 220.2 367.2 221.5 368.6 223.1 L368.6 223.1 C370.5 225.2 371.5 227.3 371.5 229.3 L371.5 229.3 C371.5 231.7 370.6 233.8 368.7 235.5 L368.7 235.5 C366.9 237.3 364.5 238.1 361.6 238.1 L361.6 238.1 C358.5 238.1 355.8 237.2 353.7 235.3 L353.7 235.3 C351.6 233.4 350.5 231.1 350.5 228.6 L350.5 228.6 C350.5 225.0 351.9 221.6 354.8 218.3 L354.8 218.3 C357.6 215.0 361.6 212.5 366.7 210.8 L366.7 210.8 C371.8 209.0 377.1 208.2 382.6 208.2 ZM623.3 178.7 L671.9 178.7 L671.9 181.5 L669.8 181.5 L669.8 181.5 C666.8 181.5 664.8 181.9 663.6 182.8 L663.6 182.8 C662.4 183.6 661.8 184.5 661.8 185.5 L661.8 185.5 C661.8 187.3 663.8 191.8 667.8 199.0 L686.2 232.7 L704.4 202.0 L704.4 202.0 C709.0 194.5 711.3 189.6 711.3 187.1 L711.3 187.1 C711.3 185.8 710.6 184.7 709.3 183.8 L709.3 183.8 C707.6 182.5 704.5 181.8 699.9 181.5 L699.9 178.7 L730.9 178.7 L730.9 181.5 L730.9 181.5 C727.6 182.0 725.0 182.9 723.2 184.4 L723.2 184.4 C720.7 186.5 716.8 192.2 711.4 201.6 L689.4 238.3 L689.4 262.9 L689.4 262.9 C689.4 268.1 689.7 271.4 690.2 272.7 L690.2 272.7 C690.8 273.9 691.9 275.1 693.5 276.0 L693.5 276.0 C695.1 277.0 697.3 277.5 699.9 277.5 L705.6 277.5 L705.6 280.3 L648.7 280.3 L648.7 277.5 L654.0 277.5 L654.0 277.5 C657.0 277.5 659.3 277.0 661.1 275.9 L661.1 275.9 C662.4 275.2 663.4 274.0 664.2 272.3 L664.2 272.3 C664.7 271.1 665.0 268.0 665.0 262.9 L665.0 242.5 L641.1 199.0 L641.1 199.0 C636.4 190.5 633.0 185.4 631.1 183.9 L631.1 183.9 C629.1 182.3 626.5 181.6 623.3 181.5 ZM509.4 178.7 L537.9 178.7 L537.9 245.5 L554.2 229.6 L554.2 229.6 C557.5 226.3 559.6 224.0 560.5 222.5 L560.5 222.5 C561.3 221.1 561.7 219.7 561.7 218.3 L561.7 218.3 C561.7 217.0 561.1 215.9 560.0 215.0 L560.0 215.0 C558.9 214.1 556.8 213.4 553.6 213.0 L553.6 210.3 L585.0 210.3 L585.0 213.0 L585.0 213.0 C582.0 213.2 579.4 213.9 577.1 215.2 L577.1 215.2 C574.9 216.4 570.5 220.3 563.9 226.7 L556.3 234.1 L572.8 258.3 L572.8 258.3 C579.4 268.0 583.3 273.5 584.6 274.7 L584.6 274.7 C586.3 276.4 588.4 277.4 591.0 277.6 L591.0 280.3 L554.9 280.3 L554.9 277.6 L554.9 277.6 C556.5 277.6 557.6 277.3 558.4 276.7 L558.4 276.7 C559.1 276.1 559.4 275.4 559.4 274.7 L559.4 274.7 C559.4 273.6 558.4 271.5 556.3 268.4 L542.4 248.1 L537.9 252.5 L537.9 265.1 L537.9 265.1 C537.9 270.4 538.5 273.7 539.5 275.1 L539.5 275.1 C540.5 276.4 542.5 277.2 545.6 277.6 L545.6 280.3 L509.4 280.3 L509.4 277.6 L509.4 277.6 C512.4 277.3 514.5 276.3 515.7 274.7 L515.7 274.7 C516.6 273.6 517.0 270.4 517.0 265.1 L517.0 193.9 L517.0 193.9 C517.0 188.7 516.5 185.4 515.5 184.1 L515.5 184.1 C514.6 182.8 512.5 181.9 509.4 181.5 ZM262.1 178.7 L290.6 178.7 L290.6 219.3 L290.6 219.3 C294.5 215.2 298.0 212.3 301.2 210.7 L301.2 210.7 C304.4 209.0 307.7 208.2 311.1 208.2 L311.1 208.2 C315.5 208.2 319.3 209.4 322.4 211.9 L322.4 211.9 C325.5 214.4 327.6 217.3 328.6 220.7 L328.6 220.7 C329.7 224.1 330.2 229.8 330.2 237.7 L330.2 265.1 L330.2 265.1 C330.2 270.4 330.7 273.7 331.7 275.1 L331.7 275.1 C332.7 276.4 334.7 277.2 337.7 277.6 L337.7 280.3 L302.2 280.3 L302.2 277.6 L302.2 277.6 C304.7 277.2 306.6 276.2 307.9 274.6 L307.9 274.6 C308.8 273.3 309.2 270.1 309.2 265.1 L309.2 233.9 L309.2 233.9 C309.2 228.1 309.0 224.4 308.5 223.0 L308.5 223.0 C308.1 221.5 307.3 220.3 306.2 219.5 L306.2 219.5 C305.2 218.7 304.0 218.3 302.6 218.3 L302.6 218.3 C300.6 218.3 298.7 219.0 296.8 220.3 L296.8 220.3 C294.9 221.7 292.8 224.1 290.6 227.6 L290.6 265.1 L290.6 265.1 C290.6 270.1 291.0 273.2 291.8 274.4 L291.8 274.4 C292.7 276.1 294.7 277.2 297.6 277.6 L297.6 280.3 L262.1 280.3 L262.1 277.6 L262.1 277.6 C265.1 277.3 267.1 276.3 268.4 274.7 L268.4 274.7 C269.3 273.6 269.7 270.4 269.7 265.1 L269.7 193.9 L269.7 193.9 C269.7 188.7 269.2 185.4 268.2 184.1 L268.2 184.1 C267.2 182.8 265.2 181.9 262.1 181.5 ZM160.0 178.7 L251.2 178.7 L251.2 206.2 L248.5 206.2 L248.5 206.2 C246.9 199.9 245.1 195.3 243.2 192.6 L243.2 192.6 C241.2 189.8 238.6 187.6 235.2 185.9 L235.2 185.9 C233.3 185.0 230.0 184.6 225.2 184.6 L217.7 184.6 L217.7 262.9 L217.7 262.9 C217.7 268.1 217.9 271.3 218.5 272.6 L218.5 272.6 C219.1 273.9 220.2 275.1 221.9 276.0 L221.9 276.0 C223.6 277.0 225.8 277.5 228.7 277.5 L232.1 277.5 L232.1 280.3 L178.9 280.3 L178.9 277.5 L182.3 277.5 L182.3 277.5 C185.3 277.5 187.6 277.0 189.4 275.9 L189.4 275.9 C190.7 275.2 191.8 274.0 192.5 272.3 L192.5 272.3 C193.1 271.1 193.3 268.0 193.3 262.9 L193.3 184.6 L186.0 184.6 L186.0 184.6 C179.1 184.6 174.2 186.0 171.1 188.9 L171.1 188.9 C166.7 193.0 164.0 198.7 162.9 206.2 L160.0 206.2 Z" class="df15_3"/><image transform="matrix(0.479886,0,0,-0.4801109,62.13333,317.0667)"  width="1871" height="481" xlink:href="image/1151471221617917322321923320425512721710043121.png" /><g clip-path="url(#15clip0)"><image transform="matrix(0.4801298,0,0,-0.4801331,208,720)"  width="1233" height="601" xlink:href="image/66231882346318893156120208192372508652255.jpeg" /></g><text class="ft15_5" y="703.7333" x="920.6667 928.6667">16</text><style type="text/css"><![CDATA[@font-face{font-family:'ABCDEEGill20Sans20MT';src:url('font/ABCDEE$Gill20Sans20MT.woff') format('woff');} .df15_0{filter:url(#15filter0);fill-rule:evenodd;stroke:none;} .df15_1{fill:#FFFFFF;fill-rule:evenodd;stroke:none;} .df15_2{filter:url(#15filter1);fill-rule:evenodd;stroke:#84AA33;stroke-linejoin:round;stroke-miterlimit:10;} .df15_3{fill:url(#15myGradient0);fill-rule:evenodd;fill-rule:evenodd;stroke:none;} .ft15_5{font-family:ABCDEEGill20Sans20MT,Arial;font-size:16px;fill:#B5A788;} .ss0{stroke:#000000;}]]></style><defs><clipPath id="15clip0"><path clip-rule="evenodd" d="M0.0 720.0 L960.0 720.0 L960.0 0.0 L0.0 0.0 Z"/></clipPath><filter id="15filter0" primitiveUnits="objectBoundingBox"><feImage xlink:href="16495101125208971495413485382222241658240.png" x="0" y="0" width="0.00625" height="0.008333334" preserveAspectRatio="none" result="15filter0res"/><feTile x="0" y="0" width="1" height="1" in="15filter0res" /></filter><clipPath id="15clip1"><path clip-rule="evenodd" d="M104.0 128.0 L104.0 323.5 L928.0 323.5 L928.0 128.0 L104.0 128.0 ZM0.0 0.0 L960.0 0.0 L960.0 720.0 L0.0 720.0 L0.0 0.0 Z"/></clipPath><clipPath id="15clip2"><path clip-rule="evenodd" d="M104.0 323.5 L928.0 323.5 L928.0 128.0 L104.0 128.0 Z"/></clipPath><filter id="15filter1" primitiveUnits="objectBoundingBox"><feImage xlink:href="122159731516012112273227647423818991243198.png" x="0" y="0" width="0.7694175" height="3.243078" preserveAspectRatio="none" result="15filter1res"/><feTile x="0" y="0" width="1" height="1" in="15filter1res" /></filter><linearGradient id="15myGradient0" gradientTransform="matrix(1,0,0,-1,0,720)" gradientUnits="userSpaceOnUse" x1="516.0667" y1="559.7333" x2="516.0667" y2="406.6667" spreadMethod="repeat"><stop offset="0%" stop-color="#0C1F53"/><stop offset="78%" stop-color="#4D64B0"/><stop offset="100%" stop-color="#F0F1F7"/></linearGradient></defs>
</svg>