<?xml version="1.0" standalone="no"?><!DOCTYPE svg PUBLIC "-//W3C//DTD SVG 1.1//EN" "http://www.w3.org/Graphics/SVG/1.1/DTD/svg11.dtd"><!-- Created with RasterEdge (http://www.rasteredge.com/) -->
<!-- Product Page (http://www.rasteredge.com/demo/online-document-viewer/) -->
<svg width="10in" height="7.5in" version="1.1" xmlns="http://www.w3.org/2000/svg" xmlns:xlink="http://www.w3.org/1999/xlink" >
<g clip-path="url(#3clip0)"><path d="M0.0 720.0 L960.0 720.0 L960.0 0.0 L0.0 0.0 Z" class="df3_0"/></g><path d="M86.3 0.3 L86.3 0.3 C86.3 47.8 47.8 86.3 0.3 86.3 L0.3 86.3 C0.3 86.3 0.3 86.3 0.3 86.3 L0.3 86.3 L0.3 0.3 Z" class="df3_1"/><g clip-path="url(#3clip0)"><path d="M86.3 0.3 L86.3 0.3 C86.3 47.8 47.8 86.3 0.3 86.3 L0.3 86.3 C0.3 86.3 0.3 86.3 0.3 86.3 L0.3 86.3 L0.3 0.3 Z" class="df3_2"/></g><image transform="matrix(0.4794544,0,0,-0.4794544,13.33333,188)"  width="391" height="391" xlink:href="image/1766318914423613714013312342151061109132116.png" /><image transform="matrix(0.4888889,0,0,-0.4937778,104.2667,97.06665)"  width="12" height="12" xlink:href="image/70608211892715831104235340517055104.png" /><path d="M17.7 91.6 L17.7 91.6 C17.7 42.2 57.7 2.2 107.1 2.2 L107.1 2.2 C107.1 2.2 107.1 2.2 107.1 2.2 L107.1 2.2 L107.1 2.2 C156.5 2.2 196.5 42.2 196.5 91.6 L196.5 91.6 C196.5 91.6 196.5 91.6 196.5 91.6 L196.5 91.6 L196.5 91.6 C196.5 141.0 156.5 181.0 107.1 181.0 L107.1 181.0 C107.1 181.0 107.1 181.0 107.1 181.0 L107.1 181.0 L107.1 181.0 C57.7 181.0 17.7 141.0 17.7 91.6 L17.7 91.6 C17.7 91.6 17.7 91.6 17.7 91.6 Z" class="df3_3"/><image transform="matrix(0.4806324,0,0,-0.4804233,17.86667,230.6667)"  width="253" height="252" xlink:href="image/7643183110222524916324424350239193189177197.png" /><image transform="matrix(0.4571429,0,0,-0.4617143,77.06667,171.7333)"  width="7" height="7" xlink:href="image/101796716911614318884918410494024812452.png" /><g clip-path="url(#3clip1)"><path d="M32.1 131.8 L32.1 131.8 C52.0 106.8 88.9 103.1 114.4 123.4 L114.4 123.4 C114.4 123.4 114.4 123.4 114.4 123.4 L114.4 123.4 L114.4 123.4 C139.9 143.8 144.4 180.5 124.5 205.5 L124.5 205.5 C124.5 205.5 124.5 205.5 124.5 205.5 L124.5 205.5 L124.5 205.5 C104.5 230.5 67.7 234.3 42.2 213.9 L42.2 213.9 C42.2 213.9 42.2 213.9 42.2 213.9 L42.2 213.9 L42.2 213.9 C16.7 193.5 12.2 156.8 32.1 131.8 L32.1 131.8 C32.1 131.8 32.1 131.8 32.1 131.8 ZM42.8 140.3 L42.8 140.3 C27.6 159.4 31.1 187.5 50.7 203.2 L50.7 203.2 L50.7 203.2 C70.3 218.8 98.6 216.0 113.8 197.0 L113.8 197.0 C113.8 197.0 113.8 197.0 113.8 197.0 L113.8 197.0 L113.8 197.0 C129.0 177.9 125.4 149.8 105.9 134.1 L105.9 134.1 C105.9 134.1 105.9 134.1 105.9 134.1 L105.9 134.1 L105.9 134.1 C86.3 118.5 58.0 121.3 42.8 140.3 Z" class="df3_4"/></g><path d="M32.1 131.8 L32.1 131.8 C52.0 106.8 88.9 103.1 114.4 123.4 L114.4 123.4 C114.4 123.4 114.4 123.4 114.4 123.4 L114.4 123.4 L114.4 123.4 C139.9 143.8 144.4 180.5 124.5 205.5 L124.5 205.5 C124.5 205.5 124.5 205.5 124.5 205.5 L124.5 205.5 L124.5 205.5 C104.5 230.5 67.7 234.3 42.2 213.9 L42.2 213.9 C42.2 213.9 42.2 213.9 42.2 213.9 L42.2 213.9 L42.2 213.9 C16.7 193.5 12.2 156.8 32.1 131.8 L32.1 131.8 C32.1 131.8 32.1 131.8 32.1 131.8 Z" class="df3_5"/><path d="M42.8 140.3 L42.8 140.3 C27.6 159.4 31.1 187.5 50.7 203.2 L50.7 203.2 L50.7 203.2 C70.3 218.8 98.6 216.0 113.8 197.0 L113.8 197.0 C113.8 197.0 113.8 197.0 113.8 197.0 L113.8 197.0 L113.8 197.0 C129.0 177.9 125.4 149.8 105.9 134.1 L105.9 134.1 C105.9 134.1 105.9 134.1 105.9 134.1 L105.9 134.1 L105.9 134.1 C86.3 118.5 58.0 121.3 42.8 140.3 Z" class="df3_5"/><g clip-path="url(#3clip0)"><path d="M106.3 720.0 L960.0 720.0 L960.0 0.0 L106.3 0.0 Z" class="df3_6"/></g><image transform="matrix(0.48,0,0,-0.48,97.86667,720)"  width="35" height="1500" xlink:href="image/43482492461481112772301731068814621123414.png" /><image transform="matrix(0.477193,0,0,-0.4819649,107.4667,364.5333)"  width="19" height="19" xlink:href="image/192161354321116120280249225164246206115234221.png" /><g clip-path="url(#3clip0)"><path d="M106.5 720.0 L114.2 720.0 L114.2 0.0 L106.5 0.0 Z" class="df3_6"/></g><text class="ft3_8" y="78.73328" x="247.3333 285.1229 307.882 326.1149 344.2197 355.7914 376.7998 400.3702 411.8138 449.1763 474.0704 497.6408 522.3641 534.3628 571.7253 596.6194 608.063 619.6346 644.4006 667.9711 679.8417 712.7634 738.1271 763.0212 782.1509 800.3838 823.9542">Massive Open Online Courses</text><text class="ft3_9" y="129.9333" x="446.0667 462.5787 500.424 537.7573 575.0907 607.9867 626.2053">(MOOCs)</text><text class="ft3_10" y="195.2667" x="98.43333"></text><text class="ft3_11" y="195.2667" x="128.0333 138.1133 169.3533 193.5133 221.8333 264.8667 273.6267 293.6267 306.9467 321.6667 343.7467 364.1467 384.1467 401.6667 420.8267 458 489.24 522 554.8 583.12 615.36 624.16">JNTUKintroducedMOOCsin</text><text class="ft3_12" y="195.2667" x="661.2667 670.5867 690.5867 699.1067 733.2667 753.2667 773.2667 793.2667">July2015</text><text class="ft3_11" y="195.2667" x="829.84 839.72 861.8 894.4 911.2 919.96">forall</text><text class="ft3_13" y="243.3067" x="128.0333 136.8006 150.1317 176.5733 194.1079 216.2063 236.223 251.7159 265.047 273.8143 287.1454 307.162 326.338 346.3547 370.5067 387.5733 407.5624 439.0667 456.1609 466.1693 476.3777 485.145 493.9123 502.6796 519.7739 533.105 552.2809 583.64 601.1746 623.273 632.1204 640.8877 660.0637 677.1579 696.3339 711.9333">itsconstituentandaffiliatedcolleges.</text><text class="ft3_10" y="299.3067" x="98.43333"></text><text class="ft3_11" y="299.3067" x="128.0333 146.3533 155.1933 175.1933 192.7133 232.6 245.92 265.92 285.08">Sincethen</text><text class="ft3_12" y="299.3067" x="325.44 345.44 385.6933 403.2133 425.3734 445.3734 461.2133 476.6133 495.4933">16courses</text><text class="ft3_11" y="299.3067" x="531.64 559.64 578.8 593.76 633.2267 655.1067 665.1867 674.7867 693.9467 708.9067 728.0668 769.04 782.3734">wereofferedto</text><text class="ft3_14" y="299.3067" x="824.7734 845.5734 866.3733 887.1733 907.9733">21206</text><text class="ft3_13" y="347.3333" x="128.0333 143.4462 156.7773 176.7939 197.2109 216.3869 236.4035 249.7346 275.8 285.8884 300.5406 322.639">studentsfrom</text><text class="ft3_15" y="347.3333" x="364.64 384.64 404.64">111</text><text class="ft3_13" y="347.3333" x="435.8667 453.4012 475.4996 484.347 493.1143 512.2903 529.3845 548.5605 564.1733">colleges.</text><text class="ft3_10" y="403.3333" x="98.43333"></text><text class="ft3_11" y="403.3333" x="128.0333 158.1133 177.2733 197.6733 206.4333 223.9534 241.0334 254.3534 273.5134">Dedicated</text><text class="ft3_12" y="403.3333" x="340.36 360.36 373.1733 381.9333 400.8934 417.9734 433.8134 453.6934 462.4534 482.4534 545.7733 583.8933 603.0533 623.0533 638.4533 647.3333 660.6533 679.8133 692.7333 701.4933 721.4933 734.8134 754.8134 773.0134 792.1733 800.9333 820.0934 837.1733 853.0134 873.04 881.8667 890.6667 910.6667 923.4667">E-learningWebsite(jntukelearn.in),</text><text class="ft3_12" y="451.36" x="128.0333 147.7133 166.8733 183.9533 199.7933 219.7933 228.5533 248.5533 278.7333 309.9734 327.0533 347.0533 364.1334 381.2133 400.0533 430.8934 450.1334 470.1334 496.6667 514.9867 532.5067 547.9067 561.2267 580.3867 624.44 637.36 647.12 678.36 702.52 730.84 770.1067 790.1067 802.8933 834.1333 853.2933 873.5732 893.5732 910.6667 923.4667">LearningManagementSystem(JNTUKE-Medha),</text><text class="ft3_15" y="499.4" x="128.0333 159.2994 181.3978 201.4144 210.1817 218.949 280.0667 306.7689 326.7856 345.6813 392.36 409.4266 429.4157 491.6 510.2556 532.3539 552.3706 571.0662 591.0829 611.0995 671.9333 700.277 720.2936 737.2678 757.2844 777.3011 796.4771">MobileApp,andYouTubeChannel</text><text class="ft3_13" y="499.4" x="847.1733 875.1566 894.5728 909.5052">were</text><text class="ft3_11" y="547.4" x="128.0333 136.7933 156.7933 170.1133 184.8333 206.9133 227.3133 247.3133 264.8333 283.9933 315.3067 328.64 361.9734 382.2534 391.0134 406.4133 419.8133 435.6533 444.4133 464.4133 484.4133 497.7333 528.1334 541.4534 561.4534 591.64 609.16 617.92 638.3201 657.48 679.5601 695.0801 710.8667 727.9467 747.9467 779.4401 796.9601 819.1201 839.1201 852.4401 871.6 891.6 905.0667">introducedtodistributethevideos,andcontent.</text><text class="ft3_16" y="603.4333" x="98.43333"></text><text class="ft3_13" y="603.4333" x="128.0333 156.3769 176.3936 193.3677 206.6988 217.9482 249.2142 271.3126 284.6437 293.411 303.4194 312.1866 329.7213 346.8155 360.1466 368.9139 390.692 410.7087 452.9333 466.2645 486.2811 500.9333 523.0317 543.0484 560.1426">Chat/Notificationsthrough</text><text class="ft3_15" y="603.4333" x="606.84 644.7115 663.8876 683.9042 699.3171 708.0844 721.4155 741.4722 773.04 791.8157 808.7898 826.3244 845.5004 865.517 887.4553 909.3134">Website,Facebook</text><text class="ft3_12" y="651.4333" x="128.0333 148.3134 165.3933 182.4734 212.6 221.36 239.8 268.56 277.32 290.64 303.9601 323.2401 349.9734 360.8934 402.5734 422.5734 439.6534 452.9734 468.3734 485.1733 505.1733 547.36 564.44 584.44 638.3067 658.3334 671.1334 701.9733 719.0533 727.8933 747.9333 765.0134 773.7734 792.9333 809.4933 822.8134">Page,Twitter,WhatsappandE-mailalerts</text><text class="ft3_17" y="703.7333" x="924.6667">4</text><style type="text/css"><![CDATA[@font-face{font-family:'ABCDEEGill20Sans20MTBold';src:url('font/ABCDEE$Gill20Sans20MT,Bold.woff') format('woff');}@font-face{font-family:'ABCDEEWingdings202';src:url('font/ABCDEE$Wingdings202.woff') format('woff');}@font-face{font-family:'ABCDEEGill20Sans20MT';src:url('font/ABCDEE$Gill20Sans20MT.woff') format('woff');}@font-face{font-family:'ABCDEEGill20Sans20MTItalic';src:url('font/ABCDEE$Gill20Sans20MT,Italic.woff') format('woff');} .df3_0{filter:url(#3filter0);fill-rule:evenodd;stroke:none;} .df3_1{fill:#FEFAF4;fill-opacity:0.3;fill-rule:evenodd;stroke:none;} .df3_2{stroke:#D2C39E;stroke-linejoin:round;stroke-miterlimit:10;fill:none;} .df3_3{stroke-width:2.15pt;stroke:#FFF6DB;stroke-linejoin:round;stroke-miterlimit:10;fill:none;} .df3_4{filter:url(#3filter1);fill-rule:evenodd;stroke:none;} .df3_5{stroke:#C7B791;stroke-linejoin:round;stroke-miterlimit:10;fill:none;} .df3_6{fill:#FFFFFF;fill-rule:evenodd;stroke:none;} .ft3_8{font-family:ABCDEEGill20Sans20MTBold,Arial;font-size:42.7px;fill:#0000FF;} .ft3_9{font-family:ABCDEEGill20Sans20MTBold,Arial;font-size:42.66667px;fill:#0000FF;} .ft3_10{font-family:ABCDEEWingdings202,Arial;font-size:32px;fill:#3891A7;} .ft3_11{font-family:ABCDEEGill20Sans20MT,Arial;font-size:40px;fill:#000000;} .ft3_12{font-family:ABCDEEGill20Sans20MT,Arial;font-size:40px;fill:#000099;} .ft3_13{font-family:ABCDEEGill20Sans20MT,Arial;font-size:40.03333px;fill:#000000;} .ft3_14{font-family:ABCDEEGill20Sans20MTItalic,Arial;font-size:40px;fill:#000099;} .ft3_15{font-family:ABCDEEGill20Sans20MT,Arial;font-size:40.03333px;fill:#000099;} .ft3_16{font-family:ABCDEEWingdings202,Arial;font-size:32.03333px;fill:#3891A7;} .ft3_17{font-family:ABCDEEGill20Sans20MT,Arial;font-size:16px;fill:#B5A788;} .ss0{stroke:#000000;}]]></style><defs><clipPath id="3clip0"><path clip-rule="evenodd" d="M0.0 720.0 L960.0 720.0 L960.0 0.0 L0.0 0.0 Z"/></clipPath><filter id="3filter0" primitiveUnits="objectBoundingBox"><feImage xlink:href="16495101125208971495413485382222241658240.png" x="0" y="0" width="0.00625" height="0.008333334" preserveAspectRatio="none" result="3filter0res"/><feTile x="0" y="0" width="1" height="1" in="3filter0res" /></filter><clipPath id="3clip1"><path clip-rule="evenodd" d="M32.1 131.8 L32.1 131.8 C52.0 106.8 88.9 103.1 114.4 123.4 L114.4 123.4 C114.4 123.4 114.4 123.4 114.4 123.4 L114.4 123.4 L114.4 123.4 C139.9 143.8 144.4 180.5 124.5 205.5 L124.5 205.5 C124.5 205.5 124.5 205.5 124.5 205.5 L124.5 205.5 L124.5 205.5 C104.5 230.5 67.7 234.3 42.2 213.9 L42.2 213.9 C42.2 213.9 42.2 213.9 42.2 213.9 L42.2 213.9 L42.2 213.9 C16.7 193.5 12.2 156.8 32.1 131.8 L32.1 131.8 C32.1 131.8 32.1 131.8 32.1 131.8 ZM42.8 140.3 L42.8 140.3 C27.6 159.4 31.1 187.5 50.7 203.2 L50.7 203.2 L50.7 203.2 C70.3 218.8 98.6 216.0 113.8 197.0 L113.8 197.0 C113.8 197.0 113.8 197.0 113.8 197.0 L113.8 197.0 L113.8 197.0 C129.0 177.9 125.4 149.8 105.9 134.1 L105.9 134.1 C105.9 134.1 105.9 134.1 105.9 134.1 L105.9 134.1 L105.9 134.1 C86.3 118.5 58.0 121.3 42.8 140.3 Z"/></clipPath><filter id="3filter1" primitiveUnits="objectBoundingBox"><feImage xlink:href="9111019103162149186191341401559591027237.png" x="0" y="0" width="1.043501" height="1.051829" preserveAspectRatio="none" result="3filter1res"/><feTile x="0" y="0" width="1" height="1" in="3filter1res" /></filter></defs>
</svg>