<?xml version="1.0" standalone="no"?><!DOCTYPE svg PUBLIC "-//W3C//DTD SVG 1.1//EN" "http://www.w3.org/Graphics/SVG/1.1/DTD/svg11.dtd"><!-- Created with RasterEdge (http://www.rasteredge.com/) -->
<!-- Product Page (http://www.rasteredge.com/demo/online-document-viewer/) -->
<svg width="10in" height="7.5in" version="1.1" xmlns="http://www.w3.org/2000/svg" xmlns:xlink="http://www.w3.org/1999/xlink" >
<g clip-path="url(#4clip0)"><path d="M0.0 720.0 L960.0 720.0 L960.0 0.0 L0.0 0.0 Z" class="df4_0"/></g><path d="M86.3 0.3 L86.3 0.3 C86.3 47.8 47.8 86.3 0.3 86.3 L0.3 86.3 C0.3 86.3 0.3 86.3 0.3 86.3 L0.3 86.3 L0.3 0.3 Z" class="df4_1"/><g clip-path="url(#4clip0)"><path d="M86.3 0.3 L86.3 0.3 C86.3 47.8 47.8 86.3 0.3 86.3 L0.3 86.3 C0.3 86.3 0.3 86.3 0.3 86.3 L0.3 86.3 L0.3 0.3 Z" class="df4_2"/></g><image transform="matrix(0.4794544,0,0,-0.4794544,13.33333,188)"  width="391" height="391" xlink:href="image/1766318914423613714013312342151061109132116.png" /><image transform="matrix(0.4888889,0,0,-0.4937778,104.2667,97.06665)"  width="12" height="12" xlink:href="image/70608211892715831104235340517055104.png" /><path d="M17.7 91.6 L17.7 91.6 C17.7 42.2 57.7 2.2 107.1 2.2 L107.1 2.2 C107.1 2.2 107.1 2.2 107.1 2.2 L107.1 2.2 L107.1 2.2 C156.5 2.2 196.5 42.2 196.5 91.6 L196.5 91.6 C196.5 91.6 196.5 91.6 196.5 91.6 L196.5 91.6 L196.5 91.6 C196.5 141.0 156.5 181.0 107.1 181.0 L107.1 181.0 C107.1 181.0 107.1 181.0 107.1 181.0 L107.1 181.0 L107.1 181.0 C57.7 181.0 17.7 141.0 17.7 91.6 L17.7 91.6 C17.7 91.6 17.7 91.6 17.7 91.6 Z" class="df4_3"/><image transform="matrix(0.4806324,0,0,-0.4804233,17.86667,230.6667)"  width="253" height="252" xlink:href="image/7643183110222524916324424350239193189177197.png" /><image transform="matrix(0.4571429,0,0,-0.4617143,77.06667,171.7333)"  width="7" height="7" xlink:href="image/101796716911614318884918410494024812452.png" /><g clip-path="url(#4clip1)"><path d="M32.1 131.8 L32.1 131.8 C52.0 106.8 88.9 103.1 114.4 123.4 L114.4 123.4 C114.4 123.4 114.4 123.4 114.4 123.4 L114.4 123.4 L114.4 123.4 C139.9 143.8 144.4 180.5 124.5 205.5 L124.5 205.5 C124.5 205.5 124.5 205.5 124.5 205.5 L124.5 205.5 L124.5 205.5 C104.5 230.5 67.7 234.3 42.2 213.9 L42.2 213.9 C42.2 213.9 42.2 213.9 42.2 213.9 L42.2 213.9 L42.2 213.9 C16.7 193.5 12.2 156.8 32.1 131.8 L32.1 131.8 C32.1 131.8 32.1 131.8 32.1 131.8 ZM42.8 140.3 L42.8 140.3 C27.6 159.4 31.1 187.5 50.7 203.2 L50.7 203.2 L50.7 203.2 C70.3 218.8 98.6 216.0 113.8 197.0 L113.8 197.0 C113.8 197.0 113.8 197.0 113.8 197.0 L113.8 197.0 L113.8 197.0 C129.0 177.9 125.4 149.8 105.9 134.1 L105.9 134.1 C105.9 134.1 105.9 134.1 105.9 134.1 L105.9 134.1 L105.9 134.1 C86.3 118.5 58.0 121.3 42.8 140.3 Z" class="df4_4"/></g><path d="M32.1 131.8 L32.1 131.8 C52.0 106.8 88.9 103.1 114.4 123.4 L114.4 123.4 C114.4 123.4 114.4 123.4 114.4 123.4 L114.4 123.4 L114.4 123.4 C139.9 143.8 144.4 180.5 124.5 205.5 L124.5 205.5 C124.5 205.5 124.5 205.5 124.5 205.5 L124.5 205.5 L124.5 205.5 C104.5 230.5 67.7 234.3 42.2 213.9 L42.2 213.9 C42.2 213.9 42.2 213.9 42.2 213.9 L42.2 213.9 L42.2 213.9 C16.7 193.5 12.2 156.8 32.1 131.8 L32.1 131.8 C32.1 131.8 32.1 131.8 32.1 131.8 Z" class="df4_5"/><path d="M42.8 140.3 L42.8 140.3 C27.6 159.4 31.1 187.5 50.7 203.2 L50.7 203.2 L50.7 203.2 C70.3 218.8 98.6 216.0 113.8 197.0 L113.8 197.0 C113.8 197.0 113.8 197.0 113.8 197.0 L113.8 197.0 L113.8 197.0 C129.0 177.9 125.4 149.8 105.9 134.1 L105.9 134.1 C105.9 134.1 105.9 134.1 105.9 134.1 L105.9 134.1 L105.9 134.1 C86.3 118.5 58.0 121.3 42.8 140.3 Z" class="df4_5"/><g clip-path="url(#4clip0)"><path d="M106.3 720.0 L960.0 720.0 L960.0 0.0 L106.3 0.0 Z" class="df4_6"/></g><image transform="matrix(0.48,0,0,-0.48,97.86667,720)"  width="35" height="1500" xlink:href="image/43482492461481112772301731068814621123414.png" /><image transform="matrix(0.477193,0,0,-0.4819649,107.4667,364.5333)"  width="19" height="19" xlink:href="image/192161354321116120280249225164246206115234221.png" /><g clip-path="url(#4clip0)"><path d="M106.5 720.0 L114.2 720.0 L114.2 0.0 L106.5 0.0 Z" class="df4_6"/></g><text class="ft4_8" y="104.3333" x="160.2933 174.5013 210.512 241.1893 276.304 306.9813 318.544 356.3893 393.7227 431.056 463.952 482 496.1334 524.1653 547.12 568.9653 580.912 605.488 629.04 651.696 669.0187 693.8933 712.3253 735.8773">JNTUK MOOCs-Key Features</text><text class="ft4_9" y="179.2667" x="138.4267"></text><text class="ft4_10" y="179.2667" x="168.0267 192.1867 212.1867 231.4667 246.3867 285.9333 294.7333">Thereis</text><text class="ft4_11" y="179.2667" x="330.5067 350.24 392.36 402.44 411.2 430.96 448.04 468.04 485.56 494.32 511.4 540.6934 569.0133 590.8134 621.6533 652.6533 661.4133 674.5333 705.3733 724.6133 744.6133">nofinancialCommitment</text><text class="ft4_10" y="179.2667" x="778.3734 788.4534 803.1334 825.0134 876.2267 889.5466 909.5466">fromthe</text><text class="ft4_12" y="227.3067" x="168.0267 188.0433 211.8232 222.6722 233.5212 255.7397 276.7973 298.8957">colleges</text><text class="ft4_13" y="227.3067" x="326.5067 343.5733 363.5624 395.0267 408.3578 428.3745">andthe</text><text class="ft4_12" y="227.3067" x="458.8 475.8943 492.1478 515.3271 538.5464 560.6448 583.9843 600.2378">students</text><text class="ft4_13" y="227.3067" x="617.2267">.</text><text class="ft4_9" y="283.3067" x="138.4267"></text><text class="ft4_10" y="283.3067" x="168.0267 192.1867 212.1867 247 275.32 297.4 306.16 314.92 334.16 351.2401 385.6933 401.0933 420.8933 442.9733 462.9733 471.7333 507.6 516.36 536.76 555.92 575.92 589.24 598 608.08 640.9734">TheCollegeshouldidentifya</text><text class="ft4_11" y="283.3067" x="673.2667 683.1467 700.2267 717.7467 737.7467 746.5067 759.9067 792.7734 823.6134 842.8534 873.6934 893.6934 912.9333">facultymember</text><text class="ft4_13" y="331.3333" x="168.0267 181.36 214.2 234.2167 251.3109 271.3276 291.5444 300.3117 330.7733 344.1045 364.1212 394.5067 412.0413 434.1396 454.1563 470.0095 485.4224 515.6 525.6885 540.3406 562.439 604.44 621.9746 644.073 652.9203 661.6876 680.8636 697.9579 728.2001 743.6129 752.3802 772.7972 792.7734">tohandlethecoursefromcollegeside.</text><text class="ft4_9" y="387.3333" x="138.4267"></text><text class="ft4_10" y="387.3333" x="168.0267 192.1867 212.1867 260.0667 270.1467 290.1467 303.4667 322.6267 338.4667 358.4667 375.5467 412.9333 423.0134 439.8134 457.3334 477.3334 486.1734 499.4934 545.7733 561.1733 581.1733 603.3333 623.3333 632.0933 681 698.08 711.12 724.4399 743.6 763.6 812.7734 829.8534 838.6134 876.2267 889.5466 909.5466">TheInternalfacultyshouldattendallthe</text><text class="ft4_13" y="435.36" x="168.0267 185.5613 194.3286 211.4228 226.9157 242.1284 261.3043 294.7733 311.8676 320.6349 342.7333 362.75 397.6933 426.4773 435.0444 448.3755 486.5333 499.8644 519.8811 556.9734 572.3862 585.7173 605.734 626.151 645.327 665.3436 678.6747 711.9333 729 748.9891 787.4401 816.224 824.9913 833.7587 860.7734 880.79 899.966 908.7333">classesalongwiththestudentsandwillhelp</text><text class="ft4_10" y="483.36" x="168.0267 181.3467 201.3467 220.5067 264.3333 273.1334">themin</text><text class="ft4_11" y="483.36" x="305.6934 321.0934 343.2534 351.7734 369.2934 378.0534 398.0534 427.8667 441.1866 461.1866 493.2 510.28 525.48 540.88 549.64 566.72 586.72 617.72 636.88 656.88 670 698.0667 715.1467 735.1467 768.2267 785.7467 794.5067 811.5867 827.4267 836.1867 846.3068 876.5067 889.8267 909.5867">solvingtheassignmentsandclarifythe</text><text class="ft4_14" y="531.4" x="168.0267 188.2835 210.3819 230.3986 250.4153 263.7463">doubts</text><text class="ft4_13" y="531.4" x="279.2667">.</text><text class="ft4_9" y="587.4333" x="138.4267"></text><text class="ft4_10" y="587.4333" x="168.0267 192.1867 212.1867 250.2 260.28 280.28 293.6 312.76 328.6 348.6 365.68 393.1733 403.2534 420.0533 437.3734 457.3734 466.1334 479.4534 515.8667 524.6667 558.84 572.16 592.16">TheInternalfacultyisthe</text><text class="ft4_11" y="587.4333" x="630.0267 638.7867 658.7867 672.1067 691.2667 707.1067 717.1867 734.2667 751.7867">interface</text><text class="ft4_10" y="587.4333" x="789.84 809.84 829 842.32 870.36 889.52 908.6801">between</text><text class="ft4_10" y="635.4333" x="168.0267 181.3467 201.3467 231.5333 253.6133 273.6133 282.3734 291.2133 311.2133 341.44 372.28 391.52 411.52 424.84 446.92 474 491.08 511.08 542.3067 557.7067 571.0267 591.0267 611.4266 630.5867 650.5867 663.9333">theonlinementorandstudent.</text><text class="ft4_15" y="703.7333" x="924.6667">5</text><style type="text/css"><![CDATA[@font-face{font-family:'ABCDEEGill20Sans20MTBold';src:url('font/ABCDEE$Gill20Sans20MT,Bold.woff') format('woff');}@font-face{font-family:'ABCDEEWingdings202';src:url('font/ABCDEE$Wingdings202.woff') format('woff');}@font-face{font-family:'ABCDEEGill20Sans20MT';src:url('font/ABCDEE$Gill20Sans20MT.woff') format('woff');} .df4_0{filter:url(#4filter0);fill-rule:evenodd;stroke:none;} .df4_1{fill:#FEFAF4;fill-opacity:0.3;fill-rule:evenodd;stroke:none;} .df4_2{stroke:#D2C39E;stroke-linejoin:round;stroke-miterlimit:10;fill:none;} .df4_3{stroke-width:2.15pt;stroke:#FFF6DB;stroke-linejoin:round;stroke-miterlimit:10;fill:none;} .df4_4{filter:url(#4filter1);fill-rule:evenodd;stroke:none;} .df4_5{stroke:#C7B791;stroke-linejoin:round;stroke-miterlimit:10;fill:none;} .df4_6{fill:#FFFFFF;fill-rule:evenodd;stroke:none;} .ft4_8{font-family:ABCDEEGill20Sans20MTBold,Arial;font-size:42.66667px;fill:#0000FF;} .ft4_9{font-family:ABCDEEWingdings202,Arial;font-size:32px;fill:#3891A7;} .ft4_10{font-family:ABCDEEGill20Sans20MT,Arial;font-size:40px;fill:#000000;} .ft4_11{font-family:ABCDEEGill20Sans20MT,Arial;font-size:40px;fill:#000099;} .ft4_12{font-family:ABCDEEGill20Sans20MTBold,Arial;font-size:40.03333px;fill:#000000;} .ft4_13{font-family:ABCDEEGill20Sans20MT,Arial;font-size:40.03333px;fill:#000000;} .ft4_14{font-family:ABCDEEGill20Sans20MT,Arial;font-size:40.03333px;fill:#000099;} .ft4_15{font-family:ABCDEEGill20Sans20MT,Arial;font-size:16px;fill:#B5A788;} .ss0{stroke:#000000;}]]></style><defs><clipPath id="4clip0"><path clip-rule="evenodd" d="M0.0 720.0 L960.0 720.0 L960.0 0.0 L0.0 0.0 Z"/></clipPath><filter id="4filter0" primitiveUnits="objectBoundingBox"><feImage xlink:href="16495101125208971495413485382222241658240.png" x="0" y="0" width="0.00625" height="0.008333334" preserveAspectRatio="none" result="4filter0res"/><feTile x="0" y="0" width="1" height="1" in="4filter0res" /></filter><clipPath id="4clip1"><path clip-rule="evenodd" d="M32.1 131.8 L32.1 131.8 C52.0 106.8 88.9 103.1 114.4 123.4 L114.4 123.4 C114.4 123.4 114.4 123.4 114.4 123.4 L114.4 123.4 L114.4 123.4 C139.9 143.8 144.4 180.5 124.5 205.5 L124.5 205.5 C124.5 205.5 124.5 205.5 124.5 205.5 L124.5 205.5 L124.5 205.5 C104.5 230.5 67.7 234.3 42.2 213.9 L42.2 213.9 C42.2 213.9 42.2 213.9 42.2 213.9 L42.2 213.9 L42.2 213.9 C16.7 193.5 12.2 156.8 32.1 131.8 L32.1 131.8 C32.1 131.8 32.1 131.8 32.1 131.8 ZM42.8 140.3 L42.8 140.3 C27.6 159.4 31.1 187.5 50.7 203.2 L50.7 203.2 L50.7 203.2 C70.3 218.8 98.6 216.0 113.8 197.0 L113.8 197.0 C113.8 197.0 113.8 197.0 113.8 197.0 L113.8 197.0 L113.8 197.0 C129.0 177.9 125.4 149.8 105.9 134.1 L105.9 134.1 C105.9 134.1 105.9 134.1 105.9 134.1 L105.9 134.1 L105.9 134.1 C86.3 118.5 58.0 121.3 42.8 140.3 Z"/></clipPath><filter id="4filter1" primitiveUnits="objectBoundingBox"><feImage xlink:href="9111019103162149186191341401559591027237.png" x="0" y="0" width="1.043501" height="1.051829" preserveAspectRatio="none" result="4filter1res"/><feTile x="0" y="0" width="1" height="1" in="4filter1res" /></filter></defs>
</svg>