<?xml version="1.0" standalone="no"?><!DOCTYPE svg PUBLIC "-//W3C//DTD SVG 1.1//EN" "http://www.w3.org/Graphics/SVG/1.1/DTD/svg11.dtd"><!-- Created with RasterEdge (http://www.rasteredge.com/) -->
<!-- Product Page (http://www.rasteredge.com/demo/online-document-viewer/) -->
<svg width="10in" height="7.5in" version="1.1" xmlns="http://www.w3.org/2000/svg" xmlns:xlink="http://www.w3.org/1999/xlink" >
<g clip-path="url(#7clip0)"><path d="M0.0 720.0 L960.0 720.0 L960.0 0.0 L0.0 0.0 Z" class="df7_0"/></g><path d="M86.3 0.3 L86.3 0.3 C86.3 47.8 47.8 86.3 0.3 86.3 L0.3 86.3 C0.3 86.3 0.3 86.3 0.3 86.3 L0.3 86.3 L0.3 0.3 Z" class="df7_1"/><g clip-path="url(#7clip0)"><path d="M86.3 0.3 L86.3 0.3 C86.3 47.8 47.8 86.3 0.3 86.3 L0.3 86.3 C0.3 86.3 0.3 86.3 0.3 86.3 L0.3 86.3 L0.3 0.3 Z" class="df7_2"/></g><image transform="matrix(0.4794544,0,0,-0.4794544,13.33333,188)"  width="391" height="391" xlink:href="image/1766318914423613714013312342151061109132116.png" /><image transform="matrix(0.4888889,0,0,-0.4937778,104.2667,97.06665)"  width="12" height="12" xlink:href="image/70608211892715831104235340517055104.png" /><path d="M17.7 91.6 L17.7 91.6 C17.7 42.2 57.7 2.2 107.1 2.2 L107.1 2.2 C107.1 2.2 107.1 2.2 107.1 2.2 L107.1 2.2 L107.1 2.2 C156.5 2.2 196.5 42.2 196.5 91.6 L196.5 91.6 C196.5 91.6 196.5 91.6 196.5 91.6 L196.5 91.6 L196.5 91.6 C196.5 141.0 156.5 181.0 107.1 181.0 L107.1 181.0 C107.1 181.0 107.1 181.0 107.1 181.0 L107.1 181.0 L107.1 181.0 C57.7 181.0 17.7 141.0 17.7 91.6 L17.7 91.6 C17.7 91.6 17.7 91.6 17.7 91.6 Z" class="df7_3"/><image transform="matrix(0.4806324,0,0,-0.4804233,17.86667,230.6667)"  width="253" height="252" xlink:href="image/7643183110222524916324424350239193189177197.png" /><image transform="matrix(0.4571429,0,0,-0.4617143,77.06667,171.7333)"  width="7" height="7" xlink:href="image/101796716911614318884918410494024812452.png" /><g clip-path="url(#7clip1)"><path d="M32.1 131.8 L32.1 131.8 C52.0 106.8 88.9 103.1 114.4 123.4 L114.4 123.4 C114.4 123.4 114.4 123.4 114.4 123.4 L114.4 123.4 L114.4 123.4 C139.9 143.8 144.4 180.5 124.5 205.5 L124.5 205.5 C124.5 205.5 124.5 205.5 124.5 205.5 L124.5 205.5 L124.5 205.5 C104.5 230.5 67.7 234.3 42.2 213.9 L42.2 213.9 C42.2 213.9 42.2 213.9 42.2 213.9 L42.2 213.9 L42.2 213.9 C16.7 193.5 12.2 156.8 32.1 131.8 L32.1 131.8 C32.1 131.8 32.1 131.8 32.1 131.8 ZM42.8 140.3 L42.8 140.3 C27.6 159.4 31.1 187.5 50.7 203.2 L50.7 203.2 L50.7 203.2 C70.3 218.8 98.6 216.0 113.8 197.0 L113.8 197.0 C113.8 197.0 113.8 197.0 113.8 197.0 L113.8 197.0 L113.8 197.0 C129.0 177.9 125.4 149.8 105.9 134.1 L105.9 134.1 C105.9 134.1 105.9 134.1 105.9 134.1 L105.9 134.1 L105.9 134.1 C86.3 118.5 58.0 121.3 42.8 140.3 Z" class="df7_4"/></g><path d="M32.1 131.8 L32.1 131.8 C52.0 106.8 88.9 103.1 114.4 123.4 L114.4 123.4 C114.4 123.4 114.4 123.4 114.4 123.4 L114.4 123.4 L114.4 123.4 C139.9 143.8 144.4 180.5 124.5 205.5 L124.5 205.5 C124.5 205.5 124.5 205.5 124.5 205.5 L124.5 205.5 L124.5 205.5 C104.5 230.5 67.7 234.3 42.2 213.9 L42.2 213.9 C42.2 213.9 42.2 213.9 42.2 213.9 L42.2 213.9 L42.2 213.9 C16.7 193.5 12.2 156.8 32.1 131.8 L32.1 131.8 C32.1 131.8 32.1 131.8 32.1 131.8 Z" class="df7_5"/><path d="M42.8 140.3 L42.8 140.3 C27.6 159.4 31.1 187.5 50.7 203.2 L50.7 203.2 L50.7 203.2 C70.3 218.8 98.6 216.0 113.8 197.0 L113.8 197.0 C113.8 197.0 113.8 197.0 113.8 197.0 L113.8 197.0 L113.8 197.0 C129.0 177.9 125.4 149.8 105.9 134.1 L105.9 134.1 C105.9 134.1 105.9 134.1 105.9 134.1 L105.9 134.1 L105.9 134.1 C86.3 118.5 58.0 121.3 42.8 140.3 Z" class="df7_5"/><g clip-path="url(#7clip0)"><path d="M106.3 720.0 L960.0 720.0 L960.0 0.0 L106.3 0.0 Z" class="df7_6"/></g><image transform="matrix(0.48,0,0,-0.48,97.86667,720)"  width="35" height="1500" xlink:href="image/43482492461481112772301731068814621123414.png" /><image transform="matrix(0.477193,0,0,-0.4819649,107.4667,364.5333)"  width="19" height="19" xlink:href="image/192161354321116120280249225164246206115234221.png" /><g clip-path="url(#7clip0)"><path d="M106.5 720.0 L114.2 720.0 L114.2 0.0 L106.5 0.0 Z" class="df7_6"/></g><g clip-path="url(#7clip0)"><image transform="matrix(0.7985075,0,0,-1.301989,104,719.9998)"  width="1072" height="553" xlink:href="image/702406013620614724919422310218199132015.jpeg" /></g><text class="ft7_8" y="703.7333" x="924.6667">8</text><style type="text/css"><![CDATA[@font-face{font-family:'ABCDEEGill20Sans20MT';src:url('font/ABCDEE$Gill20Sans20MT.woff') format('woff');} .df7_0{filter:url(#7filter0);fill-rule:evenodd;stroke:none;} .df7_1{fill:#FEFAF4;fill-opacity:0.3;fill-rule:evenodd;stroke:none;} .df7_2{stroke:#D2C39E;stroke-linejoin:round;stroke-miterlimit:10;fill:none;} .df7_3{stroke-width:2.15pt;stroke:#FFF6DB;stroke-linejoin:round;stroke-miterlimit:10;fill:none;} .df7_4{filter:url(#7filter1);fill-rule:evenodd;stroke:none;} .df7_5{stroke:#C7B791;stroke-linejoin:round;stroke-miterlimit:10;fill:none;} .df7_6{fill:#FFFFFF;fill-rule:evenodd;stroke:none;} .ft7_8{font-family:ABCDEEGill20Sans20MT,Arial;font-size:16px;fill:#B5A788;} .ss0{stroke:#000000;}]]></style><defs><clipPath id="7clip0"><path clip-rule="evenodd" d="M0.0 720.0 L960.0 720.0 L960.0 0.0 L0.0 0.0 Z"/></clipPath><filter id="7filter0" primitiveUnits="objectBoundingBox"><feImage xlink:href="16495101125208971495413485382222241658240.png" x="0" y="0" width="0.00625" height="0.008333334" preserveAspectRatio="none" result="7filter0res"/><feTile x="0" y="0" width="1" height="1" in="7filter0res" /></filter><clipPath id="7clip1"><path clip-rule="evenodd" d="M32.1 131.8 L32.1 131.8 C52.0 106.8 88.9 103.1 114.4 123.4 L114.4 123.4 C114.4 123.4 114.4 123.4 114.4 123.4 L114.4 123.4 L114.4 123.4 C139.9 143.8 144.4 180.5 124.5 205.5 L124.5 205.5 C124.5 205.5 124.5 205.5 124.5 205.5 L124.5 205.5 L124.5 205.5 C104.5 230.5 67.7 234.3 42.2 213.9 L42.2 213.9 C42.2 213.9 42.2 213.9 42.2 213.9 L42.2 213.9 L42.2 213.9 C16.7 193.5 12.2 156.8 32.1 131.8 L32.1 131.8 C32.1 131.8 32.1 131.8 32.1 131.8 ZM42.8 140.3 L42.8 140.3 C27.6 159.4 31.1 187.5 50.7 203.2 L50.7 203.2 L50.7 203.2 C70.3 218.8 98.6 216.0 113.8 197.0 L113.8 197.0 C113.8 197.0 113.8 197.0 113.8 197.0 L113.8 197.0 L113.8 197.0 C129.0 177.9 125.4 149.8 105.9 134.1 L105.9 134.1 C105.9 134.1 105.9 134.1 105.9 134.1 L105.9 134.1 L105.9 134.1 C86.3 118.5 58.0 121.3 42.8 140.3 Z"/></clipPath><filter id="7filter1" primitiveUnits="objectBoundingBox"><feImage xlink:href="9111019103162149186191341401559591027237.png" x="0" y="0" width="1.043501" height="1.051829" preserveAspectRatio="none" result="7filter1res"/><feTile x="0" y="0" width="1" height="1" in="7filter1res" /></filter></defs>
</svg>