<?xml version="1.0" standalone="no"?><!DOCTYPE svg PUBLIC "-//W3C//DTD SVG 1.1//EN" "http://www.w3.org/Graphics/SVG/1.1/DTD/svg11.dtd"><!-- Created with RasterEdge (http://www.rasteredge.com/) -->
<!-- Product Page (http://www.rasteredge.com/demo/online-document-viewer/) -->
<svg width="10in" height="7.5in" version="1.1" xmlns="http://www.w3.org/2000/svg" xmlns:xlink="http://www.w3.org/1999/xlink" >
<g clip-path="url(#8clip0)"><path d="M0.0 720.0 L960.0 720.0 L960.0 0.0 L0.0 0.0 Z" class="df8_0"/></g><path d="M86.3 0.3 L86.3 0.3 C86.3 47.8 47.8 86.3 0.3 86.3 L0.3 86.3 C0.3 86.3 0.3 86.3 0.3 86.3 L0.3 86.3 L0.3 0.3 Z" class="df8_1"/><g clip-path="url(#8clip0)"><path d="M86.3 0.3 L86.3 0.3 C86.3 47.8 47.8 86.3 0.3 86.3 L0.3 86.3 C0.3 86.3 0.3 86.3 0.3 86.3 L0.3 86.3 L0.3 0.3 Z" class="df8_2"/></g><image transform="matrix(0.4794544,0,0,-0.4794544,13.33333,188)"  width="391" height="391" xlink:href="image/1766318914423613714013312342151061109132116.png" /><image transform="matrix(0.4888889,0,0,-0.4937778,104.2667,97.06665)"  width="12" height="12" xlink:href="image/70608211892715831104235340517055104.png" /><path d="M17.7 91.6 L17.7 91.6 C17.7 42.2 57.7 2.2 107.1 2.2 L107.1 2.2 C107.1 2.2 107.1 2.2 107.1 2.2 L107.1 2.2 L107.1 2.2 C156.5 2.2 196.5 42.2 196.5 91.6 L196.5 91.6 C196.5 91.6 196.5 91.6 196.5 91.6 L196.5 91.6 L196.5 91.6 C196.5 141.0 156.5 181.0 107.1 181.0 L107.1 181.0 C107.1 181.0 107.1 181.0 107.1 181.0 L107.1 181.0 L107.1 181.0 C57.7 181.0 17.7 141.0 17.7 91.6 L17.7 91.6 C17.7 91.6 17.7 91.6 17.7 91.6 Z" class="df8_3"/><image transform="matrix(0.4806324,0,0,-0.4804233,17.86667,230.6667)"  width="253" height="252" xlink:href="image/7643183110222524916324424350239193189177197.png" /><image transform="matrix(0.4571429,0,0,-0.4617143,77.06667,171.7333)"  width="7" height="7" xlink:href="image/101796716911614318884918410494024812452.png" /><g clip-path="url(#8clip1)"><path d="M32.1 131.8 L32.1 131.8 C52.0 106.8 88.9 103.1 114.4 123.4 L114.4 123.4 C114.4 123.4 114.4 123.4 114.4 123.4 L114.4 123.4 L114.4 123.4 C139.9 143.8 144.4 180.5 124.5 205.5 L124.5 205.5 C124.5 205.5 124.5 205.5 124.5 205.5 L124.5 205.5 L124.5 205.5 C104.5 230.5 67.7 234.3 42.2 213.9 L42.2 213.9 C42.2 213.9 42.2 213.9 42.2 213.9 L42.2 213.9 L42.2 213.9 C16.7 193.5 12.2 156.8 32.1 131.8 L32.1 131.8 C32.1 131.8 32.1 131.8 32.1 131.8 ZM42.8 140.3 L42.8 140.3 C27.6 159.4 31.1 187.5 50.7 203.2 L50.7 203.2 L50.7 203.2 C70.3 218.8 98.6 216.0 113.8 197.0 L113.8 197.0 C113.8 197.0 113.8 197.0 113.8 197.0 L113.8 197.0 L113.8 197.0 C129.0 177.9 125.4 149.8 105.9 134.1 L105.9 134.1 C105.9 134.1 105.9 134.1 105.9 134.1 L105.9 134.1 L105.9 134.1 C86.3 118.5 58.0 121.3 42.8 140.3 Z" class="df8_4"/></g><path d="M32.1 131.8 L32.1 131.8 C52.0 106.8 88.9 103.1 114.4 123.4 L114.4 123.4 C114.4 123.4 114.4 123.4 114.4 123.4 L114.4 123.4 L114.4 123.4 C139.9 143.8 144.4 180.5 124.5 205.5 L124.5 205.5 C124.5 205.5 124.5 205.5 124.5 205.5 L124.5 205.5 L124.5 205.5 C104.5 230.5 67.7 234.3 42.2 213.9 L42.2 213.9 C42.2 213.9 42.2 213.9 42.2 213.9 L42.2 213.9 L42.2 213.9 C16.7 193.5 12.2 156.8 32.1 131.8 L32.1 131.8 C32.1 131.8 32.1 131.8 32.1 131.8 Z" class="df8_5"/><path d="M42.8 140.3 L42.8 140.3 C27.6 159.4 31.1 187.5 50.7 203.2 L50.7 203.2 L50.7 203.2 C70.3 218.8 98.6 216.0 113.8 197.0 L113.8 197.0 C113.8 197.0 113.8 197.0 113.8 197.0 L113.8 197.0 L113.8 197.0 C129.0 177.9 125.4 149.8 105.9 134.1 L105.9 134.1 C105.9 134.1 105.9 134.1 105.9 134.1 L105.9 134.1 L105.9 134.1 C86.3 118.5 58.0 121.3 42.8 140.3 Z" class="df8_5"/><g clip-path="url(#8clip0)"><path d="M106.3 720.0 L960.0 720.0 L960.0 0.0 L106.3 0.0 Z" class="df8_6"/></g><image transform="matrix(0.48,0,0,-0.48,97.86667,720)"  width="35" height="1500" xlink:href="image/43482492461481112772301731068814621123414.png" /><image transform="matrix(0.477193,0,0,-0.4819649,107.4667,364.5333)"  width="19" height="19" xlink:href="image/192161354321116120280249225164246206115234221.png" /><g clip-path="url(#8clip0)"><path d="M106.5 720.0 L114.2 720.0 L114.2 0.0 L106.5 0.0 Z" class="df8_6"/></g><text class="ft8_8" y="72.82666" x="146.4267 170.16 182.7333 215.8028 236.4292 258.214 279.9988 309.9733 324.3595 336.8026 368.3401 395.2067 425.9594 452.9333 465.4667 488.4472 521.5167 544.0862 558.4723 568.4119 583.5827 605.7785 615.8675 635.7092 645.8356 655.962 666.4994 695.3091 717.5049 727.6313 737.7577 758.2346 777.9642 798.5906">E-Medha(JNTUK-LMS) to all Colleges</text><text class="ft8_9" y="125.64" x="146.4267"></text><text class="ft8_10" y="125.64" x="176.0667 202.4987 223.1067 241.7733 254.2054 272.088 290.7547">Content</text><text class="ft8_11" y="125.64" x="339.5733 366.5067 374.7734 387.296 424.1334 438.2827 458.8907 467.0667 482.56 500.4426 537.5067 555.3893 574.056 589.9973 618.7814 637.448 645.736 663.6187 677.992 700.7333 729.5173 750.1254 763.9387 799.96 808.136 836.92 852.9733 868.9147 886.7973 901.1707">withsolvedexamples,moreimages,</text><text class="ft8_11" y="170.4667" x="176.0667 192.008 210.6747 218.9627 247.7467 263.688 276.2693 284.4453 305.0533 323.72 350.7733 377.616 385.792 398.224 429.4667 443.3174 461.2 477.1413 498 510.432 518.7573 547.5414 577.7733 593.4907 612.1573 630.824 639 647.3253 663.6773 679.6187 691.864 699.8533 720.4613 739.1279 766.1067 782.048 800.7147 844.7734 863.4401 882.1067 890.2827">animationswithrealtimeapplicationsandquiz</text><text class="ft8_11" y="215.2667" x="176.0667 194.7333 213.4 231.2827 245.656 258.1627 266.3387 286.9467 305.6133">questions</text><text class="ft8_9" y="268.1066" x="146.4267"></text><text class="ft8_10" y="268.1066" x="176.0667 185.4 204.0667 216.0667 235.1067 252.8773 271.544 283.976 339.5733 357.456 376.1227 394.7893 402.9653 419.0186 437.6853 453.6266 466.1707 474.3466 494.9547">In-depthexplanation</text><text class="ft8_11" y="268.1066" x="526.0267 535.36 549.2107 569.8187 610.84 623.272 641.9387 672.2 691.0908 705.2401 723.1227 737.4961 753.8481 768.4454 776.6215 795.2881 813.1708 844.5067 856.9387 874.8213 893.488">fromtheprescribedtext</text><text class="ft8_11" y="312.8933" x="176.0667 194.7333 215.3413 235.8 253.6827 268.056 280.1147 309.1227 339.848 370.4613 396.8933 421.7333 438.832 455.072 463.248 471.5733 487.5146 506.1813 524.848 539.2213">books(MOOCsSyllabus)</text><text class="ft8_9" y="365.7333" x="146.4267"></text><text class="ft8_10" y="365.7333" x="176.0667 204.0667 224.3387 251.1813 269.848 278.1733 298.7813 314.7227">Download</text><text class="ft8_11" y="365.7333" x="343.84 353.1733 369.1147 385.4667 393.6427 401.9307 410.1067 422.688 430.864 448.7466 463.12 473.088 493.6959 503.0293 513.408 525.84 544.5066 562.3893 572.7679 601.9253 632.6506 663.2266 689.6586 706.7573 717.3226 733.6746 754.1332 772.7999 785.2319 803.1145 821.7812 834.3625 844.7411 868.1865">facilities of the MOOCS content &amp; </text><text class="ft8_12" y="410.56" x="176.0667 198.6361 206.9689 225.9138 243.8125 264.3268">Videos</text><text class="ft8_9" y="463.36" x="146.4267"></text><text class="ft8_10" y="463.36" x="176.0667 205.224 225.6827 242.0347 259.9174 270.296 282.728 300.6107 314.984 327.528 338.0187">Mock test/ </text><text class="ft8_11" y="463.36" x="348.1067 365.2053 381.1467 409.9307 428.5974 436.8853 454.768 465.1467 477.5787 495.4613 509.9093 522.3413 536.7893 546.9066 555.9786 576.5866 591.184 601.5626 618.9226 634.3786 652.2612 667.9413 684.2932 694.8212 713.4879 732.1545 740.3306 752.9119 757.4292">Sample tests for every unit. </text><text class="ft8_13" y="516.2" x="146.4267"></text><text class="ft8_12" y="516.2" x="176.0667 195.0116 208.8746 226.2128 242.5793 250.7627 271.3891 289.9603 304.3465">Previous </text><text class="ft8_14" y="516.2" x="314.7733 333.4567 352.14 370.0387 384.4248 396.8679 405.126 425.7524 444.4357 454.45 473.1334 488.8647 507.5481 525.4467 540.0571">question papers</text><text class="ft8_12" y="516.2" x="564.9734 575.3734">/ </text><text class="ft8_14" y="516.2" x="585.7733 616.5261 635.2095 652.9586 667.3448 679.7879 688.1207 708.7471 727.4304 737.4447 756.1281 772.0836 790.767">Question bank</text><text class="ft8_12" y="516.2" x="819.1733 828.2534 848.8798 863.4528">for </text><text class="ft8_11" y="561" x="176.0667 192.008 200.296 208.472 218.44 232.8133 251.48 270.1467 278.3973 296.28 312.632 325.064 339.4373 343.992">all subjects. </text><text class="ft8_13" y="613.8333" x="146.4267"></text><text class="ft8_12" y="613.8333" x="176.0667 195.0116 208.8746 229.1274 245.494 253.6773 272.5848 280.7681 299.4514 315.407 325.6455 346.2719 364.9552 377.3983 385.5816 406.208 424.8914 435.2793 447.7224 468.3488">Providing option to </text><text class="ft8_15" y="613.8333" x="478.8 491.2431 506.0403 521.9959 538.3625 556.149 566.7612 581.1473 593.5905 612.2738 631.3308 649.2295 667.9128 680.356 685.6994 700.0856 709.9504 725.9059 740.2921 754.6782 762.9736 778.9291 797.6125 826.4222 844.3208 863.0042 875.4473">track student’s assignment </text><text class="ft8_11" y="658.6333" x="176.0667 196.6747 206.008 215.3413 223.5173 231.6933 250.36 268.2427 278.2107 294.152 302.44 316.8134 336.3013">offline also.</text><text class="ft8_16" y="703.7333" x="924.6667">9</text><style type="text/css"><![CDATA[@font-face{font-family:'ABCDEEGill20Sans20MTBold';src:url('font/ABCDEE$Gill20Sans20MT,Bold.woff') format('woff');}@font-face{font-family:'ABCDEEWingdings202';src:url('font/ABCDEE$Wingdings202.woff') format('woff');}@font-face{font-family:'ABCDEEGill20Sans20MT';src:url('font/ABCDEE$Gill20Sans20MT.woff') format('woff');}@font-face{font-family:'ABCDEEGill20Sans20MTIdentityH';src:url('font/ABCDEE$Gill20Sans20MTIdentity-H.woff') format('woff');} .df8_0{filter:url(#8filter0);fill-rule:evenodd;stroke:none;} .df8_1{fill:#FEFAF4;fill-opacity:0.3;fill-rule:evenodd;stroke:none;} .df8_2{stroke:#D2C39E;stroke-linejoin:round;stroke-miterlimit:10;fill:none;} .df8_3{stroke-width:2.15pt;stroke:#FFF6DB;stroke-linejoin:round;stroke-miterlimit:10;fill:none;} .df8_4{filter:url(#8filter1);fill-rule:evenodd;stroke:none;} .df8_5{stroke:#C7B791;stroke-linejoin:round;stroke-miterlimit:10;fill:none;} .df8_6{fill:#FFFFFF;fill-rule:evenodd;stroke:none;} .ft8_8{font-family:ABCDEEGill20Sans20MTBold,Arial;font-size:37.36667px;fill:#0000FF;} .ft8_9{font-family:ABCDEEWingdings202,Arial;font-size:29.86666px;fill:#3891A7;} .ft8_10{font-family:ABCDEEGill20Sans20MT,Arial;font-size:37.33334px;fill:#000099;} .ft8_11{font-family:ABCDEEGill20Sans20MT,Arial;font-size:37.33334px;fill:#000000;} .ft8_12{font-family:ABCDEEGill20Sans20MT,Arial;font-size:37.36667px;fill:#000000;} .ft8_13{font-family:ABCDEEWingdings202,Arial;font-size:29.9px;fill:#3891A7;} .ft8_14{font-family:ABCDEEGill20Sans20MT,Arial;font-size:37.36667px;fill:#000099;} .ft8_15{font-family:ABCDEEGill20Sans20MTIdentityH,Arial;font-size:37.36667px;fill:#000099;} .ft8_16{font-family:ABCDEEGill20Sans20MT,Arial;font-size:16px;fill:#B5A788;} .ss0{stroke:#000000;}]]></style><defs><clipPath id="8clip0"><path clip-rule="evenodd" d="M0.0 720.0 L960.0 720.0 L960.0 0.0 L0.0 0.0 Z"/></clipPath><filter id="8filter0" primitiveUnits="objectBoundingBox"><feImage xlink:href="16495101125208971495413485382222241658240.png" x="0" y="0" width="0.00625" height="0.008333334" preserveAspectRatio="none" result="8filter0res"/><feTile x="0" y="0" width="1" height="1" in="8filter0res" /></filter><clipPath id="8clip1"><path clip-rule="evenodd" d="M32.1 131.8 L32.1 131.8 C52.0 106.8 88.9 103.1 114.4 123.4 L114.4 123.4 C114.4 123.4 114.4 123.4 114.4 123.4 L114.4 123.4 L114.4 123.4 C139.9 143.8 144.4 180.5 124.5 205.5 L124.5 205.5 C124.5 205.5 124.5 205.5 124.5 205.5 L124.5 205.5 L124.5 205.5 C104.5 230.5 67.7 234.3 42.2 213.9 L42.2 213.9 C42.2 213.9 42.2 213.9 42.2 213.9 L42.2 213.9 L42.2 213.9 C16.7 193.5 12.2 156.8 32.1 131.8 L32.1 131.8 C32.1 131.8 32.1 131.8 32.1 131.8 ZM42.8 140.3 L42.8 140.3 C27.6 159.4 31.1 187.5 50.7 203.2 L50.7 203.2 L50.7 203.2 C70.3 218.8 98.6 216.0 113.8 197.0 L113.8 197.0 C113.8 197.0 113.8 197.0 113.8 197.0 L113.8 197.0 L113.8 197.0 C129.0 177.9 125.4 149.8 105.9 134.1 L105.9 134.1 C105.9 134.1 105.9 134.1 105.9 134.1 L105.9 134.1 L105.9 134.1 C86.3 118.5 58.0 121.3 42.8 140.3 Z"/></clipPath><filter id="8filter1" primitiveUnits="objectBoundingBox"><feImage xlink:href="9111019103162149186191341401559591027237.png" x="0" y="0" width="1.043501" height="1.051829" preserveAspectRatio="none" result="8filter1res"/><feTile x="0" y="0" width="1" height="1" in="8filter1res" /></filter></defs>
</svg>