<?xml version="1.0" standalone="no"?><!DOCTYPE svg PUBLIC "-//W3C//DTD SVG 1.1//EN" "http://www.w3.org/Graphics/SVG/1.1/DTD/svg11.dtd"><!-- Created with RasterEdge (http://www.rasteredge.com/) -->
<!-- Product Page (http://www.rasteredge.com/demo/online-document-viewer/) -->
<svg width="8.263889in" height="11.69444in" version="1.1" xmlns="http://www.w3.org/2000/svg" xmlns:xlink="http://www.w3.org/1999/xlink" >
<g>
<image transform="matrix(0.3197635,0,0,-0.3199392,0,1122)"  width="2481" height="3509" xlink:href="image/281531011027821717261170292171532075911981.jpeg" /><path d="M386.2 400.7 L386.2 400.7 C404.8 400.7 423.3 400.7 441.9 400.7" class="df0_0"/><path d="M389.1 429.0 L389.1 429.0 C405.2 429.0 421.4 429.0 437.6 429.0" class="df0_1"/><path d="M390.5 458.7 L390.5 458.7 C406.9 458.7 423.3 458.7 439.8 458.7" class="df0_2"/><path d="M391.2 483.3 L391.2 483.3 C409.3 483.3 427.5 483.3 445.6 483.3" class="df0_3"/><path d="M392.0 513.8 L392.0 513.8 C409.3 513.8 426.7 513.8 444.1 513.8" class="df0_4"/><path d="M398.5 539.8 L398.5 539.8 C413.0 539.8 427.5 539.8 441.9 539.8" class="df0_5"/><path d="M396.3 569.5 L396.3 569.5 C413.9 569.5 431.6 569.5 449.2 569.5" class="df0_6"/><path d="M402.1 595.6 L402.1 595.6 C416.3 595.6 430.6 595.6 444.8 595.6" class="df0_1"/><style type="text/css"><![CDATA[ .df0_0{stroke-width:13.99973pt;stroke:#FFFF00;stroke-miterlimit:10;fill:none;} .df0_1{stroke-width:13.99948pt;stroke:#FFFF00;stroke-miterlimit:10;fill:none;} .df0_2{stroke-width:13.99982pt;stroke:#FFFF00;stroke-miterlimit:10;fill:none;} .df0_3{stroke-width:13.99969pt;stroke:#FFFF00;stroke-miterlimit:10;fill:none;} .df0_4{stroke-width:13.99971pt;stroke:#FFFF00;stroke-miterlimit:10;fill:none;} .df0_5{stroke-width:13.99963pt;stroke:#FFFF00;stroke-miterlimit:10;fill:none;} .df0_6{stroke-width:13.99984pt;stroke:#FFFF00;stroke-miterlimit:10;fill:none;} .ss0{stroke:#000000;}]]></style></g>
</svg>